{
.appVersion = "3260";
.formatVersion = 3;
DisplayStrings = (
"ABCDEFGHIJKLMN
OPQRSTUVWXYZ
0123456789 
.,:;!?•*#///backslash -–—_
(){}[]“”‘’\"'@&©|
$+−×÷=><~^%↑↗→↘↓↙←↖",
"]",
"←",
E,
"["
);
axes = (
{
name = Scribble;
tag = SCRI;
},
{
name = Scrabble;
tag = SCRA;
}
);
date = "2024-10-09 18:42:11 +0000";
familyName = "TMT M Krone";
fontMaster = (
{
axesValues = (
0,
0
);
customParameters = (
{
name = "Master Icon Glyph Name";
value = A;
}
);
id = m01;
metricValues = (
{
over = 16;
pos = 800;
},
{
over = 16;
pos = 700;
},
{
over = 16;
pos = 500;
},
{
over = -16;
},
{
over = -16;
pos = -200;
},
{
}
);
name = Regular;
},
{
axesValues = (
1000,
0
);
customParameters = (
{
name = "Master Icon Glyph Name";
value = A;
}
);
id = "3EED4E43-93E5-49B5-B4F5-8693E91ADEE2";
metricValues = (
{
over = 16;
pos = 800;
},
{
over = 16;
pos = 700;
},
{
over = 16;
pos = 500;
},
{
over = -16;
},
{
over = -16;
pos = -200;
},
{
}
);
name = Scribble;
},
{
axesValues = (
0,
1000
);
customParameters = (
{
name = "Master Icon Glyph Name";
value = A;
}
);
id = "B7F60EEF-5018-4FBA-9984-B24EB61DE206";
metricValues = (
{
over = 16;
pos = 800;
},
{
over = 16;
pos = 700;
},
{
over = 16;
pos = 500;
},
{
over = -16;
},
{
over = -16;
pos = -200;
},
{
}
);
name = Scrabble;
},
{
axesValues = (
1000,
1000
);
customParameters = (
{
name = "Master Icon Glyph Name";
value = A;
}
);
id = "33631C71-1333-4331-8A89-BDCD639A4A27";
metricValues = (
{
over = 16;
pos = 800;
},
{
over = 16;
pos = 700;
},
{
over = 16;
pos = 500;
},
{
over = -16;
},
{
over = -16;
pos = -200;
},
{
}
);
name = Scrobble;
}
);
glyphs = (
{
glyphname = A;
lastChange = "2024-10-09 22:05:29 +0000";
layers = (
{
layerId = m01;
shapes = (
{
closed = 1;
nodes = (
(232,338,o),
(206,445,o),
(202,457,cs),
(193,486,o),
(181,548,o),
(153,506,cs),
(140,487,o),
(110,391,o),
(117,368,cs),
(126,335,o),
(190,346,o),
(223,340,cs)
);
},
{
closed = 1;
nodes = (
(308,266,o),
(323,218,o),
(328,174,cs),
(331,153,o),
(332,133,o),
(332,113,cs),
(332,93,o),
(340,77,o),
(340,56,cs),
(340,3,o),
(308,16,o),
(292,52,cs),
(275,88,o),
(272,129,o),
(267,169,cs),
(263,198,o),
(266,260,o),
(234,271,cs),
(217,277,o),
(190,271,o),
(174,271,cs),
(158,271,o),
(127,284,o),
(113,279,cs),
(62,260,o),
(105,100,o),
(28,100,cs),
(-36,100,o),
(28,299,o),
(36,340,cs),
(52,421,o),
(76,506,o),
(109,583,cs),
(145,668,o),
(224,615,o),
(247,554,cs),
(264,509,o),
(270,469,o),
(279,425,cs),
(286,388,o),
(308,347,o),
(308,311,cs)
);
}
);
width = 340;
},
{
layerId = "3EED4E43-93E5-49B5-B4F5-8693E91ADEE2";
shapes = (
{
closed = 1;
nodes = (
(283,321,o),
(270,459,o),
(268,475,cs),
(261,513,o),
(258,592,o),
(212,546,cs),
(190,526,o),
(131,414,o),
(135,385,cs),
(139,342,o),
(228,341,o),
(271,326,cs)
);
},
{
closed = 1;
nodes = (
(369,215,o),
(379,153,o),
(377,97,cs),
(376,71,o),
(374,46,o),
(370,21,cs),
(365,-3,o),
(372,-25,o),
(367,-51,cs),
(356,-117,o),
(316,-93,o),
(302,-45,cs),
(287,3,o),
(292,55,o),
(294,105,cs),
(295,142,o),
(312,217,o),
(271,238,cs),
(249,250,o),
(212,248,o),
(191,252,cs),
(169,255,o),
(131,278,o),
(111,276,cs),
(38,264,o),
(62,57,o),
(-41,74,cs),
(-127,89,o),
(1,320,o),
(20,369,cs),
(59,465,o),
(109,564,o),
(169,651,cs),
(236,748,o),
(331,665,o),
(348,584,cs),
(362,525,o),
(361,474,o),
(364,418,cs),
(366,371,o),
(386,315,o),
(379,270,cs)
);
}
);
width = 340;
},
{
layerId = "B7F60EEF-5018-4FBA-9984-B24EB61DE206";
shapes = (
{
closed = 1;
nodes = (
(217,343,o),
(179,412,o),
(173,420,cs),
(162,439,o),
(142,480,o),
(129,446,cs),
(124,430,o),
(121,357,o),
(130,342,cs),
(143,320,o),
(185,340,o),
(211,342,cs)
);
},
{
closed = 1;
nodes = (
(284,306,o),
(304,275,o),
(315,245,cs),
(321,231,o),
(325,217,o),
(329,203,cs),
(333,189,o),
(341,179,o),
(345,165,cs),
(355,127,o),
(330,131,o),
(312,153,cs),
(294,175,o),
(283,203,o),
(273,231,cs),
(265,250,o),
(255,294,o),
(231,296,cs),
(217,297,o),
(199,288,o),
(188,285,cs),
(177,282,o),
(152,285,o),
(143,279,cs),
(111,256,o),
(171,152,o),
(117,138,cs),
(71,126,o),
(80,277,o),
(78,307,cs),
(75,367,o),
(75,432,o),
(84,492,cs),
(95,558,o),
(160,536,o),
(187,497,cs),
(207,469,o),
(219,442,o),
(233,412,cs),
(246,388,o),
(269,363,o),
(276,338,cs)
);
}
);
width = 340;
},
{
layerId = "33631C71-1333-4331-8A89-BDCD639A4A27";
shapes = (
{
closed = 1;
nodes = (
(282,325,o),
(249,424,o),
(251,442,cs),
(254,464,o),
(214,523,o),
(161,495,cs),
(117,472,o),
(75,381,o),
(82,377,cs),
(150,341,o),
(189,333,o),
(252,328,cs)
);
},
{
closed = 1;
nodes = (
(432,276,o),
(434,234,o),
(434,196,cs),
(434,163,o),
(439,163,o),
(439,153,cs),
(439,126,o),
(468,114,o),
(477,89,cs),
(487,58,o),
(393,43,o),
(368,83,cs),
(343,124,o),
(331,149,o),
(331,193,cs),
(331,229,o),
(350,270,o),
(270,285,cs),
(247,290,o),
(231,279,o),
(193,279,cs),
(163,279,o),
(104,294,o),
(82,288,cs),
(13,269,o),
(79,125,o),
(-37,125,cs),
(-166,125,o),
(-67,299,o),
(-67,332,cs),
(-67,419,o),
(16,496,o),
(70,564,cs),
(133,642,o),
(246,582,o),
(290,537,cs),
(350,479,o),
(340,445,o),
(340,416,cs),
(340,386,o),
(402,339,o),
(417,307,cs)
);
}
);
width = 340;
}
);
unicode = (65,97);
},
{
glyphname = B;
lastChange = "2024-10-09 19:47:42 +0000";
layers = (
{
layerId = m01;
shapes = (
{
closed = 1;
nodes = (
(227,469,o),
(224,465,o),
(224,465,cs),
(224,461,o),
(227,457,o),
(227,453,cs),
(227,409,o),
(325,527,o),
(325,567,cs),
(325,607,o),
(190,592,o),
(190,554,cs),
(190,522,o),
(227,498,o),
(227,469,cs)
);
},
{
closed = 1;
nodes = (
(316,129,o),
(373,157,o),
(402,210,cs),
(434,270,o),
(423,317,o),
(357,335,cs),
(332,342,o),
(275,353,o),
(251,340,cs),
(223,326,o),
(240,270,o),
(240,243,cs),
(240,218,o),
(227,190,o),
(227,165,cs),
(227,162,o),
(211,133,o),
(215,129,cs),
(222,122,o),
(246,119,o),
(256,120,cs)
);
},
{
closed = 1;
nodes = (
(154,319,o),
(137,344,o),
(141,380,cs),
(145,416,o),
(148,446,o),
(138,481,cs),
(116,559,o),
(109,475,o),
(60,481,cs),
(37,484,o),
(20,506,o),
(20,529,cs),
(20,558,o),
(53,577,o),
(73,591,cs),
(135,634,o),
(202,648,o),
(272,648,cs),
(321,648,o),
(420,659,o),
(429,591,cs),
(436,542,o),
(369,493,o),
(337,461,cs),
(321,445,o),
(301,433,o),
(321,416,cs),
(329,409,o),
(353,412,o),
(361,412,cs),
(382,412,o),
(396,399,o),
(413,392,cs),
(446,379,o),
(472,366,o),
(490,340,cs),
(502,323,o),
(507,273,o),
(507,250,cs),
(507,196,o),
(441,121,o),
(406,97,cs),
(347,57,o),
(281,31,o),
(211,48,cs),
(147,63,o),
(91,97,o),
(77,162,cs),
(71,189,o),
(73,222,o),
(93,243,cs),
(121,272,o),
(120,243,o),
(150,243,cs),
(168,243,o),
(154,270,o),
(154,286,cs)
);
}
);
width = 527;
},
{
layerId = "3EED4E43-93E5-49B5-B4F5-8693E91ADEE2";
shapes = (
{
closed = 1;
nodes = (
(206,511,o),
(203,506,o),
(203,506,cs),
(203,501,o),
(207,496,o),
(207,492,cs),
(212,436,o),
(310,593,o),
(306,644,cs),
(302,694,o),
(153,664,o),
(156,616,cs),
(160,575,o),
(203,548,o),
(206,511,cs)
);
},
{
closed = 1;
nodes = (
(339,92,o),
(400,132,o),
(428,201,cs),
(458,280,o),
(441,337,o),
(365,354,cs),
(336,361,o),
(271,370,o),
(245,351,cs),
(216,332,o),
(240,262,o),
(243,229,cs),
(246,197,o),
(233,161,o),
(236,129,cs),
(236,126,o),
(221,87,o),
(226,83,cs),
(235,74,o),
(262,73,o),
(273,75,cs)
);
},
{
closed = 1;
nodes = (
(139,317,o),
(117,346,o),
(119,392,cs),
(119,437,o),
(120,476,o),
(105,519,cs),
(73,615,o),
(73,509,o),
(18,512,cs),
(-8,514,o),
(-29,540,o),
(-32,569,cs),
(-34,606,o),
(1,633,o),
(21,651,cs),
(87,712,o),
(160,735,o),
(239,741,cs),
(294,745,o),
(403,768,o),
(420,683,cs),
(433,622,o),
(363,555,o),
(330,511,cs),
(314,490,o),
(293,473,o),
(317,453,cs),
(326,445,o),
(353,451,o),
(362,452,cs),
(385,453,o),
(402,439,o),
(422,431,cs),
(460,418,o),
(491,404,o),
(514,372,cs),
(528,352,o),
(539,290,o),
(541,261,cs),
(547,193,o),
(480,93,o),
(443,60,cs),
(381,4,o),
(310,-35,o),
(229,-19,cs),
(157,-6,o),
(91,32,o),
(69,112,cs),
(59,146,o),
(58,187,o),
(79,216,cs),
(107,255,o),
(108,218,o),
(142,221,cs),
(162,222,o),
(144,255,o),
(142,275,cs)
);
}
);
width = 527;
},
{
layerId = "B7F60EEF-5018-4FBA-9984-B24EB61DE206";
shapes = (
{
closed = 1;
nodes = (
(264,429,o),
(261,427,o),
(261,427,cs),
(261,424,o),
(262,421,o),
(261,419,cs),
(255,390,o),
(341,451,o),
(347,476,cs),
(353,502,o),
(255,514,o),
(250,490,cs),
(245,468,o),
(268,448,o),
(264,429,cs)
);
},
{
closed = 1;
nodes = (
(279,196,o),
(323,206,o),
(351,235,cs),
(383,269,o),
(382,301,o),
(337,323,cs),
(321,331,o),
(281,346,o),
(263,342,cs),
(241,338,o),
(245,299,o),
(241,282,cs),
(238,266,o),
(224,250,o),
(220,234,cs),
(220,232,o),
(205,216,o),
(207,212,cs),
(211,207,o),
(228,202,o),
(234,200,cs)
);
},
{
closed = 1;
nodes = (
(191,344,o),
(182,362,o),
(191,385,cs),
(199,408,o),
(205,427,o),
(203,451,cs),
(199,504,o),
(182,452,o),
(147,463,cs),
(131,469,o),
(123,485,o),
(126,500,cs),
(130,518,o),
(156,526,o),
(172,532,cs),
(222,549,o),
(272,547,o),
(321,536,cs),
(357,528,o),
(428,521,o),
(425,475,cs),
(423,443,o),
(368,422,o),
(341,406,cs),
(328,399,o),
(311,394,o),
(324,380,cs),
(327,374,o),
(345,372,o),
(351,371,cs),
(366,368,o),
(374,358,o),
(385,350,cs),
(406,336,o),
(423,324,o),
(432,305,cs),
(438,292,o),
(435,259,o),
(432,244,cs),
(424,209,o),
(366,172,o),
(338,162,cs),
(290,146,o),
(239,140,o),
(193,161,cs),
(149,181,o),
(115,211,o),
(114,256,cs),
(114,274,o),
(119,294,o),
(137,305,cs),
(160,319,o),
(156,301,o),
(177,296,cs),
(190,293,o),
(184,313,o),
(186,323,cs)
);
}
);
width = 527;
},
{
layerId = "33631C71-1333-4331-8A89-BDCD639A4A27";
shapes = (
{
closed = 1;
nodes = (
(233,488,o),
(229,475,o),
(231,472,c),
(219,495,o),
(225,476,o),
(245,458,c),
(243,417,o),
(317,559,o),
(313,593,c),
(318,642,o),
(191,649,o),
(197,596,c),
(197,539,o),
(239,516,o),
(230,489,c)
);
},
{
closed = 1;
nodes = (
(313,75,o),
(364,109,o),
(372,172,c),
(406,246,o),
(385,324,o),
(345,316,c),
(319,350,o),
(277,339,o),
(251,351,c),
(224,319,o),
(247,250,o),
(233,212,c),
(240,183,o),
(234,169,o),
(235,145,c),
(226,119,o),
(210,111,o),
(222,103,c),
(228,69,o),
(246,67,o),
(252,88,c)
);
},
{
closed = 1;
nodes = (
(173,322,o),
(163,337,o),
(156,390,c),
(164,416,o),
(171,459,o),
(154,490,c),
(130,578,o),
(126,491,o),
(82,494,c),
(70,516,o),
(67,517,o),
(64,555,c),
(53,588,o),
(93,616,o),
(114,648,c),
(156,681,o),
(222,685,o),
(271,698,cs),
(319,708,o),
(392,731,o),
(405,616,c),
(398,568,o),
(362,506,o),
(325,465,c),
(316,461,o),
(288,456,o),
(312,437,c),
(321,410,o),
(340,426,o),
(340,422,c),
(353,406,o),
(384,421,o),
(395,383,c),
(423,397,o),
(435,375,o),
(441,328,c),
(463,325,o),
(476,274,o),
(455,246,c),
(458,183,o),
(418,75,o),
(379,42,c),
(327,12,o),
(277,-31,o),
(221,-6,c),
(173,29,o),
(109,42,o),
(96,124,c),
(112,169,o),
(103,216,o),
(129,210,c),
(157,244,o),
(142,223,o),
(180,238,c),
(186,228,o),
(163,263,o),
(170,268,c)
);
}
);
width = 527;
}
);
unicode = (66,98);
},
{
glyphname = C;
lastChange = "2024-10-09 22:05:13 +0000";
layers = (
{
layerId = m01;
shapes = (
{
closed = 1;
nodes = (
(294,157,o),
(314,162,o),
(334,169,cs),
(347,173,o),
(367,189,o),
(379,185,cs),
(416,173,o),
(391,134,o),
(375,120,cs),
(310,65,o),
(210,78,o),
(140,113,cs),
(72,147,o),
(37,234,o),
(27,307,cs),
(16,392,o),
(10,489,o),
(68,558,cs),
(120,619,o),
(231,628,o),
(278,554,cs),
(295,527,o),
(290,477,o),
(253,477,cs),
(217,477,o),
(209,520,o),
(176,522,cs),
(100,528,o),
(110,364,o),
(116,319,cs),
(130,218,o),
(168,157,o),
(270,157,cs)
);
}
);
width = 398;
},
{
layerId = "3EED4E43-93E5-49B5-B4F5-8693E91ADEE2";
shapes = (
{
closed = 1;
nodes = (
(310,107,o),
(341,107,o),
(373,110,cs),
(394,111,o),
(426,125,o),
(444,116,cs),
(497,93,o),
(451,53,o),
(425,42,cs),
(315,-6,o),
(167,37,o),
(69,96,cs),
(-26,154,o),
(-61,265,o),
(-61,353,cs),
(-59,456,o),
(-48,570,o),
(53,636,cs),
(144,693,o),
(313,674,o),
(368,575,cs),
(388,539,o),
(371,482,o),
(315,492,cs),
(261,501,o),
(258,554,o),
(208,565,cs),
(95,592,o),
(76,398,o),
(76,343,cs),
(76,221,o),
(120,140,o),
(274,113,cs)
);
}
);
width = 398;
},
{
layerId = "B7F60EEF-5018-4FBA-9984-B24EB61DE206";
shapes = (
{
closed = 1;
nodes = (
(293,246,o),
(307,252,o),
(322,261,cs),
(331,265,o),
(343,278,o),
(354,278,cs),
(383,276,o),
(370,248,o),
(360,236,cs),
(318,191,o),
(241,183,o),
(183,193,cs),
(128,203,o),
(89,251,o),
(71,295,cs),
(52,346,o),
(33,405,o),
(68,458,cs),
(98,505,o),
(181,529,o),
(226,491,cs),
(243,477,o),
(246,445,o),
(218,438,cs),
(191,432,o),
(179,458,o),
(154,454,cs),
(96,445,o),
(126,344,o),
(137,318,cs),
(162,257,o),
(199,225,o),
(276,242,cs)
);
}
);
width = 398;
},
{
layerId = "33631C71-1333-4331-8A89-BDCD639A4A27";
shapes = (
{
closed = 1;
nodes = (
(303,199,o),
(327,205,o),
(352,203,c),
(372,191,o),
(414,213,o),
(400,213,c),
(460,200,o),
(422,173,o),
(414,149,c),
(332,103,o),
(219,122,o),
(118,159,c),
(52,186,o),
(-3,241,o),
(-21,300,c),
(-18,391,o),
(-41,468,o),
(52,510,c),
(96,559,o),
(238,574,o),
(278,517,c),
(309,484,o),
(297,459,o),
(269,456,c),
(232,446,o),
(219,489,o),
(185,498,c),
(83,486,o),
(93,352,o),
(93,318,c),
(121,243,o),
(168,188,o),
(289,179,c)
);
}
);
width = 398;
}
);
unicode = (67,99);
},
{
glyphname = D;
lastChange = "2024-10-09 19:47:48 +0000";
layers = (
{
layerId = m01;
shapes = (
{
closed = 1;
nodes = (
(94,331,o),
(106,425,o),
(90,522,cs),
(86,550,o),
(87,558,o),
(66,578,cs),
(53,590,o),
(46,599,o),
(46,615,cs),
(46,653,o),
(66,672,o),
(94,675,cs),
(179,684,o),
(288,618,o),
(350,571,cs),
(421,517,o),
(490,461,o),
(508,367,cs),
(526,275,o),
(470,216,o),
(402,162,cs),
(336,110,o),
(270,61,o),
(188,39,cs),
(148,28,o),
(90,5,o),
(49,16,cs),
(17,25,o),
(8,49,o),
(38,68,cs),
(53,77,o),
(81,77,o),
(98,84,cs),
(122,94,o),
(146,102,o),
(171,113,cs),
(219,135,o),
(269,153,o),
(314,185,cs),
(390,238,o),
(468,325,o),
(402,416,cs),
(371,458,o),
(334,489,o),
(289,518,cs),
(281,523,o),
(188,578,o),
(184,571,cs),
(168,546,o),
(188,469,o),
(188,437,cs),
(188,384,o),
(184,327,o),
(184,275,cs),
(184,238,o),
(195,168,o),
(151,157,cs),
(98,144,o),
(130,234,o),
(94,234,cs),
(94,234,o),
(94,234,o),
(94,234,cs)
);
}
);
width = 531;
},
{
layerId = "3EED4E43-93E5-49B5-B4F5-8693E91ADEE2";
shapes = (
{
closed = 1;
nodes = (
(82,297,o),
(78,411,o),
(43,524,cs),
(33,556,o),
(33,566,o),
(6,586,cs),
(-11,598,o),
(-21,607,o),
(-24,626,cs),
(-31,672,o),
(-11,698,o),
(20,706,cs),
(114,731,o),
(249,671,o),
(326,625,cs),
(416,573,o),
(504,519,o),
(541,410,cs),
(578,304,o),
(525,225,o),
(459,149,cs),
(393,75,o),
(328,6,o),
(240,-34,cs),
(197,-53,o),
(136,-91,o),
(88,-85,cs),
(49,-80,o),
(35,-53,o),
(65,-25,cs),
(81,-11,o),
(112,-7,o),
(131,4,cs),
(156,20,o),
(181,34,o),
(208,51,cs),
(257,85,o),
(310,115,o),
(355,161,cs),
(431,237,o),
(504,354,o),
(413,451,cs),
(370,496,o),
(323,526,o),
(267,553,cs),
(258,557,o),
(143,607,o),
(139,597,cs),
(126,565,o),
(163,477,o),
(168,439,cs),
(178,377,o),
(183,308,o),
(192,246,cs),
(199,202,o),
(224,121,o),
(177,100,cs),
(120,76,o),
(140,188,o),
(99,182,cs),
(99,182,o),
(99,182,o),
(99,182,cs)
);
}
);
width = 531;
},
{
layerId = "B7F60EEF-5018-4FBA-9984-B24EB61DE206";
shapes = (
{
closed = 1;
nodes = (
(136,371,o),
(157,424,o),
(159,483,cs),
(160,500,o),
(162,505,o),
(150,520,cs),
(143,530,o),
(139,536,o),
(141,546,cs),
(146,568,o),
(162,576,o),
(182,573,cs),
(243,565,o),
(311,509,o),
(348,471,cs),
(390,428,o),
(431,385,o),
(432,326,cs),
(432,269,o),
(384,243,o),
(330,222,cs),
(276,201,o),
(224,184,o),
(163,183,cs),
(134,184,o),
(90,179,o),
(63,192,cs),
(41,202,o),
(39,218,o),
(62,224,cs),
(74,227,o),
(93,222,o),
(106,225,cs),
(124,227,o),
(143,228,o),
(161,229,cs),
(198,236,o),
(235,237,o),
(271,250,cs),
(331,269,o),
(398,307,o),
(364,371,cs),
(347,402,o),
(326,426,o),
(298,450,cs),
(293,454,o),
(235,501,o),
(232,498,cs),
(217,486,o),
(221,436,o),
(217,418,cs),
(209,387,o),
(199,354,o),
(192,323,cs),
(187,302,o),
(185,258,o),
(153,259,cs),
(114,260,o),
(148,307,o),
(123,313,cs),
(123,313,o),
(123,313,o),
(123,313,cs)
);
}
);
width = 531;
},
{
layerId = "33631C71-1333-4331-8A89-BDCD639A4A27";
shapes = (
{
closed = 1;
nodes = (
(102,337,o),
(104,425,o),
(111,538,c),
(86,588,o),
(88,574,o),
(72,608,c),
(74,613,o),
(56,618,o),
(59,635,cs),
(66,691,o),
(78,715,o),
(114,707,c),
(176,736,o),
(283,641,o),
(336,594,cs),
(419,525,o),
(470,483,o),
(488,358,c),
(503,284,o),
(464,217,o),
(381,128,cs),
(333,77,o),
(280,14,o),
(192,-11,c),
(143,-16,o),
(108,-45,o),
(67,-18,c),
(38,-11,o),
(33,17,o),
(64,43,c),
(78,46,o),
(99,34,o),
(114,69,c),
(125,53,o),
(159,58,o),
(172,99,c),
(214,108,o),
(274,144,o),
(318,158,c),
(377,233,o),
(458,317,o),
(396,428,c),
(371,461,o),
(336,507,o),
(290,541,c),
(284,537,o),
(207,593,o),
(192,611,c),
(165,576,o),
(202,485,o),
(194,442,c),
(197,399,o),
(187,323,o),
(193,274,cs),
(196,226,o),
(207,150,o),
(167,133,c),
(114,132,o),
(130,216,o),
(99,225,c),
(117,213,o),
(91,226,o),
(114,225,c)
);
}
);
width = 531;
}
);
unicode = (68,100);
},
{
glyphname = E;
lastChange = "2024-10-09 19:49:26 +0000";
layers = (
{
layerId = m01;
shapes = (
{
closed = 1;
nodes = (
(150,487,o),
(137,419,o),
(145,406,cs),
(150,398,o),
(186,406,o),
(194,406,cs),
(231,406,o),
(281,410,o),
(287,365,cs),
(294,313,o),
(222,328,o),
(190,325,cs),
(134,320,o),
(113,310,o),
(113,248,cs),
(113,240,o),
(108,178,o),
(113,171,cs),
(120,162,o),
(157,177,o),
(170,179,cs),
(226,188,o),
(287,186,o),
(344,192,cs),
(377,195,o),
(466,228,o),
(482,183,cs),
(503,122,o),
(397,111,o),
(360,111,cs),
(298,111,o),
(238,101,o),
(182,94,cs),
(137,89,o),
(71,41,o),
(35,78,cs),
(8,106,o),
(25,187,o),
(32,224,cs),
(36,248,o),
(53,280,o),
(48,309,cs),
(44,333,o),
(12,354,o),
(32,381,cs),
(48,402,o),
(62,397,o),
(69,426,cs),
(76,455,o),
(69,487,o),
(69,516,cs),
(69,548,o),
(48,559,o),
(48,585,cs),
(48,597,o),
(44,625,o),
(60,641,cs),
(89,670,o),
(190,637,o),
(222,633,cs),
(291,625,o),
(360,617,o),
(429,617,cs),
(462,617,o),
(494,617,o),
(526,617,cs),
(534,617,o),
(599,613,o),
(604,605,cs),
(627,564,o),
(510,548,o),
(494,548,cs),
(421,548,o),
(348,543,o),
(275,543,cs),
(242,543,o),
(206,556,o),
(177,552,cs),
(141,548,o),
(150,532,o),
(150,500,cs),
(150,500,o),
(150,500,o),
(150,500,cs)
);
}
);
width = 547;
},
{
layerId = "3EED4E43-93E5-49B5-B4F5-8693E91ADEE2";
shapes = (
{
closed = 1;
nodes = (
(174,553,o),
(145,472,o),
(150,454,cs),
(154,444,o),
(193,446,o),
(202,444,cs),
(242,438,o),
(295,433,o),
(292,377,cs),
(287,311,o),
(214,344,o),
(181,346,cs),
(119,351,o),
(95,342,o),
(81,265,cs),
(80,255,o),
(60,181,o),
(64,171,cs),
(69,159,o),
(111,169,o),
(126,170,cs),
(187,170,o),
(252,156,o),
(313,152,cs),
(349,150,o),
(450,173,o),
(458,115,cs),
(466,37,o),
(351,42,o),
(311,50,cs),
(247,62,o),
(181,60,o),
(120,62,cs),
(71,65,o),
(-9,19,o),
(-39,70,cs),
(-61,111,o),
(-26,208,o),
(-10,251,cs),
(-1,280,o),
(25,316,o),
(26,354,cs),
(27,383,o),
(-3,416,o),
(25,445,cs),
(47,468,o),
(60,459,o),
(74,493,cs),
(89,529,o),
(87,569,o),
(94,604,cs),
(102,644,o),
(82,661,o),
(88,694,cs),
(90,709,o),
(93,744,o),
(113,761,cs),
(150,791,o),
(250,731,o),
(283,720,cs),
(354,697,o),
(425,674,o),
(498,660,cs),
(533,655,o),
(567,648,o),
(601,642,cs),
(610,640,o),
(677,623,o),
(681,612,cs),
(697,556,o),
(568,559,o),
(552,562,cs),
(474,576,o),
(397,584,o),
(319,598,cs),
(284,605,o),
(249,628,o),
(217,628,cs),
(178,630,o),
(184,608,o),
(177,569,cs),
(177,569,o),
(177,569,o),
(177,569,cs)
);
}
);
width = 547;
},
{
layerId = "B7F60EEF-5018-4FBA-9984-B24EB61DE206";
shapes = (
{
closed = 1;
nodes = (
(179,449,o),
(182,391,o),
(190,381,cs),
(194,376,o),
(218,387,o),
(223,388,cs),
(248,393,o),
(283,404,o),
(294,368,cs),
(308,327,o),
(256,328,o),
(233,322,cs),
(196,310,o),
(183,298,o),
(193,248,cs),
(195,242,o),
(201,191,o),
(206,186,cs),
(213,179,o),
(235,197,o),
(244,200,cs),
(282,215,o),
(324,222,o),
(362,235,cs),
(384,243,o),
(441,282,o),
(460,248,cs),
(485,201,o),
(413,177,o),
(387,172,cs),
(344,163,o),
(304,146,o),
(267,133,cs),
(236,122,o),
(198,74,o),
(168,98,cs),
(144,118,o),
(143,186,o),
(141,217,cs),
(140,238,o),
(147,265,o),
(138,289,cs),
(131,308,o),
(106,320,o),
(115,346,cs),
(123,365,o),
(133,363,o),
(133,387,cs),
(133,412,o),
(123,437,o),
(118,461,cs),
(113,487,o),
(96,493,o),
(92,514,cs),
(90,523,o),
(82,546,o),
(92,561,cs),
(106,589,o),
(181,577,o),
(205,577,cs),
(254,581,o),
(302,584,o),
(350,594,cs),
(374,599,o),
(395,603,o),
(418,608,cs),
(423,609,o),
(469,615,o),
(474,609,cs),
(496,579,o),
(418,549,o),
(407,547,cs),
(357,537,o),
(307,522,o),
(256,511,cs),
(233,507,o),
(207,512,o),
(187,505,cs),
(163,497,o),
(172,485,o),
(177,459,cs),
(177,459,o),
(177,459,o),
(177,459,cs)
);
}
);
width = 547;
},
{
layerId = "33631C71-1333-4331-8A89-BDCD639A4A27";
shapes = (
{
closed = 1;
nodes = (
(130,457,o),
(118,414,o),
(132,397,cs),
(137,392,o),
(173,400,o),
(187,397,c),
(224,403,o),
(285,397,o),
(282,374,c),
(284,318,o),
(200,322,o),
(172,339,c),
(118,317,o),
(91,306,o),
(82,260,c),
(79,250,o),
(85,206,o),
(106,192,c),
(90,188,o),
(156,197,o),
(171,203,c),
(244,193,o),
(271,214,o),
(335,208,c),
(366,217,o),
(492,252,o),
(486,217,c),
(535,151,o),
(413,139,o),
(352,140,c),
(311,156,o),
(215,135,o),
(177,141,c),
(119,133,o),
(44,94,o),
(-4,133,c),
(-13,137,o),
(9,212,o),
(-2,248,c),
(13,272,o),
(25,282,o),
(21,318,cs),
(20,334,o),
(-22,362,o),
(9,366,c),
(27,397,o),
(29,403,o),
(51,406,c),
(57,433,o),
(57,480,o),
(45,493,c),
(54,526,o),
(36,517,o),
(33,548,c),
(35,554,o),
(14,577,o),
(43,602,c),
(68,636,o),
(163,598,o),
(227,591,c),
(273,596,o),
(373,589,o),
(431,578,c),
(472,581,o),
(525,572,o),
(555,577,c),
(560,570,o),
(625,583,o),
(627,578,c),
(662,529,o),
(536,524,o),
(501,526,c),
(426,520,o),
(337,521,o),
(263,513,c),
(227,524,o),
(179,527,o),
(158,535,c),
(139,517,o),
(119,499,o),
(120,476,c),
(149,472,o),
(137,471,o),
(123,468,c)
);
}
);
width = 547;
}
);
unicode = (69,101);
},
{
glyphname = F;
lastChange = "2024-10-09 19:47:55 +0000";
layers = (
{
layerId = m01;
shapes = (
{
closed = 1;
nodes = (
(180,456,o),
(164,390,o),
(200,375,cs),
(232,362,o),
(281,370,o),
(309,379,cs),
(333,387,o),
(357,410,o),
(382,399,cs),
(413,386,o),
(407,343,o),
(382,322,cs),
(358,302,o),
(313,286,o),
(285,282,cs),
(257,278,o),
(191,298,o),
(176,282,cs),
(156,260,o),
(167,197,o),
(167,176,cs),
(167,144,o),
(155,78,o),
(115,71,cs),
(41,58,o),
(87,269,o),
(90,306,cs),
(95,354,o),
(94,403,o),
(94,451,cs),
(94,468,o),
(95,505,o),
(83,521,cs),
(75,532,o),
(55,532,o),
(42,545,cs),
(22,565,o),
(8,598,o),
(34,618,cs),
(62,639,o),
(135,616,o),
(167,614,cs),
(257,608,o),
(342,618,o),
(431,618,cs),
(463,618,o),
(557,622,o),
(540,561,cs),
(529,521,o),
(447,529,o),
(414,529,cs),
(366,529,o),
(313,525,o),
(265,525,cs),
(225,525,o),
(180,538,o),
(180,489,cs),
(180,489,o),
(180,489,o),
(180,489,cs)
);
}
);
width = 502;
},
{
layerId = "3EED4E43-93E5-49B5-B4F5-8693E91ADEE2";
shapes = (
{
closed = 1;
nodes = (
(137,481,o),
(129,401,o),
(174,389,cs),
(214,379,o),
(271,397,o),
(302,412,cs),
(330,426,o),
(354,456,o),
(386,448,cs),
(425,438,o),
(425,387,o),
(399,358,cs),
(374,330,o),
(323,303,o),
(291,294,cs),
(258,284,o),
(176,297,o),
(161,275,cs),
(141,246,o),
(165,174,o),
(168,149,cs),
(174,111,o),
(171,31,o),
(125,16,cs),
(39,-11,o),
(57,245,o),
(55,289,cs),
(53,347,o),
(44,404,o),
(36,460,cs),
(33,480,o),
(28,524,o),
(11,541,cs),
(-1,552,o),
(-24,549,o),
(-43,562,cs),
(-70,583,o),
(-91,619,o),
(-64,647,cs),
(-35,676,o),
(56,661,o),
(94,665,cs),
(202,673,o),
(301,699,o),
(407,715,cs),
(445,720,o),
(556,741,o),
(546,666,cs),
(540,616,o),
(441,612,o),
(402,607,cs),
(345,599,o),
(283,585,o),
(226,576,cs),
(179,570,o),
(123,578,o),
(131,519,cs),
(131,519,o),
(131,519,o),
(131,519,cs)
);
}
);
width = 502;
},
{
layerId = "B7F60EEF-5018-4FBA-9984-B24EB61DE206";
shapes = (
{
closed = 1;
nodes = (
(210,439,o),
(190,391,o),
(212,376,cs),
(232,362,o),
(266,362,o),
(285,366,cs),
(302,369,o),
(321,384,o),
(336,372,cs),
(355,359,o),
(346,327,o),
(326,314,cs),
(308,302,o),
(275,296,o),
(257,296,cs),
(238,296,o),
(196,319,o),
(184,308,cs),
(168,294,o),
(167,245,o),
(164,230,cs),
(160,205,o),
(144,157,o),
(116,156,cs),
(66,154,o),
(123,309,o),
(130,336,cs),
(140,372,o),
(146,408,o),
(152,445,cs),
(154,458,o),
(160,485,o),
(154,499,cs),
(150,508,o),
(137,510,o),
(130,522,cs),
(120,539,o),
(114,566,o),
(135,578,cs),
(156,590,o),
(201,564,o),
(222,560,cs),
(281,544,o),
(339,542,o),
(398,532,cs),
(418,529,o),
(482,520,o),
(462,476,cs),
(450,448,o),
(397,463,o),
(374,467,cs),
(343,473,o),
(307,476,o),
(275,481,cs),
(249,486,o),
(221,501,o),
(214,464,cs),
(214,464,o),
(214,464,o),
(214,464,cs)
);
}
);
width = 502;
},
{
layerId = "33631C71-1333-4331-8A89-BDCD639A4A27";
shapes = (
{
closed = 1;
nodes = (
(202,474,o),
(179,382,o),
(206,368,c),
(244,353,o),
(276,379,o),
(296,368,c),
(316,392,o),
(340,413,o),
(359,407,c),
(403,402,o),
(378,344,o),
(370,304,c),
(343,303,o),
(304,277,o),
(277,263,c),
(258,268,o),
(206,307,o),
(193,280,c),
(179,232,o),
(188,184,o),
(193,136,c),
(174,117,o),
(170,20,o),
(131,37,c),
(89,15,o),
(130,259,o),
(117,288,c),
(137,344,o),
(127,420,o),
(129,473,c),
(137,499,o),
(120,540,o),
(121,537,c),
(106,557,o),
(99,574,o),
(83,586,c),
(70,592,o),
(50,640,o),
(77,661,c),
(89,674,o),
(160,659,o),
(199,663,c),
(252,635,o),
(332,653,o),
(397,659,c),
(439,670,o),
(518,673,o),
(484,604,c),
(482,546,o),
(411,547,o),
(383,574,c),
(355,560,o),
(299,563,o),
(265,550,c),
(231,568,o),
(196,624,o),
(208,556,c),
(224,526,o),
(204,501,o),
(199,504,c)
);
}
);
width = 502;
}
);
unicode = (70,102);
},
{
glyphname = G;
lastChange = "2024-10-09 19:47:59 +0000";
layers = (
{
layerId = m01;
shapes = (
{
closed = 1;
nodes = (
(20,347,o),
(38,410,o),
(61,472,cs),
(79,520,o),
(99,583,o),
(133,618,cs),
(192,677,o),
(295,723,o),
(349,630,cs),
(369,597,o),
(384,510,o),
(316,532,cs),
(270,547,o),
(284,630,o),
(223,586,cs),
(178,553,o),
(158,489,o),
(138,440,cs),
(113,379,o),
(104,310,o),
(109,246,cs),
(112,197,o),
(128,135,o),
(170,107,cs),
(213,78,o),
(295,83,o),
(332,123,cs),
(352,144,o),
(396,244,o),
(360,257,cs),
(339,264,o),
(300,246,o),
(279,246,cs),
(255,246,o),
(230,240,o),
(210,249,cs),
(203,252,o),
(194,262,o),
(182,262,cs),
(173,262,o),
(163,263,o),
(154,269,cs),
(130,287,o),
(148,295,o),
(165,302,cs),
(198,315,o),
(235,323,o),
(275,327,cs),
(320,331,o),
(365,350,o),
(413,354,cs),
(486,359,o),
(468,289,o),
(466,241,cs),
(460,120,o),
(365,-3,o),
(230,14,cs),
(174,21,o),
(118,43,o),
(77,91,cs),
(29,149,o),
(20,208,o),
(20,282,cs)
);
}
);
width = 489;
},
{
layerId = "3EED4E43-93E5-49B5-B4F5-8693E91ADEE2";
shapes = (
{
closed = 1;
nodes = (
(-22,418,o),
(15,491,o),
(59,561,cs),
(94,615,o),
(134,688,o),
(185,722,cs),
(274,781,o),
(417,812,o),
(465,685,cs),
(483,640,o),
(482,530,o),
(400,573,cs),
(345,603,o),
(381,701,o),
(293,661,cs),
(228,632,o),
(188,559,o),
(151,504,cs),
(104,435,o),
(78,353,o),
(69,273,cs),
(62,212,o),
(68,133,o),
(116,88,cs),
(164,43,o),
(270,29,o),
(327,69,cs),
(357,90,o),
(437,201,o),
(394,226,cs),
(368,239,o),
(314,227,o),
(287,232,cs),
(257,238,o),
(223,236,o),
(199,253,cs),
(191,257,o),
(182,272,o),
(166,275,cs),
(155,277,o),
(143,281,o),
(132,291,cs),
(105,318,o),
(130,324,o),
(154,328,cs),
(199,336,o),
(248,337,o),
(301,332,cs),
(359,326,o),
(421,338,o),
(484,331,cs),
(578,321,o),
(540,240,o),
(526,181,cs),
(490,34,o),
(340,-93,o),
(171,-40,cs),
(101,-18,o),
(34,22,o),
(-8,91,cs),
(-56,173,o),
(-54,248,o),
(-37,339,cs)
);
}
);
width = 489;
},
{
layerId = "B7F60EEF-5018-4FBA-9984-B24EB61DE206";
shapes = (
{
closed = 1;
nodes = (
(78,326,o),
(84,373,o),
(93,419,cs),
(99,455,o),
(105,502,o),
(125,531,cs),
(161,580,o),
(229,627,o),
(280,569,cs),
(299,548,o),
(321,489,o),
(269,496,cs),
(233,500,o),
(234,560,o),
(195,521,cs),
(167,492,o),
(160,444,o),
(152,408,cs),
(142,361,o),
(144,312,o),
(156,268,cs),
(164,234,o),
(184,193,o),
(218,179,cs),
(253,164,o),
(312,179,o),
(333,212,cs),
(345,229,o),
(364,305,o),
(336,309,cs),
(320,311,o),
(294,294,o),
(279,291,cs),
(261,288,o),
(245,280,o),
(229,284,cs),
(223,285,o),
(215,290,o),
(207,289,cs),
(200,288,o),
(193,287,o),
(186,290,cs),
(166,300,o),
(179,307,o),
(189,314,cs),
(211,328,o),
(238,338,o),
(266,347,cs),
(298,356,o),
(328,375,o),
(362,384,cs),
(414,397,o),
(410,346,o),
(415,312,cs),
(426,227,o),
(373,128,o),
(274,122,cs),
(232,120,o),
(188,127,o),
(153,155,cs),
(111,190,o),
(96,230,o),
(87,281,cs)
);
}
);
width = 489;
},
{
layerId = "33631C71-1333-4331-8A89-BDCD639A4A27";
shapes = (
{
closed = 1;
nodes = (
(-34,349,o),
(-46,405,o),
(14,461,c),
(20,494,o),
(45,537,o),
(83,576,c),
(158,609,o),
(317,665,o),
(374,594,c),
(407,566,o),
(424,476,o),
(341,498,c),
(273,526,o),
(303,585,o),
(208,541,c),
(138,521,o),
(135,466,o),
(118,428,c),
(74,370,o),
(74,314,o),
(71,256,c),
(58,227,o),
(93,170,o),
(159,158,c),
(216,135,o),
(321,122,o),
(365,175,c),
(370,185,o),
(452,266,o),
(402,272,c),
(354,286,o),
(300,266,o),
(276,259,c),
(275,263,o),
(208,260,o),
(193,279,c),
(193,274,o),
(182,269,o),
(146,275,c),
(157,275,o),
(151,287,o),
(141,287,c),
(78,313,o),
(134,307,o),
(141,304,c),
(191,323,o),
(233,339,o),
(291,339,c),
(359,333,o),
(398,343,o),
(448,361,c),
(553,368,o),
(557,309,o),
(524,258,c),
(540,170,o),
(400,61,o),
(207,83,c),
(166,77,o),
(64,110,o),
(25,128,c),
(-25,175,o),
(-66,247,o),
(-63,296,c)
);
}
);
width = 489;
}
);
unicode = (71,103);
},
{
glyphname = H;
lastChange = "2024-10-09 19:48:02 +0000";
layers = (
{
layerId = m01;
shapes = (
{
closed = 1;
nodes = (
(335,493,o),
(353,227,o),
(352,233,cs),
(356,192,o),
(360,148,o),
(365,107,cs),
(369,71,o),
(336,6,o),
(295,46,cs),
(269,72,o),
(271,144,o),
(271,181,cs),
(271,208,o),
(274,268,o),
(255,294,cs),
(241,313,o),
(247,307,o),
(219,302,cs),
(198,299,o),
(174,303,o),
(154,298,cs),
(113,287,o),
(122,225,o),
(109,188,cs),
(101,165,o),
(85,86,o),
(52,79,cs),
(4,70,o),
(26,148,o),
(28,168,cs),
(33,208,o),
(52,269,o),
(41,306,cs),
(36,322,o),
(20,334,o),
(20,350,cs),
(20,371,o),
(45,379,o),
(45,399,cs),
(45,456,o),
(37,512,o),
(32,565,cs),
(29,606,o),
(16,662,o),
(77,662,cs),
(154,662,o),
(129,480,o),
(129,431,cs),
(129,411,o),
(126,392,o),
(142,383,cs),
(155,376,o),
(221,377,o),
(230,383,cs),
(262,405,o),
(231,492,o),
(227,525,cs),
(220,574,o),
(207,620,o),
(268,630,cs),
(328,640,o),
(315,587,o),
(324,545,cs)
);
}
);
width = 385;
},
{
layerId = "3EED4E43-93E5-49B5-B4F5-8693E91ADEE2";
shapes = (
{
closed = 1;
nodes = (
(380,559,o),
(449,234,o),
(446,241,cs),
(458,191,o),
(471,137,o),
(485,87,cs),
(496,43,o),
(461,-43,o),
(397,-1,cs),
(357,27,o),
(348,116,o),
(342,161,cs),
(338,195,o),
(332,270,o),
(301,298,cs),
(279,319,o),
(288,313,o),
(250,301,cs),
(222,294,o),
(187,294,o),
(160,285,cs),
(106,263,o),
(128,188,o),
(116,141,cs),
(109,110,o),
(99,10,o),
(54,-5,cs),
(-11,-24,o),
(7,76,o),
(7,101,cs),
(8,151,o),
(23,230,o),
(2,274,cs),
(-7,293,o),
(-32,305,o),
(-34,324,cs),
(-38,350,o),
(-5,365,o),
(-8,389,cs),
(-17,460,o),
(-37,527,o),
(-53,591,cs),
(-63,641,o),
(-90,708,o),
(-6,720,cs),
(101,734,o),
(96,505,o),
(104,445,cs),
(107,420,o),
(106,395,o),
(130,387,cs),
(149,381,o),
(241,394,o),
(252,404,cs),
(293,436,o),
(236,539,o),
(224,579,cs),
(207,638,o),
(181,692,o),
(265,715,cs),
(346,739,o),
(337,671,o),
(356,621,cs)
);
}
);
width = 385;
},
{
layerId = "B7F60EEF-5018-4FBA-9984-B24EB61DE206";
shapes = (
{
closed = 1;
nodes = (
(294,415,o),
(256,244,o),
(256,248,cs),
(250,222,o),
(245,193,o),
(240,166,cs),
(236,142,o),
(203,107,o),
(187,140,cs),
(177,161,o),
(191,206,o),
(198,230,cs),
(203,246,o),
(216,284,o),
(210,303,cs),
(205,319,o),
(207,314,o),
(190,315,cs),
(177,316,o),
(163,324,o),
(151,324,cs),
(124,324,o),
(118,284,o),
(103,262,cs),
(94,249,o),
(70,202,o),
(50,204,cs),
(19,207,o),
(47,252,o),
(52,264,cs),
(62,288,o),
(85,324,o),
(85,349,cs),
(86,360,o),
(78,370,o),
(81,380,cs),
(85,394,o),
(101,394,o),
(105,407,cs),
(116,443,o),
(122,480,o),
(129,514,cs),
(134,541,o),
(137,578,o),
(173,567,cs),
(219,553,o),
(170,444,o),
(161,412,cs),
(157,400,o),
(152,389,o),
(159,380,cs),
(166,373,o),
(205,362,o),
(212,364,cs),
(234,372,o),
(233,433,o),
(237,454,cs),
(242,487,o),
(242,518,o),
(281,513,cs),
(318,509,o),
(300,478,o),
(298,449,cs)
);
}
);
width = 385;
},
{
layerId = "33631C71-1333-4331-8A89-BDCD639A4A27";
shapes = (
{
closed = 1;
nodes = (
(321,522,o),
(341,217,o),
(334,208,c),
(340,183,o),
(329,143,o),
(337,98,cs),
(347,36,o),
(313,-44,o),
(286,10,c),
(257,33,o),
(261,114,o),
(266,179,c),
(269,195,o),
(261,252,o),
(250,301,c),
(238,311,o),
(228,303,o),
(226,311,c),
(202,294,o),
(182,306,o),
(163,281,c),
(121,286,o),
(134,229,o),
(112,160,c),
(107,134,o),
(108,53,o),
(55,35,c),
(29,52,o),
(40,115,o),
(47,157,c),
(47,196,o),
(61,255,o),
(50,303,c),
(55,334,o),
(41,337,o),
(34,350,c),
(34,360,o),
(57,395,o),
(74,417,c),
(52,463,o),
(51,529,o),
(48,604,c),
(39,639,o),
(39,690,o),
(83,700,c),
(153,694,o),
(147,491,o),
(127,432,c),
(125,420,o),
(122,403,o),
(151,385,c),
(148,393,o),
(211,379,o),
(215,384,cs),
(264,426,o),
(222,496,o),
(227,547,cs),
(229,614,o),
(204,662,o),
(258,674,c),
(321,662,o),
(288,614,o),
(319,570,c)
);
}
);
width = 385;
}
);
unicode = (72,104);
},
{
glyphname = I;
lastChange = "2024-10-09 19:48:08 +0000";
layers = (
{
layerId = m01;
shapes = (
{
closed = 1;
nodes = (
(165,207,o),
(177,180,o),
(194,152,cs),
(205,135,o),
(221,116,o),
(219,95,cs),
(213,42,o),
(158,55,o),
(129,83,cs),
(88,122,o),
(84,192,o),
(73,249,cs),
(61,314,o),
(56,383,o),
(48,451,cs),
(43,496,o),
(20,545,o),
(20,590,cs),
(20,638,o),
(80,654,o),
(109,618,cs),
(144,573,o),
(140,489,o),
(145,435,cs),
(152,370,o),
(165,306,o),
(165,241,cs)
);
}
);
width = 239;
},
{
layerId = "3EED4E43-93E5-49B5-B4F5-8693E91ADEE2";
shapes = (
{
closed = 1;
nodes = (
(146,171,o),
(154,135,o),
(170,98,cs),
(180,74,o),
(197,47,o),
(189,23,cs),
(167,-37,o),
(97,-7,o),
(66,35,cs),
(21,93,o),
(33,177,o),
(33,247,cs),
(34,327,o),
(45,411,o),
(52,493,cs),
(56,547,o),
(39,612,o),
(50,665,cs),
(62,722,o),
(147,723,o),
(175,672,cs),
(211,609,o),
(185,511,o),
(177,445,cs),
(170,367,o),
(171,288,o),
(154,211,cs)
);
}
);
width = 239;
},
{
layerId = "B7F60EEF-5018-4FBA-9984-B24EB61DE206";
shapes = (
{
closed = 1;
nodes = (
(160,260,o),
(171,244,o),
(185,226,cs),
(195,216,o),
(209,204,o),
(209,190,cs),
(210,155,o),
(169,157,o),
(145,173,cs),
(113,196,o),
(103,242,o),
(90,279,cs),
(76,321,o),
(66,366,o),
(54,411,cs),
(47,440,o),
(25,471,o),
(21,500,cs),
(16,533,o),
(58,549,o),
(82,528,cs),
(111,502,o),
(116,445,o),
(124,410,cs),
(136,367,o),
(150,325,o),
(156,283,cs)
);
}
);
width = 239;
},
{
layerId = "33631C71-1333-4331-8A89-BDCD639A4A27";
shapes = (
{
closed = 1;
nodes = (
(211,247,o),
(236,231,o),
(228,203,c),
(274,184,o),
(273,185,o),
(265,160,c),
(273,122,o),
(179,139,o),
(139,160,c),
(68,183,o),
(78,235,o),
(37,265,c),
(45,325,o),
(27,368,o),
(33,417,c),
(22,453,o),
(-21,482,o),
(-43,517,c),
(-54,553,o),
(73,571,o),
(118,541,c),
(174,513,o),
(167,453,o),
(147,410,c),
(188,372,o),
(187,316,o),
(215,272,c)
);
}
);
width = 239;
}
);
unicode = (73,105);
},
{
glyphname = J;
lastChange = "2024-10-09 19:48:11 +0000";
layers = (
{
layerId = m01;
shapes = (
{
closed = 1;
nodes = (
(255,403,o),
(212,472,o),
(163,553,cs),
(151,574,o),
(121,615,o),
(147,638,cs),
(186,672,o),
(230,608,o),
(248,581,cs),
(303,498,o),
(345,415,o),
(345,310,cs),
(345,225,o),
(317,135,o),
(239,87,cs),
(196,61,o),
(35,10,o),
(21,100,cs),
(11,168,o),
(72,234,o),
(126,269,cs),
(158,290,o),
(180,278,o),
(171,233,cs),
(168,217,o),
(106,148,o),
(118,136,cs),
(139,115,o),
(207,176,o),
(219,188,cs),
(251,220,o),
(255,265,o),
(255,306,cs)
);
}
);
width = 365;
},
{
layerId = "3EED4E43-93E5-49B5-B4F5-8693E91ADEE2";
shapes = (
{
closed = 1;
nodes = (
(255,437,o),
(182,509,o),
(98,594,cs),
(77,616,o),
(28,658,o),
(53,694,cs),
(91,746,o),
(163,681,o),
(194,653,cs),
(285,567,o),
(361,478,o),
(392,350,cs),
(417,246,o),
(409,128,o),
(328,46,cs),
(283,2,o),
(100,-108,o),
(57,-2,cs),
(25,78,o),
(80,177,o),
(136,235,cs),
(169,271,o),
(199,263,o),
(201,205,cs),
(202,184,o),
(146,81,o),
(165,71,cs),
(197,51,o),
(262,145,o),
(273,163,cs),
(303,213,o),
(295,268,o),
(283,319,cs)
);
}
);
width = 365;
},
{
layerId = "B7F60EEF-5018-4FBA-9984-B24EB61DE206";
shapes = (
{
closed = 1;
nodes = (
(246,373,o),
(231,430,o),
(217,498,cs),
(213,515,o),
(201,550,o),
(224,560,cs),
(258,576,o),
(273,522,o),
(280,499,cs),
(299,429,o),
(308,362,o),
(285,289,cs),
(267,229,o),
(229,172,o),
(165,154,cs),
(131,145,o),
(11,144,o),
(21,210,cs),
(29,260,o),
(85,293,o),
(130,306,cs),
(155,315,o),
(168,301,o),
(151,272,cs),
(146,261,o),
(89,225,o),
(95,214,cs),
(104,195,o),
(164,224,o),
(174,230,cs),
(203,245,o),
(215,276,o),
(224,305,cs)
);
}
);
width = 365;
},
{
layerId = "33631C71-1333-4331-8A89-BDCD639A4A27";
shapes = (
{
closed = 1;
nodes = (
(240,415,o),
(194,513,o),
(167,613,c),
(171,631,o),
(141,683,o),
(169,696,c),
(191,732,o),
(217,674,o),
(221,613,c),
(265,532,o),
(292,414,o),
(306,321,c),
(308,196,o),
(270,77,o),
(215,44,c),
(196,18,o),
(80,-58,o),
(75,67,c),
(68,126,o),
(102,206,o),
(139,256,c),
(163,277,o),
(182,256,o),
(182,206,c),
(174,200,o),
(127,109,o),
(149,95,c),
(149,56,o),
(191,137,o),
(214,139,c),
(230,188,o),
(228,254,o),
(231,296,cs)
);
}
);
width = 365;
}
);
unicode = (74,106);
},
{
glyphname = K;
lastChange = "2024-10-09 19:48:14 +0000";
layers = (
{
layerId = m01;
shapes = (
{
closed = 1;
nodes = (
(109,630,o),
(117,606,o),
(129,553,cs),
(133,537,o),
(133,491,o),
(145,484,cs),
(160,475,o),
(189,513,o),
(202,525,cs),
(261,578,o),
(369,741,o),
(466,695,cs),
(499,680,o),
(494,646,o),
(462,622,cs),
(446,610,o),
(421,606,o),
(405,590,cs),
(385,570,o),
(360,546,o),
(340,525,cs),
(323,506,o),
(316,492,o),
(300,476,cs),
(289,465,o),
(262,451,o),
(262,431,cs),
(262,415,o),
(292,400,o),
(304,387,cs),
(325,364,o),
(343,341,o),
(368,318,cs),
(407,280,o),
(436,251,o),
(466,201,cs),
(477,183,o),
(486,156,o),
(502,140,cs),
(515,127,o),
(531,125,o),
(543,116,cs),
(573,93,o),
(593,48,o),
(567,14,cs),
(528,-37,o),
(484,9,o),
(462,42,cs),
(427,94,o),
(398,149,o),
(361,197,cs),
(329,238,o),
(287,269,o),
(247,306,cs),
(218,333,o),
(165,403,o),
(165,327,cs),
(165,266,o),
(174,205,o),
(174,144,cs),
(174,100,o),
(155,47,o),
(105,87,cs),
(78,108,o),
(84,132,o),
(84,160,cs),
(84,197,o),
(80,229,o),
(80,262,cs),
(80,334,o),
(68,411,o),
(52,480,cs),
(40,529,o),
(-18,630,o),
(60,630,cs)
);
}
);
width = 599;
},
{
layerId = "3EED4E43-93E5-49B5-B4F5-8693E91ADEE2";
shapes = (
{
closed = 1;
nodes = (
(159,733,o),
(161,703,o),
(162,638,cs),
(163,617,o),
(151,563,o),
(163,553,cs),
(178,538,o),
(221,575,o),
(240,586,cs),
(322,634,o),
(488,799,o),
(588,722,cs),
(623,696,o),
(609,657,o),
(565,637,cs),
(544,626,o),
(514,628,o),
(491,613,cs),
(462,594,o),
(428,572,o),
(399,552,cs),
(375,534,o),
(364,519,o),
(341,505,cs),
(326,495,o),
(291,485,o),
(286,461,cs),
(282,442,o),
(312,417,o),
(324,399,cs),
(341,366,o),
(357,335,o),
(380,301,cs),
(416,247,o),
(442,206,o),
(464,139,cs),
(472,116,o),
(476,81,o),
(490,59,cs),
(502,40,o),
(520,34,o),
(532,20,cs),
(561,-15,o),
(573,-72,o),
(534,-106,cs),
(476,-156,o),
(437,-91,o),
(420,-47,cs),
(392,23,o),
(372,95,o),
(342,161,cs),
(315,217,o),
(273,263,o),
(237,317,cs),
(210,357,o),
(166,452,o),
(147,362,cs),
(132,290,o),
(127,216,o),
(112,144,cs),
(101,93,o),
(65,35,o),
(17,94,cs),
(-9,125,o),
(4,152,o),
(11,185,cs),
(21,229,o),
(24,267,o),
(32,307,cs),
(50,392,o),
(56,486,o),
(55,571,cs),
(53,631,o),
(11,764,o),
(101,745,cs)
);
}
);
width = 599;
},
{
layerId = "B7F60EEF-5018-4FBA-9984-B24EB61DE206";
shapes = (
{
closed = 1;
nodes = (
(122,486,o),
(131,474,o),
(146,444,cs),
(152,436,o),
(158,409,o),
(167,407,cs),
(178,404,o),
(192,431,o),
(199,440,cs),
(230,481,o),
(280,593,o),
(350,582,cs),
(375,579,o),
(376,559,o),
(358,539,cs),
(349,529,o),
(333,523,o),
(325,511,cs),
(315,496,o),
(301,478,o),
(291,463,cs),
(282,449,o),
(280,439,o),
(271,428,cs),
(266,419,o),
(249,407,o),
(252,395,cs),
(255,386,o),
(277,382,o),
(287,376,cs),
(304,367,o),
(320,356,o),
(339,347,cs),
(371,331,o),
(395,319,o),
(421,295,cs),
(432,286,o),
(441,272,o),
(454,265,cs),
(465,260,o),
(476,262,o),
(485,258,cs),
(509,250,o),
(528,226,o),
(515,203,cs),
(497,166,o),
(460,186,o),
(441,202,cs),
(410,226,o),
(383,254,o),
(352,276,cs),
(325,294,o),
(292,305,o),
(260,320,cs),
(237,331,o),
(192,363,o),
(203,318,cs),
(212,283,o),
(227,249,o),
(235,214,cs),
(241,189,o),
(236,155,o),
(197,170,cs),
(176,177,o),
(177,192,o),
(173,208,cs),
(167,230,o),
(160,248,o),
(155,267,cs),
(145,309,o),
(126,352,o),
(105,389,cs),
(91,415,o),
(37,465,o),
(90,478,cs)
);
}
);
width = 599;
},
{
layerId = "33631C71-1333-4331-8A89-BDCD639A4A27";
shapes = (
{
closed = 1;
nodes = (
(68,604,o),
(90,568,o),
(102,518,c),
(117,518,o),
(116,464,o),
(120,471,c),
(131,453,o),
(162,493,o),
(183,493,c),
(272,549,o),
(373,700,o),
(502,645,c),
(549,634,o),
(517,610,o),
(490,573,c),
(476,584,o),
(438,571,o),
(438,563,c),
(396,541,o),
(390,510,o),
(357,505,c),
(342,490,o),
(328,486,o),
(308,464,c),
(289,458,o),
(256,429,o),
(273,419,c),
(244,407,o),
(301,382,o),
(302,377,c),
(316,361,o),
(365,339,o),
(386,330,c),
(425,283,o),
(463,268,o),
(484,223,c),
(513,216,o),
(535,180,o),
(546,160,c),
(569,157,o),
(586,160,o),
(579,160,c),
(607,142,o),
(631,89,o),
(610,64,c),
(563,32,o),
(500,61,o),
(488,79,c),
(442,130,o),
(422,188,o),
(386,209,c),
(338,254,o),
(305,289,o),
(226,304,c),
(190,345,o),
(146,387,o),
(131,320,c),
(147,287,o),
(146,230,o),
(142,166,c),
(149,146,o),
(125,103,o),
(77,125,c),
(45,144,o),
(62,170,o),
(59,196,cs),
(57,220,o),
(32,251,o),
(41,267,c),
(53,351,o),
(19,393,o),
(-3,454,c),
(-11,504,o),
(-72,603,o),
(13,584,c)
);
}
);
width = 599;
}
);
unicode = (75,107);
},
{
glyphname = L;
lastChange = "2024-10-09 19:48:18 +0000";
layers = (
{
layerId = m01;
shapes = (
{
closed = 1;
nodes = (
(130,424,o),
(105,322,o),
(117,229,cs),
(121,197,o),
(118,179,o),
(150,172,cs),
(167,168,o),
(198,181,o),
(218,181,cs),
(238,181,o),
(259,181,o),
(283,188,cs),
(312,197,o),
(344,214,o),
(373,192,cs),
(393,177,o),
(386,159,o),
(369,136,cs),
(338,94,o),
(251,85,o),
(202,79,cs),
(186,77,o),
(170,79,o),
(154,79,cs),
(141,79,o),
(125,70,o),
(114,67,cs),
(89,61,o),
(62,68,o),
(49,91,cs),
(35,117,o),
(33,152,o),
(33,181,cs),
(33,230,o),
(20,273,o),
(20,322,cs),
(20,411,o),
(20,500,o),
(33,586,cs),
(40,630,o),
(60,638,o),
(101,614,cs),
(134,594,o),
(130,549,o),
(130,516,cs)
);
}
);
width = 405;
},
{
layerId = "3EED4E43-93E5-49B5-B4F5-8693E91ADEE2";
shapes = (
{
closed = 1;
nodes = (
(104,433,o),
(92,307,o),
(125,197,cs),
(136,160,o),
(136,138,o),
(178,136,cs),
(199,134,o),
(236,156,o),
(261,160,cs),
(286,164,o),
(313,169,o),
(341,181,cs),
(376,198,o),
(413,225,o),
(454,204,cs),
(482,191,o),
(476,167,o),
(460,136,cs),
(428,81,o),
(320,52,o),
(261,35,cs),
(241,30,o),
(220,28,o),
(200,25,cs),
(183,22,o),
(165,8,o),
(152,3,cs),
(122,-9,o),
(87,-6,o),
(66,19,cs),
(43,47,o),
(34,89,o),
(29,123,cs),
(19,182,o),
(-6,230,o),
(-15,289,cs),
(-32,396,o),
(-49,503,o),
(-49,608,cs),
(-48,662,o),
(-25,676,o),
(31,655,cs),
(76,637,o),
(80,583,o),
(86,544,cs)
);
}
);
width = 405;
},
{
layerId = "B7F60EEF-5018-4FBA-9984-B24EB61DE206";
shapes = (
{
closed = 1;
nodes = (
(156,420,o),
(123,349,o),
(117,278,cs),
(114,255,o),
(109,241,o),
(132,231,cs),
(143,226,o),
(167,231,o),
(181,228,cs),
(196,225,o),
(210,222,o),
(228,224,cs),
(250,226,o),
(276,234,o),
(293,213,cs),
(305,199,o),
(297,187,o),
(282,172,cs),
(253,147,o),
(190,153,o),
(154,155,cs),
(143,157,o),
(131,160,o),
(119,163,cs),
(111,164,o),
(98,161,o),
(89,160,cs),
(71,159,o),
(53,168,o),
(47,187,cs),
(41,209,o),
(44,234,o),
(49,256,cs),
(57,292,o),
(54,325,o),
(62,362,cs),
(75,426,o),
(89,492,o),
(111,553,cs),
(124,585,o),
(139,588,o),
(165,564,cs),
(185,544,o),
(175,512,o),
(170,487,cs)
);
}
);
width = 405;
},
{
layerId = "33631C71-1333-4331-8A89-BDCD639A4A27";
shapes = (
{
closed = 1;
nodes = (
(143,435,o),
(132,334,o),
(142,189,c),
(132,157,o),
(142,142,o),
(156,116,c),
(183,116,o),
(199,131,o),
(219,122,c),
(241,134,o),
(250,125,o),
(255,152,c),
(294,160,o),
(322,182,o),
(331,139,c),
(352,152,o),
(347,102,o),
(342,84,c),
(310,46,o),
(239,40,o),
(202,14,c),
(197,27,o),
(170,15,o),
(168,20,c),
(166,23,o),
(140,17,o),
(137,-2,c),
(116,4,o),
(88,-2,o),
(72,33,c),
(66,67,o),
(70,92,o),
(81,134,c),
(62,184,o),
(67,237,o),
(61,303,cs),
(48,441,o),
(50,546,o),
(81,648,c),
(71,700,o),
(92,696,o),
(115,675,c),
(160,643,o),
(139,602,o),
(142,547,cs)
);
}
);
width = 405;
}
);
unicode = (76,108);
},
{
glyphname = M;
lastChange = "2024-10-09 19:48:21 +0000";
layers = (
{
layerId = m01;
shapes = (
{
closed = 1;
nodes = (
(118,188,o),
(118,91,cs),
(118,63,o),
(116,24,o),
(66,31,cs),
(10,40,o),
(21,98,o),
(21,130,cs),
(21,219,o),
(30,306,o),
(30,396,cs),
(30,447,o),
(36,499,o),
(42,553,cs),
(45,586,o),
(29,653,o),
(98,640,cs),
(138,632,o),
(151,595,o),
(156,566,cs),
(159,544,o),
(162,526,o),
(172,506,cs),
(182,487,o),
(185,450,o),
(197,431,cs),
(205,419,o),
(220,416,o),
(237,431,cs),
(253,447,o),
(261,470,o),
(273,486,cs),
(298,518,o),
(334,579,o),
(374,595,cs),
(471,634,o),
(480,447,o),
(480,409,cs),
(480,309,o),
(487,211,o),
(487,108,cs),
(487,78,o),
(488,0,o),
(419,21,cs),
(375,36,o),
(394,111,o),
(394,139,cs),
(394,194,o),
(390,245,o),
(386,300,cs),
(383,355,o),
(423,509,o),
(374,470,cs),
(345,447,o),
(324,410,o),
(305,378,cs),
(292,355,o),
(293,313,o),
(260,300,cs),
(192,274,o),
(173,403,o),
(123,403,cs),
(113,403,o),
(118,381,o),
(116,370,cs),
(109,330,o)
);
}
);
width = 507;
},
{
layerId = "3EED4E43-93E5-49B5-B4F5-8693E91ADEE2";
shapes = (
{
closed = 1;
nodes = (
(62,180,o),
(49,57,cs),
(46,21,o),
(37,-27,o),
(-26,-11,cs),
(-99,7,o),
(-76,79,o),
(-72,120,cs),
(-60,233,o),
(-37,342,o),
(-25,455,cs),
(-19,520,o),
(-4,585,o),
(11,652,cs),
(20,694,o),
(8,781,o),
(97,755,cs),
(147,740,o),
(159,691,o),
(162,654,cs),
(163,625,o),
(165,602,o),
(175,575,cs),
(186,550,o),
(185,502,o),
(197,477,cs),
(206,461,o),
(226,455,o),
(250,471,cs),
(273,489,o),
(286,517,o),
(304,536,cs),
(341,573,o),
(396,645,o),
(450,661,cs),
(582,696,o),
(568,458,o),
(563,410,cs),
(550,283,o),
(547,159,o),
(533,28,cs),
(529,-10,o),
(519,-109,o),
(432,-73,cs),
(377,-48,o),
(412,44,o),
(416,80,cs),
(423,150,o),
(424,215,o),
(426,285,cs),
(430,355,o),
(503,544,o),
(433,501,cs),
(392,477,o),
(360,433,o),
(331,395,cs),
(311,367,o),
(307,315,o),
(262,302,cs),
(170,279,o),
(162,444,o),
(97,451,cs),
(84,453,o),
(88,424,o),
(83,411,cs),
(69,361,o)
);
}
);
width = 507;
},
{
layerId = "B7F60EEF-5018-4FBA-9984-B24EB61DE206";
shapes = (
{
closed = 1;
nodes = (
(178,220,o),
(194,151,cs),
(199,130,o),
(203,103,o),
(166,99,cs),
(123,96,o),
(122,139,o),
(116,162,cs),
(102,225,o),
(94,289,o),
(80,352,cs),
(71,389,o),
(67,427,o),
(63,466,cs),
(59,490,o),
(37,535,o),
(89,538,cs),
(120,539,o),
(135,515,o),
(143,495,cs),
(149,480,o),
(155,467,o),
(165,455,cs),
(176,443,o),
(184,417,o),
(196,406,cs),
(204,398,o),
(215,399,o),
(225,412,cs),
(234,427,o),
(236,444,o),
(242,457,cs),
(255,485,o),
(272,534,o),
(298,552,cs),
(363,596,o),
(400,465,o),
(406,438,cs),
(422,367,o),
(444,298,o),
(461,225,cs),
(466,203,o),
(479,148,o),
(426,152,cs),
(391,155,o),
(392,211,o),
(388,231,cs),
(379,270,o),
(368,306,o),
(356,344,cs),
(345,384,o),
(349,499,o),
(319,463,cs),
(301,442,o),
(292,412,o),
(283,386,cs),
(277,368,o),
(285,338,o),
(263,323,cs),
(218,293,o),
(183,382,o),
(146,374,cs),
(139,372,o),
(147,356,o),
(146,348,cs),
(148,319,o)
);
}
);
width = 507;
},
{
layerId = "33631C71-1333-4331-8A89-BDCD639A4A27";
shapes = (
{
closed = 1;
nodes = (
(99,220,o),
(101,124,c),
(99,113,o),
(84,67,o),
(8,89,c),
(-30,85,o),
(-50,144,o),
(-29,168,c),
(-46,237,o),
(-23,311,o),
(-18,382,c),
(-26,428,o),
(-8,462,o),
(-26,514,c),
(11,540,o),
(-25,604,o),
(78,576,c),
(104,580,o),
(136,538,o),
(148,537,c),
(146,514,o),
(125,487,o),
(153,472,c),
(176,465,o),
(167,428,o),
(166,422,c),
(199,402,o),
(207,408,o),
(240,427,c),
(260,422,o),
(249,443,o),
(282,457,c),
(307,496,o),
(337,535,o),
(388,563,c),
(524,571,o),
(548,436,o),
(543,386,c),
(546,322,o),
(528,238,o),
(532,144,c),
(559,112,o),
(530,62,o),
(460,66,c),
(396,85,o),
(434,160,o),
(421,168,c),
(435,220,o),
(414,262,o),
(418,307,c),
(413,357,o),
(470,481,o),
(413,449,c),
(364,417,o),
(332,385,o),
(315,368,cs),
(310,362,o),
(315,319,o),
(280,308,c),
(165,280,o),
(135,388,o),
(94,396,c),
(85,379,o),
(82,368,o),
(72,360,c),
(57,340,o)
);
}
);
width = 507;
}
);
unicode = (77,109);
},
{
glyphname = N;
lastChange = "2024-10-09 19:48:25 +0000";
layers = (
{
layerId = m01;
shapes = (
{
closed = 1;
nodes = (
(344,326,o),
(350,586,o),
(446,504,cs),
(480,476,o),
(458,439,o),
(458,402,cs),
(458,350,o),
(449,289,o),
(458,236,cs),
(465,200,o),
(483,131,o),
(458,94,cs),
(431,54,o),
(380,73,o),
(349,99,cs),
(307,134,o),
(270,179,o),
(235,220,cs),
(201,260,o),
(182,346,o),
(130,353,cs),
(103,357,o),
(142,301,o),
(142,272,cs),
(142,249,o),
(138,229,o),
(138,204,cs),
(138,180,o),
(143,105,o),
(110,90,cs),
(98,84,o),
(65,87,o),
(57,90,cs),
(25,104,o),
(24,148,o),
(29,171,cs),
(44,236,o),
(34,317,o),
(29,382,cs),
(27,411,o),
(25,439,o),
(25,472,cs),
(25,495,o),
(14,533,o),
(25,557,cs),
(59,630,o),
(138,560,o),
(166,524,cs),
(198,483,o),
(215,432,o),
(239,386,cs),
(264,338,o),
(304,293,o),
(340,256,cs),
(347,249,o),
(344,272,o),
(344,285,cs)
);
}
);
width = 491;
},
{
layerId = "3EED4E43-93E5-49B5-B4F5-8693E91ADEE2";
shapes = (
{
closed = 1;
nodes = (
(371,347,o),
(326,688,o),
(466,600,cs),
(516,571,o),
(495,518,o),
(503,469,cs),
(513,401,o),
(514,320,o),
(537,253,cs),
(553,207,o),
(591,121,o),
(566,68,cs),
(540,11,o),
(470,25,o),
(425,52,cs),
(363,89,o),
(307,141,o),
(253,187,cs),
(201,233,o),
(159,340,o),
(90,339,cs),
(55,339,o),
(116,274,o),
(123,235,cs),
(127,206,o),
(126,179,o),
(131,147,cs),
(136,115,o),
(158,18,o),
(118,-8,cs),
(105,-18,o),
(61,-21,o),
(50,-19,cs),
(6,-7,o),
(-4,50,o),
(-2,81,cs),
(3,169,o),
(-26,273,o),
(-45,357,cs),
(-54,394,o),
(-63,430,o),
(-70,472,cs),
(-75,503,o),
(-96,550,o),
(-87,583,cs),
(-58,686,o),
(58,610,o),
(101,569,cs),
(151,522,o),
(183,460,o),
(224,404,cs),
(266,347,o),
(327,296,o),
(381,255,cs),
(391,247,o),
(382,276,o),
(380,294,cs)
);
}
);
width = 491;
},
{
layerId = "B7F60EEF-5018-4FBA-9984-B24EB61DE206";
shapes = (
{
closed = 1;
nodes = (
(313,312,o),
(354,511,o),
(413,435,cs),
(434,409,o),
(412,384,o),
(406,355,cs),
(399,316,o),
(385,270,o),
(383,228,cs),
(384,200,o),
(387,144,o),
(363,119,cs),
(338,92,o),
(304,113,o),
(285,137,cs),
(260,170,o),
(238,209,o),
(219,245,cs),
(200,280,o),
(198,349,o),
(161,361,cs),
(142,368,o),
(163,319,o),
(159,298,cs),
(156,280,o),
(150,265,o),
(147,246,cs),
(143,227,o),
(136,169,o),
(110,162,cs),
(100,159,o),
(77,165,o),
(72,169,cs),
(50,184,o),
(55,218,o),
(62,235,cs),
(82,283,o),
(87,346,o),
(92,397,cs),
(94,419,o),
(97,441,o),
(101,467,cs),
(105,484,o),
(102,514,o),
(113,532,cs),
(148,583,o),
(196,519,o),
(211,487,cs),
(229,452,o),
(235,411,o),
(245,372,cs),
(257,332,o),
(279,292,o),
(300,259,cs),
(304,253,o),
(306,271,o),
(307,281,cs)
);
}
);
width = 491;
},
{
layerId = "33631C71-1333-4331-8A89-BDCD639A4A27";
shapes = (
{
closed = 1;
nodes = (
(316,324,o),
(331,657,o),
(405,538,c),
(435,505,o),
(413,442,o),
(403,413,c),
(420,340,o),
(394,284,o),
(415,216,c),
(421,157,o),
(432,88,o),
(409,43,cs),
(382,-11,o),
(339,11,o),
(333,43,c),
(304,88,o),
(275,139,o),
(232,177,c),
(207,242,o),
(196,348,o),
(165,338,c),
(146,347,o),
(162,284,o),
(175,237,c),
(157,211,o),
(166,208,o),
(152,175,c),
(156,142,o),
(165,56,o),
(129,34,c),
(129,5,o),
(111,33,o),
(108,21,c),
(84,54,o),
(67,110,o),
(79,129,c),
(80,225,o),
(77,308,o),
(84,404,cs),
(86,435,o),
(77,451,o),
(67,521,c),
(81,548,o),
(55,585,o),
(86,598,c),
(90,718,o),
(155,607,o),
(176,558,c),
(207,532,o),
(220,440,o),
(244,389,cs),
(270,343,o),
(289,284,o),
(328,250,c),
(315,210,o),
(328,250,o),
(331,266,c)
);
}
);
width = 491;
}
);
unicode = (78,110);
},
{
glyphname = O;
lastChange = "2024-10-09 19:48:30 +0000";
layers = (
{
layerId = m01;
shapes = (
{
closed = 1;
nodes = (
(108,504,o),
(90,361,o),
(102,293,cs),
(118,203,o),
(215,119,o),
(301,171,cs),
(402,233,o),
(396,349,o),
(387,455,cs),
(384,495,o),
(370,527,o),
(333,547,cs),
(293,568,o),
(204,560,o),
(169,540,cs)
);
},
{
closed = 1;
nodes = (
(14,390,o),
(52,470,o),
(86,540,cs),
(112,595,o),
(151,659,o),
(216,669,cs),
(232,671,o),
(260,671,o),
(273,666,cs),
(288,659,o),
(289,645,o),
(301,637,cs),
(326,621,o),
(359,624,o),
(387,612,cs),
(452,583,o),
(471,503,o),
(479,434,cs),
(495,300,o),
(439,122,o),
(289,90,cs),
(225,77,o),
(139,89,o),
(86,134,cs),
(34,178,o),
(26,244,o),
(21,309,cs)
);
}
);
width = 502;
},
{
layerId = "3EED4E43-93E5-49B5-B4F5-8693E91ADEE2";
shapes = (
{
closed = 1;
nodes = (
(99,572,o),
(44,395,o),
(43,307,cs),
(43,190,o),
(144,62,o),
(261,110,cs),
(400,165,o),
(418,313,o),
(431,449,cs),
(436,500,o),
(427,543,o),
(385,577,cs),
(340,612,o),
(229,621,o),
(181,604,cs)
);
},
{
closed = 1;
nodes = (
(-43,449,o),
(22,541,o),
(79,623,cs),
(124,686,o),
(186,758,o),
(268,756,cs),
(289,756,o),
(323,750,o),
(338,740,cs),
(355,728,o),
(353,710,o),
(366,697,cs),
(394,672,o),
(435,668,o),
(466,647,cs),
(540,596,o),
(545,491,o),
(540,402,cs),
(529,229,o),
(420,17,o),
(228,10,cs),
(146,8,o),
(43,42,o),
(-12,111,cs),
(-66,177,o),
(-61,263,o),
(-53,345,cs)
);
}
);
width = 502;
},
{
layerId = "B7F60EEF-5018-4FBA-9984-B24EB61DE206";
shapes = (
{
closed = 1;
nodes = (
(111,436,o),
(129,323,o),
(152,272,cs),
(183,206,o),
(273,161,o),
(325,219,cs),
(387,286,o),
(358,375,o),
(329,455,cs),
(318,485,o),
(301,508,o),
(269,516,cs),
(236,523,o),
(171,499,o),
(149,476,cs)
);
},
{
closed = 1;
nodes = (
(66,329,o),
(77,399,o),
(87,460,cs),
(95,507,o),
(110,564,o),
(157,585,cs),
(169,591,o),
(189,596,o),
(200,595,cs),
(213,592,o),
(216,582,o),
(227,578,cs),
(249,571,o),
(272,580,o),
(296,576,cs),
(350,567,o),
(381,509,o),
(401,457,cs),
(442,358,o),
(438,209,o),
(333,154,cs),
(288,131,o),
(222,122,o),
(173,146,cs),
(126,170,o),
(106,219,o),
(89,268,cs)
);
}
);
width = 502;
},
{
layerId = "33631C71-1333-4331-8A89-BDCD639A4A27";
shapes = (
{
closed = 1;
nodes = (
(84,468,o),
(67,361,o),
(71,307,c),
(92,234,o),
(206,186,o),
(311,214,c),
(424,266,o),
(404,364,o),
(419,437,c),
(395,475,o),
(388,504,o),
(334,518,c),
(309,533,o),
(205,517,o),
(157,495,c)
);
},
{
closed = 1;
nodes = (
(-26,378,o),
(9,451,o),
(52,495,c),
(81,538,o),
(135,600,o),
(213,607,c),
(219,610,o),
(252,611,o),
(281,590,cs),
(278,593,o),
(312,592,o),
(325,567,c),
(353,576,o),
(382,564,o),
(425,568,c),
(488,544,o),
(511,469,o),
(530,431,c),
(545,325,o),
(482,186,o),
(302,152,c),
(214,145,o),
(117,146,o),
(54,196,c),
(-10,231,o),
(-28,271,o),
(-26,321,cs)
);
}
);
width = 502;
}
);
unicode = (79,111);
},
{
glyphname = P;
lastChange = "2024-10-09 19:48:34 +0000";
layers = (
{
layerId = m01;
shapes = (
{
closed = 1;
nodes = (
(216,321,o),
(302,380,o),
(325,393,cs),
(374,421,o),
(428,462,o),
(370,510,cs),
(345,531,o),
(318,548,o),
(281,548,cs),
(264,548,o),
(214,562,o),
(200,548,cs),
(177,525,o),
(216,409,o),
(216,377,cs)
);
},
{
closed = 1;
nodes = (
(95,321,o),
(121,304,o),
(131,328,cs),
(137,344,o),
(123,386,o),
(119,406,cs),
(115,429,o),
(111,454,o),
(107,478,cs),
(102,503,o),
(107,516,o),
(86,523,cs),
(70,528,o),
(63,504,o),
(42,515,cs),
(10,532,o),
(18,572,o),
(38,592,cs),
(52,606,o),
(111,624,o),
(131,624,cs),
(176,624,o),
(224,624,o),
(273,624,cs),
(350,624,o),
(469,588,o),
(500,499,cs),
(537,393,o),
(378,332,o),
(305,305,cs),
(281,296,o),
(244,296,o),
(232,267,cs),
(224,247,o),
(232,211,o),
(232,191,cs),
(232,163,o),
(232,134,o),
(232,110,cs),
(232,73,o),
(224,19,o),
(172,24,cs),
(131,28,o),
(113,101,o),
(123,134,cs),
(129,155,o),
(140,163,o),
(140,183,cs),
(140,199,o),
(143,247,o),
(135,256,cs),
(119,276,o),
(95,240,o),
(95,280,cs)
);
}
);
width = 526;
},
{
layerId = "3EED4E43-93E5-49B5-B4F5-8693E91ADEE2";
shapes = (
{
closed = 1;
nodes = (
(218,294,o),
(307,387,o),
(331,409,cs),
(383,455,o),
(438,519,o),
(359,569,cs),
(325,591,o),
(289,608,o),
(245,601,cs),
(225,598,o),
(162,605,o),
(148,584,cs),
(127,549,o),
(199,407,o),
(206,366,cs)
);
},
{
closed = 1;
nodes = (
(74,270,o),
(108,253,o),
(115,286,cs),
(119,308,o),
(93,359,o),
(84,384,cs),
(74,414,o),
(64,444,o),
(53,475,cs),
(42,507,o),
(45,524,o),
(19,529,cs),
(-1,532,o),
(-5,500,o),
(-32,509,cs),
(-74,526,o),
(-73,578,o),
(-53,608,cs),
(-40,630,o),
(26,664,o),
(50,668,cs),
(104,677,o),
(160,687,o),
(219,697,cs),
(310,712,o),
(460,690,o),
(516,581,cs),
(584,451,o),
(408,340,o),
(327,291,cs),
(300,275,o),
(257,267,o),
(249,227,cs),
(243,200,o),
(261,155,o),
(265,129,cs),
(271,93,o),
(278,56,o),
(283,24,cs),
(291,-23,o),
(293,-95,o),
(231,-99,cs),
(181,-102,o),
(144,-12,o),
(148,34,cs),
(151,62,o),
(162,75,o),
(157,100,cs),
(154,121,o),
(147,184,o),
(136,194,cs),
(112,216,o),
(92,165,o),
(83,216,cs)
);
}
);
width = 526;
},
{
layerId = "B7F60EEF-5018-4FBA-9984-B24EB61DE206";
shapes = (
{
closed = 1;
nodes = (
(228,335,o),
(292,358,o),
(309,363,cs),
(346,372,o),
(387,389,o),
(360,431,cs),
(348,450,o),
(334,466,o),
(311,472,cs),
(299,475,o),
(271,494,o),
(259,487,cs),
(240,476,o),
(244,392,o),
(238,371,cs)
);
},
{
closed = 1;
nodes = (
(152,356,o),
(165,340,o),
(175,355,cs),
(182,364,o),
(181,394,o),
(182,408,cs),
(184,424,o),
(186,441,o),
(188,457,cs),
(189,474,o),
(195,482,o),
(183,491,cs),
(174,497,o),
(165,482,o),
(154,494,cs),
(137,510,o),
(149,535,o),
(165,544,cs),
(176,552,o),
(217,553,o),
(230,549,cs),
(259,541,o),
(288,533,o),
(319,524,cs),
(368,510,o),
(437,466,o),
(440,402,cs),
(443,325,o),
(331,313,o),
(280,308,cs),
(264,307,o),
(240,313,o),
(227,296,cs),
(219,284,o),
(217,260,o),
(213,246,cs),
(208,228,o),
(203,209,o),
(198,192,cs),
(191,168,o),
(176,134,o),
(145,147,cs),
(119,156,o),
(121,208,o),
(134,228,cs),
(142,240,o),
(150,244,o),
(154,257,cs),
(157,267,o),
(168,299,o),
(164,306,cs),
(158,322,o),
(136,302,o),
(144,329,cs)
);
}
);
width = 526;
},
{
layerId = "33631C71-1333-4331-8A89-BDCD639A4A27";
shapes = (
{
closed = 1;
nodes = (
(235,341,o),
(299,414,o),
(316,407,c),
(361,440,o),
(392,493,o),
(358,565,c),
(337,582,o),
(309,607,o),
(278,592,c),
(270,592,o),
(222,637,o),
(219,587,c),
(207,561,o),
(229,428,o),
(241,391,c)
);
},
{
closed = 1;
nodes = (
(137,322,o),
(148,285,o),
(168,331,c),
(163,354,o),
(151,411,o),
(151,416,c),
(155,471,o),
(153,485,o),
(138,527,c),
(151,548,o),
(158,583,o),
(123,576,c),
(129,583,o),
(105,550,o),
(99,548,c),
(83,572,o),
(86,625,o),
(86,665,c),
(103,666,o),
(147,691,o),
(154,689,c),
(191,686,o),
(231,684,o),
(286,700,c),
(339,689,o),
(431,652,o),
(448,553,c),
(480,421,o),
(366,346,o),
(294,308,c),
(280,279,o),
(258,281,o),
(250,243,c),
(227,247,o),
(254,197,o),
(240,156,c),
(234,119,o),
(243,86,o),
(244,74,cs),
(245,6,o),
(237,-70,o),
(207,-46,c),
(177,-31,o),
(150,37,o),
(157,91,c),
(154,116,o),
(183,144,o),
(162,160,c),
(180,173,o),
(176,219,o),
(174,255,c),
(161,274,o),
(146,212,o),
(130,254,c)
);
}
);
width = 526;
}
);
unicode = (80,112);
},
{
glyphname = Q;
lastChange = "2024-10-09 19:48:36 +0000";
layers = (
{
layerId = m01;
shapes = (
{
closed = 1;
nodes = (
(374,337,o),
(377,382,o),
(377,426,cs),
(377,467,o),
(370,485,o),
(341,491,cs),
(300,500,o),
(277,533,o),
(235,548,cs),
(206,558,o),
(180,530,o),
(163,510,cs),
(119,457,o),
(106,389,o),
(102,325,cs),
(99,272,o),
(90,171,o),
(142,143,cs),
(200,111,o),
(264,159,o),
(300,195,cs),
(359,254,o),
(288,267,o),
(247,308,cs),
(206,349,o),
(239,401,o),
(292,386,cs),
(312,380,o),
(340,337,o),
(361,337,cs)
);
},
{
closed = 1;
nodes = (
(467,389,o),
(456,345,o),
(446,288,cs),
(438,242,o),
(487,219,o),
(519,191,cs),
(548,166,o),
(608,130,o),
(613,85,cs),
(616,53,o),
(568,17,o),
(539,40,cs),
(527,49,o),
(527,73,o),
(519,85,cs),
(507,101,o),
(487,114,o),
(470,130,cs),
(455,144,o),
(433,165,o),
(413,175,cs),
(393,185,o),
(385,170,o),
(365,150,cs),
(330,115,o),
(296,86,o),
(247,73,cs),
(219,66,o),
(167,73,o),
(130,73,cs),
(100,73,o),
(52,110,o),
(40,134,cs),
(19,175,o),
(20,231,o),
(20,276,cs),
(20,365,o),
(30,485,o),
(98,555,cs),
(128,586,o),
(166,608,o),
(206,616,cs),
(251,624,o),
(287,603,o),
(328,608,cs),
(365,612,o),
(404,619,o),
(429,592,cs),
(461,558,o),
(465,510,o),
(466,467,cs)
);
}
);
width = 573;
},
{
layerId = "3EED4E43-93E5-49B5-B4F5-8693E91ADEE2";
shapes = (
{
closed = 1;
nodes = (
(387,305,o),
(401,361,o),
(411,416,cs),
(420,467,o),
(415,492,o),
(381,506,cs),
(334,525,o),
(313,573,o),
(266,600,cs),
(233,618,o),
(195,589,o),
(170,567,cs),
(105,510,o),
(74,428,o),
(55,348,cs),
(39,282,o),
(6,157,o),
(63,111,cs),
(127,58,o),
(214,105,o),
(266,142,cs),
(350,204,o),
(268,235,o),
(227,295,cs),
(186,356,o),
(238,414,o),
(299,384,cs),
(322,372,o),
(346,312,o),
(372,307,cs)
);
},
{
closed = 1;
nodes = (
(511,351,o),
(489,297,o),
(464,228,cs),
(444,172,o),
(498,133,o),
(530,91,cs),
(560,53,o),
(625,-5,o),
(621,-63,cs),
(618,-104,o),
(552,-139,o),
(521,-104,cs),
(509,-89,o),
(514,-60,o),
(507,-42,cs),
(497,-20,o),
(475,1,o),
(458,24,cs),
(443,45,o),
(421,76,o),
(399,92,cs),
(376,110,o),
(363,93,o),
(335,72,cs),
(285,35,o),
(237,6,o),
(175,0,cs),
(139,-3,o),
(78,17,o),
(33,25,cs),
(-3,31,o),
(-53,88,o),
(-62,121,cs),
(-79,177,o),
(-65,247,o),
(-56,304,cs),
(-36,416,o),
(3,564,o),
(101,638,cs),
(144,670,o),
(195,690,o),
(245,691,cs),
(302,692,o),
(341,658,o),
(391,655,cs),
(438,652,o),
(486,653,o),
(511,614,cs),
(542,564,o),
(536,503,o),
(528,448,cs)
);
}
);
width = 573;
},
{
layerId = "B7F60EEF-5018-4FBA-9984-B24EB61DE206";
shapes = (
{
closed = 1;
nodes = (
(332,353,o),
(327,387,o),
(321,419,cs),
(314,450,o),
(308,462,o),
(288,464,cs),
(260,465,o),
(241,487,o),
(212,492,cs),
(192,496,o),
(179,472,o),
(172,455,cs),
(151,410,o),
(153,357,o),
(160,309,cs),
(166,269,o),
(175,192,o),
(213,178,cs),
(255,161,o),
(288,206,o),
(306,237,cs),
(335,288,o),
(288,289,o),
(255,315,cs),
(223,340,o),
(236,383,o),
(273,379,cs),
(286,377,o),
(310,349,o),
(324,351,cs)
);
},
{
closed = 1;
nodes = (
(384,403,o),
(384,370,o),
(385,325,cs),
(387,290,o),
(422,279,o),
(447,262,cs),
(469,247,o),
(513,228,o),
(522,195,cs),
(529,171,o),
(504,139,o),
(482,152,cs),
(473,157,o),
(469,176,o),
(463,183,cs),
(452,194,o),
(438,201,o),
(425,210,cs),
(413,219,o),
(396,232,o),
(382,237,cs),
(367,242,o),
(364,229,o),
(354,212,cs),
(337,182,o),
(319,155,o),
(290,140,cs),
(273,130,o),
(239,129,o),
(215,125,cs),
(196,121,o),
(160,142,o),
(148,158,cs),
(130,186,o),
(121,228,o),
(115,262,cs),
(101,328,o),
(90,419,o),
(123,480,cs),
(138,507,o),
(159,529,o),
(183,540,cs),
(211,551,o),
(236,540,o),
(262,549,cs),
(285,557,o),
(309,567,o),
(329,550,cs),
(355,529,o),
(364,493,o),
(371,462,cs)
);
}
);
width = 573;
},
{
layerId = "33631C71-1333-4331-8A89-BDCD639A4A27";
shapes = (
{
closed = 1;
nodes = (
(398,329,o),
(377,361,o),
(371,420,c),
(397,439,o),
(372,453,o),
(335,467,c),
(304,473,o),
(279,489,o),
(208,514,c),
(181,513,o),
(162,486,o),
(127,487,c),
(88,424,o),
(68,375,o),
(90,326,c),
(80,281,o),
(52,196,o),
(109,166,c),
(180,138,o),
(247,192,o),
(309,207,c),
(373,258,o),
(282,275,o),
(254,321,c),
(193,344,o),
(244,380,o),
(293,364,c),
(303,373,o),
(351,341,o),
(361,337,c)
);
},
{
closed = 1;
nodes = (
(485,387,o),
(477,343,o),
(464,300,c),
(457,247,o),
(499,227,o),
(534,220,c),
(586,188,o),
(662,161,o),
(655,133,c),
(662,108,o),
(594,77,o),
(572,94,c),
(543,93,o),
(560,110,o),
(541,130,c),
(533,129,o),
(500,160,o),
(495,162,c),
(483,172,o),
(436,204,o),
(411,193,c),
(416,200,o),
(410,191,o),
(363,177,c),
(318,142,o),
(309,133,o),
(231,116,c),
(212,109,o),
(134,122,o),
(107,125,c),
(84,104,o),
(24,151,o),
(-3,172,cs),
(-32,201,o),
(-18,255,o),
(-31,278,c),
(-14,365,o),
(-1,447,o),
(80,511,c),
(89,549,o),
(154,563,o),
(207,559,c),
(229,572,o),
(293,553,o),
(339,559,c),
(382,551,o),
(431,559,o),
(443,555,c),
(468,506,o),
(486,469,o),
(479,453,c)
);
}
);
width = 573;
}
);
unicode = (81,113);
},
{
glyphname = R;
lastChange = "2024-10-09 19:48:39 +0000";
layers = (
{
layerId = m01;
shapes = (
{
closed = 1;
nodes = (
(122,539,o),
(169,397,o),
(169,353,cs),
(169,305,o),
(172,297,o),
(213,325,cs),
(237,342,o),
(271,357,o),
(291,377,cs),
(307,393,o),
(341,412,o),
(348,434,cs),
(357,461,o),
(316,475,o),
(291,490,cs),
(275,500,o),
(255,507,o),
(242,507,cs),
(236,507,o),
(226,515,o),
(226,519,cs),
(226,538,o),
(188,539,o),
(169,539,cs)
);
},
{
closed = 1;
nodes = (
(59,367,o),
(67,413,cs),
(72,442,o),
(77,495,o),
(56,523,cs),
(36,549,o),
(-4,563,o),
(40,600,cs),
(101,652,o),
(227,606,o),
(291,584,cs),
(320,574,o),
(344,557,o),
(372,543,cs),
(401,529,o),
(437,504,o),
(453,474,cs),
(474,435,o),
(462,412,o),
(429,386,cs),
(401,364,o),
(377,335,o),
(352,316,cs),
(334,302,o),
(254,276,o),
(254,247,cs),
(254,227,o),
(332,196,o),
(355,183,cs),
(389,164,o),
(576,103,o),
(501,45,cs),
(451,6,o),
(358,79,o),
(315,105,cs),
(282,125,o),
(246,147,o),
(206,163,cs),
(153,184,o),
(173,146,o),
(173,101,cs),
(173,69,o),
(161,29,o),
(121,29,cs),
(72,29,o),
(68,79,o),
(72,110,cs),
(88,245,o)
);
}
);
width = 539;
},
{
layerId = "3EED4E43-93E5-49B5-B4F5-8693E91ADEE2";
shapes = (
{
closed = 1;
nodes = (
(131,609,o),
(155,423,o),
(146,369,cs),
(135,310,o),
(137,299,o),
(191,325,cs),
(223,341,o),
(267,352,o),
(295,373,cs),
(317,389,o),
(362,406,o),
(374,432,cs),
(391,463,o),
(346,490,o),
(320,514,cs),
(303,529,o),
(281,542,o),
(265,545,cs),
(258,546,o),
(248,558,o),
(249,563,cs),
(253,586,o),
(208,595,o),
(187,599,cs)
);
},
{
closed = 1;
nodes = (
(19,409,o),
(38,465,cs),
(50,499,o),
(68,564,o),
(49,603,cs),
(31,640,o),
(-13,665,o),
(48,702,cs),
(131,753,o),
(269,671,o),
(340,630,cs),
(373,611,o),
(397,585,o),
(427,562,cs),
(458,539,o),
(495,500,o),
(507,459,cs),
(524,406,o),
(504,380,o),
(460,356,cs),
(422,334,o),
(387,303,o),
(353,285,cs),
(330,271,o),
(229,255,o),
(223,220,cs),
(219,195,o),
(303,141,o),
(328,119,cs),
(364,88,o),
(571,-27,o),
(470,-83,cs),
(402,-121,o),
(308,-10,o),
(264,31,cs),
(229,63,o),
(191,98,o),
(147,126,cs),
(89,162,o),
(104,112,o),
(94,56,cs),
(87,16,o),
(65,-31,o),
(18,-23,cs),
(-41,-13,o),
(-34,50,o),
(-23,88,cs),
(27,252,o)
);
}
);
width = 539;
},
{
layerId = "B7F60EEF-5018-4FBA-9984-B24EB61DE206";
shapes = (
{
closed = 1;
nodes = (
(202,498,o),
(210,393,o),
(203,362,cs),
(195,329,o),
(196,322,o),
(226,336,cs),
(245,344,o),
(269,350,o),
(284,360,cs),
(298,369,o),
(322,377,o),
(331,392,cs),
(341,410,o),
(317,426,o),
(303,439,cs),
(295,449,o),
(283,457,o),
(274,459,cs),
(271,460,o),
(265,466,o),
(266,469,cs),
(269,483,o),
(244,489,o),
(233,491,cs)
);
},
{
closed = 1;
nodes = (
(134,388,o),
(146,419,cs),
(155,439,o),
(166,475,o),
(157,498,cs),
(149,519,o),
(126,535,o),
(160,553,cs),
(207,580,o),
(281,529,o),
(318,505,cs),
(335,494,o),
(348,478,o),
(364,464,cs),
(380,450,o),
(399,427,o),
(404,404,cs),
(412,374,o),
(400,359,o),
(375,347,cs),
(353,335,o),
(333,318,o),
(315,309,cs),
(301,302,o),
(245,296,o),
(240,275,cs),
(237,261,o),
(282,228,o),
(295,215,cs),
(313,197,o),
(423,127,o),
(366,98,cs),
(328,78,o),
(280,143,o),
(256,168,cs),
(238,186,o),
(219,207,o),
(195,224,cs),
(165,246,o),
(171,217,o),
(164,186,cs),
(159,164,o),
(144,137,o),
(119,143,cs),
(88,150,o),
(93,186,o),
(101,207,cs),
(133,299,o)
);
}
);
width = 539;
},
{
layerId = "33631C71-1333-4331-8A89-BDCD639A4A27";
shapes = (
{
closed = 1;
nodes = (
(151,608,o),
(203,431,o),
(189,355,c),
(200,284,o),
(205,307,o),
(219,344,c),
(249,354,o),
(282,370,o),
(286,401,c),
(312,423,o),
(336,426,o),
(343,451,c),
(340,486,o),
(308,504,o),
(288,528,c),
(286,554,o),
(255,555,o),
(257,556,c),
(245,570,o),
(247,575,o),
(243,583,c),
(233,590,o),
(211,581,o),
(197,609,c)
);
},
{
closed = 1;
nodes = (
(115,381,o),
(113,444,c),
(121,461,o),
(111,531,o),
(104,566,c),
(83,618,o),
(52,625,o),
(103,653,c),
(151,731,o),
(228,671,o),
(286,663,c),
(312,625,o),
(318,631,o),
(340,614,c),
(385,598,o),
(407,565,o),
(407,498,c),
(423,444,o),
(424,418,o),
(401,405,c),
(367,393,o),
(345,353,o),
(332,317,cs),
(328,303,o),
(265,257,o),
(266,235,cs),
(268,209,o),
(324,168,o),
(340,132,c),
(373,108,o),
(502,55,o),
(450,-37,cs),
(422,-83,o),
(341,0,o),
(296,43,c),
(280,83,o),
(263,94,o),
(220,133,c),
(177,139,o),
(199,110,o),
(198,64,c),
(204,-10,o),
(192,-38,o),
(159,-27,c),
(113,-47,o),
(112,7,o),
(123,52,c),
(121,238,o)
);
}
);
width = 539;
}
);
unicode = (82,114);
},
{
glyphname = S;
lastChange = "2024-10-09 19:48:44 +0000";
layers = (
{
layerId = m01;
shapes = (
{
closed = 1;
nodes = (
(253,657,o),
(410,616,o),
(358,551,cs),
(345,534,o),
(321,530,o),
(301,534,cs),
(285,538,o),
(287,553,o),
(273,563,cs),
(242,585,o),
(172,567,o),
(139,551,cs),
(37,502,o),
(225,439,o),
(260,417,cs),
(339,367,o),
(411,304,o),
(394,203,cs),
(379,113,o),
(273,52,o),
(192,44,cs),
(147,40,o),
(113,59,o),
(82,89,cs),
(59,111,o),
(21,167,o),
(57,194,cs),
(91,219,o),
(86,167,o),
(107,150,cs),
(151,113,o),
(188,126,o),
(232,146,cs),
(269,163,o),
(297,178,o),
(301,223,cs),
(306,271,o),
(277,292,o),
(244,320,cs),
(205,353,o),
(159,372,o),
(114,397,cs),
(73,421,o),
(30,446,o),
(21,498,cs),
(5,599,o),
(134,644,o),
(212,653,cs)
);
}
);
width = 417;
},
{
layerId = "3EED4E43-93E5-49B5-B4F5-8693E91ADEE2";
shapes = (
{
closed = 1;
nodes = (
(206,719,o),
(386,691,o),
(339,604,cs),
(327,581,o),
(302,573,o),
(278,575,cs),
(261,576,o),
(260,596,o),
(243,605,cs),
(206,629,o),
(131,596,o),
(97,572,cs),
(-8,497,o),
(210,447,o),
(252,425,cs),
(348,375,o),
(437,308,o),
(435,182,cs),
(432,69,o),
(325,-21,o),
(237,-43,cs),
(188,-54,o),
(147,-35,o),
(109,-3,cs),
(79,20,o),
(29,83,o),
(64,122,cs),
(98,158,o),
(100,93,o),
(126,75,cs),
(180,36,o),
(220,58,o),
(265,88,cs),
(303,115,o),
(331,137,o),
(328,193,cs),
(326,252,o),
(291,274,o),
(250,304,cs),
(202,339,o),
(148,355,o),
(94,379,cs),
(46,403,o),
(-6,428,o),
(-24,490,cs),
(-58,611,o),
(76,685,o),
(161,708,cs)
);
}
);
width = 417;
},
{
layerId = "B7F60EEF-5018-4FBA-9984-B24EB61DE206";
shapes = (
{
closed = 1;
nodes = (
(216,561,o),
(328,551,o),
(301,500,cs),
(294,486,o),
(278,481,o),
(263,481,cs),
(252,482,o),
(252,492,o),
(241,498,cs),
(217,510,o),
(172,489,o),
(151,474,cs),
(87,428,o),
(223,405,o),
(250,395,cs),
(310,368,o),
(367,332,o),
(367,259,cs),
(368,195,o),
(302,140,o),
(248,125,cs),
(217,117,o),
(192,126,o),
(167,143,cs),
(148,156,o),
(116,191,o),
(137,214,cs),
(158,236,o),
(160,199,o),
(177,190,cs),
(211,168,o),
(235,182,o),
(262,201,cs),
(286,217,o),
(304,231,o),
(300,263,cs),
(299,297,o),
(276,309,o),
(250,325,cs),
(220,343,o),
(186,351,o),
(153,363,cs),
(121,375,o),
(89,387,o),
(76,423,cs),
(53,492,o),
(136,539,o),
(189,554,cs)
);
}
);
width = 417;
},
{
layerId = "33631C71-1333-4331-8A89-BDCD639A4A27";
shapes = (
{
closed = 1;
nodes = (
(260,605,o),
(437,569,o),
(394,506,c),
(351,499,o),
(340,504,o),
(331,505,cs),
(299,511,o),
(305,529,o),
(294,538,c),
(244,545,o),
(173,535,o),
(128,515,c),
(-5,468,o),
(227,436,o),
(275,413,c),
(351,356,o),
(453,316,o),
(423,223,c),
(411,157,o),
(288,107,o),
(196,78,c),
(147,92,o),
(100,103,o),
(54,135,cs),
(52,137,o),
(-23,183,o),
(48,209,c),
(61,225,o),
(78,205,o),
(90,180,c),
(138,156,o),
(180,153,o),
(232,171,cs),
(278,189,o),
(311,194,o),
(320,229,c),
(312,292,o),
(276,303,o),
(255,322,c),
(198,361,o),
(160,362,o),
(107,387,cs),
(47,411,o),
(5,439,o),
(-10,477,c),
(-31,567,o),
(120,598,o),
(212,604,cs)
);
}
);
width = 417;
}
);
unicode = (83,115);
},
{
glyphname = T;
lastChange = "2024-10-09 19:48:47 +0000";
layers = (
{
layerId = m01;
shapes = (
{
closed = 1;
nodes = (
(424,492,o),
(379,491,cs),
(318,490,o),
(333,466,o),
(347,413,cs),
(369,329,o),
(378,223,o),
(347,138,cs),
(330,93,o),
(293,84,o),
(278,134,cs),
(264,182,o),
(271,239,o),
(266,288,cs),
(259,361,o),
(258,491,o),
(165,474,cs),
(124,467,o),
(-27,417,o),
(-18,474,cs),
(-11,517,o),
(35,559,o),
(51,567,cs),
(68,576,o),
(95,563,o),
(116,563,cs),
(140,563,o),
(169,573,o),
(192,576,cs),
(290,589,o),
(387,599,o),
(484,596,cs),
(509,595,o),
(572,599,o),
(582,576,cs),
(601,533,o),
(568,521,o),
(509,505,cs),
(469,494,o)
);
}
);
width = 568;
},
{
layerId = "3EED4E43-93E5-49B5-B4F5-8693E91ADEE2";
shapes = (
{
closed = 1;
nodes = (
(458,479,o),
(413,489,cs),
(352,502,o),
(360,470,o),
(359,402,cs),
(356,296,o),
(334,165,o),
(279,71,cs),
(248,20,o),
(209,19,o),
(208,83,cs),
(208,143,o),
(231,211,o),
(241,271,cs),
(255,360,o),
(292,518,o),
(193,520,cs),
(150,521,o),
(-16,498,o),
(9,565,cs),
(29,614,o),
(87,654,o),
(106,659,cs),
(125,666,o),
(148,644,o),
(170,639,cs),
(194,633,o),
(226,639,o),
(249,636,cs),
(352,628,o),
(453,617,o),
(549,590,cs),
(574,583,o),
(638,572,o),
(641,542,cs),
(648,486,o),
(612,479,o),
(548,474,cs),
(505,471,o)
);
}
);
width = 568;
},
{
layerId = "B7F60EEF-5018-4FBA-9984-B24EB61DE206";
shapes = (
{
closed = 1;
nodes = (
(399,426,o),
(368,433,cs),
(325,442,o),
(332,422,o),
(332,380,cs),
(333,313,o),
(320,233,o),
(284,174,cs),
(264,144,o),
(237,143,o),
(235,183,cs),
(234,221,o),
(249,262,o),
(254,300,cs),
(262,355,o),
(285,453,o),
(216,455,cs),
(187,456,o),
(74,444,o),
(90,485,cs),
(102,516,o),
(142,540,o),
(154,543,cs),
(167,547,o),
(184,533,o),
(198,529,cs),
(215,525,o),
(237,529,o),
(254,527,cs),
(323,521,o),
(392,513,o),
(459,494,cs),
(476,489,o),
(521,482,o),
(523,463,cs),
(529,428,o),
(504,425,o),
(460,422,cs),
(431,420,o)
);
}
);
width = 568;
},
{
layerId = "33631C71-1333-4331-8A89-BDCD639A4A27";
shapes = (
{
closed = 1;
nodes = (
(398,511,o),
(371,532,c),
(327,535,o),
(339,486,o),
(332,413,c),
(363,329,o),
(364,205,o),
(340,106,c),
(312,36,o),
(281,38,o),
(275,73,c),
(275,139,o),
(282,197,o),
(263,275,c),
(254,351,o),
(261,524,o),
(174,492,c),
(140,491,o),
(20,415,o),
(25,491,c),
(41,538,o),
(82,609,o),
(76,614,c),
(109,621,o),
(109,619,o),
(135,602,c),
(172,604,o),
(192,611,o),
(206,619,c),
(299,640,o),
(371,653,o),
(461,652,c),
(479,643,o),
(523,664,o),
(551,634,c),
(550,571,o),
(542,562,o),
(477,545,c),
(441,541,o)
);
}
);
width = 568;
}
);
unicode = (84,116);
},
{
glyphname = U;
lastChange = "2024-10-09 19:48:51 +0000";
layers = (
{
layerId = m01;
shapes = (
{
closed = 1;
nodes = (
(564,289,o),
(556,223,o),
(503,122,cs),
(459,37,o),
(389,-28,o),
(288,-20,cs),
(182,-12,o),
(95,101,o),
(65,194,cs),
(31,299,o),
(30,410,o),
(20,523,cs),
(17,559,o),
(49,596,o),
(94,576,cs),
(130,559,o),
(114,474,o),
(114,442,cs),
(114,340,o),
(121,235,o),
(178,146,cs),
(239,53,o),
(355,49,o),
(413,146,cs),
(472,244,o),
(481,372,o),
(458,482,cs),
(448,527,o),
(433,607,o),
(397,637,cs),
(379,652,o),
(348,636,o),
(340,644,cs),
(327,657,o),
(352,694,o),
(360,701,cs),
(470,790,o),
(537,577,o),
(542,515,cs),
(545,480,o),
(556,393,o),
(559,353,cs)
);
}
);
width = 615;
},
{
layerId = "3EED4E43-93E5-49B5-B4F5-8693E91ADEE2";
shapes = (
{
closed = 1;
nodes = (
(624,337,o),
(628,259,o),
(589,133,cs),
(556,27,o),
(488,-63,o),
(371,-73,cs),
(249,-86,o),
(125,25,o),
(73,125,cs),
(12,239,o),
(-12,366,o),
(-47,493,cs),
(-57,534,o),
(-28,583,o),
(27,569,cs),
(72,557,o),
(72,456,o),
(78,420,cs),
(99,303,o),
(128,184,o),
(212,94,cs),
(300,0,o),
(434,19,o),
(480,142,cs),
(528,267,o),
(512,414,o),
(463,535,cs),
(443,586,o),
(409,674,o),
(362,700,cs),
(339,714,o),
(307,689,o),
(295,697,cs),
(278,709,o),
(299,757,o),
(307,766,cs),
(414,890,o),
(534,661,o),
(553,591,cs),
(564,551,o),
(593,454,o),
(605,408,cs)
);
}
);
width = 615;
},
{
layerId = "B7F60EEF-5018-4FBA-9984-B24EB61DE206";
shapes = (
{
closed = 1;
nodes = (
(478,246,o),
(460,198,o),
(402,132,cs),
(353,77,o),
(289,41,o),
(215,65,cs),
(137,90,o),
(92,191,o),
(87,266,cs),
(79,350,o),
(100,434,o),
(113,520,cs),
(117,547,o),
(147,569,o),
(177,546,cs),
(202,526,o),
(174,466,o),
(168,442,cs),
(149,366,o),
(136,286,o),
(163,210,cs),
(191,128,o),
(278,104,o),
(338,167,cs),
(401,229,o),
(431,323,o),
(433,409,cs),
(434,445,o),
(438,507,o),
(416,536,cs),
(405,551,o),
(379,544,o),
(375,552,cs),
(367,564,o),
(392,587,o),
(399,590,cs),
(498,637,o),
(510,466,o),
(503,418,cs),
(498,392,o),
(491,325,o),
(486,294,cs)
);
}
);
width = 615;
},
{
layerId = "33631C71-1333-4331-8A89-BDCD639A4A27";
shapes = (
{
closed = 1;
nodes = (
(619,308,o),
(587,264,o),
(524,173,cs),
(466,94,o),
(416,59,o),
(280,57,c),
(153,78,o),
(55,164,o),
(16,242,c),
(-2,305,o),
(-25,402,o),
(-24,489,c),
(-32,512,o),
(-1,563,o),
(67,545,c),
(90,525,o),
(99,446,o),
(76,432,c),
(84,352,o),
(82,260,o),
(159,192,c),
(239,111,o),
(363,124,o),
(431,203,c),
(482,272,o),
(509,365,o),
(474,461,c),
(483,496,o),
(457,569,o),
(402,589,c),
(401,602,o),
(345,577,o),
(354,586,c),
(334,598,o),
(376,635,o),
(380,640,c),
(511,700,o),
(562,528,o),
(579,481,c),
(582,450,o),
(591,385,o),
(610,351,c)
);
}
);
width = 615;
}
);
unicode = (85,117);
},
{
glyphname = V;
lastChange = "2024-10-09 19:48:56 +0000";
layers = (
{
layerId = m01;
shapes = (
{
closed = 1;
nodes = (
(417,520,o),
(413,419,o),
(389,325,cs),
(376,277,o),
(374,228,o),
(369,176,cs),
(365,143,o),
(375,80,o),
(348,53,cs),
(267,-28,o),
(133,305,o),
(113,349,cs),
(97,386,o),
(88,419,o),
(68,451,cs),
(56,471,o),
(46,477,o),
(36,495,cs),
(21,522,o),
(-11,559,o),
(4,588,cs),
(14,607,o),
(61,633,o),
(81,625,cs),
(101,617,o),
(107,577,o),
(113,564,cs),
(131,528,o),
(156,497,o),
(174,462,cs),
(210,392,o),
(195,240,o),
(272,240,cs),
(374,240,o),
(311,451,o),
(320,556,cs),
(323,585,o),
(329,647,o),
(353,666,cs),
(397,700,o),
(417,641,o),
(417,613,cs)
);
}
);
width = 417;
},
{
layerId = "3EED4E43-93E5-49B5-B4F5-8693E91ADEE2";
shapes = (
{
closed = 1;
nodes = (
(491,489,o),
(454,376,o),
(396,280,cs),
(365,230,o),
(348,175,o),
(326,119,cs),
(310,82,o),
(302,9,o),
(261,-13,cs),
(139,-76,o),
(84,342,o),
(74,399,cs),
(67,446,o),
(66,485,o),
(53,527,cs),
(45,555,o),
(34,565,o),
(28,588,cs),
(19,623,o),
(-7,675,o),
(19,703,cs),
(38,721,o),
(102,735,o),
(123,719,cs),
(144,703,o),
(139,656,o),
(142,640,cs),
(152,593,o),
(172,550,o),
(183,505,cs),
(204,414,o),
(138,248,o),
(229,223,cs),
(351,188,o),
(343,446,o),
(387,562,cs),
(400,593,o),
(426,661,o),
(461,674,cs),
(523,698,o),
(529,624,o),
(520,593,cs)
);
}
);
width = 417;
},
{
layerId = "B7F60EEF-5018-4FBA-9984-B24EB61DE206";
shapes = (
{
closed = 1;
nodes = (
(353,477,o),
(359,408,o),
(350,343,cs),
(346,309,o),
(348,275,o),
(350,240,cs),
(350,216,o),
(363,175,o),
(347,154,cs),
(297,92,o),
(173,305,o),
(155,332,cs),
(141,356,o),
(132,378,o),
(115,398,cs),
(104,409,o),
(97,412,o),
(88,424,cs),
(75,441,o),
(50,463,o),
(57,484,cs),
(62,498,o),
(94,520,o),
(108,516,cs),
(123,513,o),
(130,486,o),
(135,478,cs),
(152,455,o),
(172,437,o),
(187,414,cs),
(220,370,o),
(222,267,o),
(276,274,cs),
(347,284,o),
(284,420,o),
(281,492,cs),
(280,512,o),
(280,554,o),
(295,569,cs),
(322,597,o),
(342,558,o),
(344,539,cs)
);
}
);
width = 417;
},
{
layerId = "33631C71-1333-4331-8A89-BDCD639A4A27";
shapes = (
{
closed = 1;
nodes = (
(387,559,o),
(377,429,o),
(357,307,c),
(359,280,o),
(339,193,o),
(340,148,c),
(330,100,o),
(340,26,o),
(331,-11,c),
(267,-77,o),
(140,305,o),
(136,358,c),
(120,376,o),
(112,414,o),
(97,484,c),
(88,496,o),
(77,511,o),
(50,516,c),
(50,558,o),
(28,580,o),
(45,629,c),
(32,655,o),
(78,691,o),
(91,690,c),
(119,666,o),
(135,618,o),
(117,608,c),
(150,554,o),
(162,508,o),
(184,476,c),
(210,407,o),
(201,220,o),
(252,234,c),
(359,227,o),
(295,462,o),
(297,593,c),
(312,608,o),
(311,695,o),
(339,735,c),
(370,769,o),
(385,708,o),
(380,666,c)
);
}
);
width = 417;
}
);
unicode = (86,118);
},
{
glyphname = W;
lastChange = "2024-10-09 19:48:59 +0000";
layers = (
{
layerId = m01;
shapes = (
{
closed = 1;
nodes = (
(577,345,o),
(593,304,o),
(585,240,cs),
(580,199,o),
(562,115,o),
(520,97,cs),
(469,75,o),
(416,121,o),
(383,154,cs),
(358,179,o),
(335,202,o),
(318,231,cs),
(306,252,o),
(302,308,o),
(282,308,cs),
(245,308,o),
(276,219,o),
(264,182,cs),
(252,146,o),
(214,136,o),
(180,159,cs),
(113,204,o),
(70,316,o),
(54,389,cs),
(46,425,o),
(13,490,o),
(21,526,cs),
(29,559,o),
(76,568,o),
(102,543,cs),
(131,515,o),
(132,445,o),
(140,409,cs),
(148,377,o),
(156,288,o),
(192,288,cs),
(249,288,o),
(196,413,o),
(204,470,cs),
(208,499,o),
(213,517,o),
(237,526,cs),
(258,533,o),
(285,526,o),
(302,510,cs),
(318,494,o),
(323,445,o),
(330,422,cs),
(339,389,o),
(352,358,o),
(366,328,cs),
(381,297,o),
(394,266,o),
(411,240,cs),
(418,230,o),
(455,179,o),
(468,179,cs),
(501,179,o),
(496,332,o),
(496,357,cs),
(496,413,o),
(499,483,o),
(476,535,cs),
(467,555,o),
(455,569,o),
(471,580,cs),
(488,592,o),
(520,590,o),
(532,584,cs),
(581,558,o),
(581,524,o),
(581,479,cs),
(581,440,o),
(581,413,o),
(579,384,cs)
);
}
);
width = 608;
},
{
layerId = "3EED4E43-93E5-49B5-B4F5-8693E91ADEE2";
shapes = (
{
closed = 1;
nodes = (
(603,253,o),
(607,195,o),
(578,113,cs),
(560,60,o),
(514,-46,o),
(461,-58,cs),
(397,-74,o),
(352,1,o),
(326,53,cs),
(306,93,o),
(287,129,o),
(278,172,cs),
(271,203,o),
(285,278,o),
(262,283,cs),
(220,293,o),
(227,167,o),
(202,122,cs),
(177,78,o),
(132,75,o),
(102,114,cs),
(41,191,o),
(29,351,o),
(33,451,cs),
(36,501,o),
(19,595,o),
(39,640,cs),
(59,682,o),
(114,681,o),
(135,642,cs),
(159,597,o),
(138,504,o),
(136,455,cs),
(134,410,o),
(115,291,o),
(155,281,cs),
(219,266,o),
(199,445,o),
(226,518,cs),
(240,555,o),
(251,577,o),
(280,582,cs),
(306,587,o),
(334,570,o),
(348,545,cs),
(361,519,o),
(351,453,o),
(352,420,cs),
(351,375,o),
(356,331,o),
(362,287,cs),
(369,243,o),
(374,198,o),
(385,160,cs),
(389,144,o),
(414,67,o),
(429,64,cs),
(466,55,o),
(508,258,o),
(516,291,cs),
(534,365,o),
(560,456,o),
(550,531,cs),
(546,560,o),
(537,582,o),
(558,592,cs),
(581,603,o),
(617,591,o),
(627,581,cs),
(675,533,o),
(664,489,o),
(650,429,cs),
(638,378,o),
(629,342,o),
(617,305,cs)
);
}
);
width = 608;
},
{
layerId = "B7F60EEF-5018-4FBA-9984-B24EB61DE206";
shapes = (
{
closed = 1;
nodes = (
(505,298,o),
(512,265,o),
(497,219,cs),
(488,190,o),
(462,131,o),
(427,123,cs),
(385,115,o),
(350,156,o),
(329,185,cs),
(313,208,o),
(298,228,o),
(289,251,cs),
(282,268,o),
(287,310,o),
(272,313,cs),
(243,318,o),
(255,248,o),
(240,223,cs),
(227,198,o),
(196,196,o),
(172,218,cs),
(127,260,o),
(109,349,o),
(106,405,cs),
(105,432,o),
(89,485,o),
(99,510,cs),
(111,534,o),
(148,533,o),
(165,512,cs),
(184,487,o),
(175,434,o),
(176,407,cs),
(178,383,o),
(172,316,o),
(200,311,cs),
(244,303,o),
(220,402,o),
(233,443,cs),
(240,464,o),
(247,476,o),
(267,480,cs),
(284,481,o),
(304,473,o),
(315,458,cs),
(325,444,o),
(322,407,o),
(324,390,cs),
(327,365,o),
(333,339,o),
(340,315,cs),
(347,291,o),
(353,266,o),
(362,244,cs),
(366,236,o),
(389,194,o),
(398,192,cs),
(424,187,o),
(441,300,o),
(444,318,cs),
(452,359,o),
(463,411,o),
(453,452,cs),
(449,468,o),
(442,480,o),
(455,485,cs),
(469,492,o),
(495,486,o),
(503,480,cs),
(537,454,o),
(533,428,o),
(527,396,cs),
(521,367,o),
(518,347,o),
(512,326,cs)
);
}
);
width = 608;
},
{
layerId = "33631C71-1333-4331-8A89-BDCD639A4A27";
shapes = (
{
closed = 1;
nodes = (
(599,339,o),
(632,311,o),
(629,242,c),
(607,227,o),
(604,156,o),
(559,122,c),
(497,117,o),
(443,155,o),
(399,171,c),
(372,192,o),
(323,216,o),
(306,257,c),
(305,254,o),
(306,311,o),
(295,308,c),
(223,320,o),
(264,232,o),
(254,198,c),
(234,179,o),
(208,154,o),
(163,174,c),
(87,231,o),
(38,324,o),
(14,392,c),
(21,424,o),
(-21,462,o),
(-14,489,c),
(-13,518,o),
(46,542,o),
(71,509,c),
(116,500,o),
(99,438,o),
(109,409,cs),
(122,374,o),
(134,294,o),
(180,292,c),
(247,295,o),
(166,399,o),
(203,454,c),
(203,475,o),
(216,499,o),
(217,490,c),
(246,497,o),
(288,502,o),
(286,491,c),
(334,485,o),
(331,441,o),
(323,400,c),
(330,371,o),
(357,349,o),
(388,336,c),
(398,312,o),
(409,275,o),
(416,242,c),
(445,232,o),
(491,198,o),
(499,192,c),
(514,190,o),
(524,343,o),
(538,341,c),
(508,391,o),
(540,458,o),
(504,503,cs),
(483,527,o),
(487,541,o),
(510,536,c),
(507,551,o),
(563,556,o),
(558,537,c),
(610,538,o),
(633,510,o),
(632,447,c),
(614,432,o),
(614,401,o),
(613,389,c)
);
}
);
width = 608;
}
);
unicode = (87,119);
},
{
glyphname = X;
lastChange = "2024-10-09 19:49:01 +0000";
layers = (
{
layerId = m01;
shapes = (
{
closed = 1;
nodes = (
(20,110,o),
(55,147,o),
(81,186,cs),
(108,228,o),
(143,266,o),
(169,308,cs),
(187,336,o),
(219,364,o),
(223,402,cs),
(228,442,o),
(174,478,o),
(145,506,cs),
(128,522,o),
(109,543,o),
(88,559,cs),
(72,571,o),
(49,580,o),
(36,596,cs),
(4,636,o),
(39,662,o),
(77,656,cs),
(125,649,o),
(149,604,o),
(186,575,cs),
(207,559,o),
(223,543,o),
(239,526,cs),
(250,515,o),
(261,478,o),
(275,478,cs),
(329,478,o),
(347,663,o),
(417,640,cs),
(493,614,o),
(406,523,o),
(385,494,cs),
(365,466,o),
(330,434,o),
(340,397,cs),
(347,373,o),
(391,337,o),
(409,312,cs),
(432,280,o),
(450,240,o),
(482,211,cs),
(511,186,o),
(535,179,o),
(518,134,cs),
(491,61,o),
(416,153,o),
(396,186,cs),
(379,214,o),
(303,346,o),
(275,337,cs),
(254,330,o),
(228,264,o),
(218,247,cs),
(196,212,o),
(171,184,o),
(149,150,cs),
(126,116,o),
(104,77,o),
(77,45,cs),
(56,20,o),
(20,13,o),
(20,56,cs)
);
}
);
width = 544;
},
{
layerId = "3EED4E43-93E5-49B5-B4F5-8693E91ADEE2";
shapes = (
{
closed = 1;
nodes = (
(28,1,o),
(62,54,o),
(85,107,cs),
(109,164,o),
(142,217,o),
(165,274,cs),
(181,313,o),
(213,352,o),
(211,401,cs),
(210,451,o),
(140,487,o),
(101,517,cs),
(78,534,o),
(53,558,o),
(26,574,cs),
(5,586,o),
(-23,594,o),
(-41,612,cs),
(-86,656,o),
(-50,694,o),
(-4,693,cs),
(52,693,o),
(88,641,o),
(136,610,cs),
(164,594,o),
(185,577,o),
(207,558,cs),
(221,547,o),
(241,502,o),
(257,504,cs),
(320,513,o),
(307,747,o),
(392,730,cs),
(485,710,o),
(401,583,o),
(382,543,cs),
(363,505,o),
(329,458,o),
(347,414,cs),
(360,385,o),
(418,348,o),
(443,319,cs),
(475,283,o),
(503,236,o),
(545,206,cs),
(583,179,o),
(613,174,o),
(602,116,cs),
(583,19,o),
(479,122,o),
(451,160,cs),
(426,192,o),
(314,344,o),
(283,328,cs),
(259,316,o),
(242,229,o),
(233,206,cs),
(214,159,o),
(190,120,o),
(170,74,cs),
(150,27,o),
(131,-25,o),
(106,-70,cs),
(86,-104,o),
(46,-119,o),
(38,-66,cs)
);
}
);
width = 544;
},
{
layerId = "B7F60EEF-5018-4FBA-9984-B24EB61DE206";
shapes = (
{
closed = 1;
nodes = (
(125,161,o),
(144,189,o),
(156,217,cs),
(169,247,o),
(188,276,o),
(200,306,cs),
(209,326,o),
(227,349,o),
(225,373,cs),
(222,398,o),
(180,412,o),
(155,424,cs),
(141,432,o),
(125,441,o),
(108,447,cs),
(96,453,o),
(78,455,o),
(67,463,cs),
(39,482,o),
(59,503,o),
(86,506,cs),
(122,509,o),
(144,486,o),
(174,473,cs),
(191,467,o),
(205,459,o),
(218,451,cs),
(227,446,o),
(240,426,o),
(250,428,cs),
(287,436,o),
(274,553,o),
(326,550,cs),
(382,546,o),
(334,476,o),
(324,455,cs),
(314,434,o),
(294,409,o),
(306,388,cs),
(315,375,o),
(351,360,o),
(366,347,cs),
(387,331,o),
(406,310,o),
(432,296,cs),
(455,286,o),
(473,285,o),
(467,255,cs),
(459,206,o),
(393,250,o),
(375,268,cs),
(360,282,o),
(288,351,o),
(270,341,cs),
(256,334,o),
(247,289,o),
(243,276,cs),
(232,251,o),
(219,230,o),
(209,206,cs),
(197,181,o),
(188,154,o),
(173,129,cs),
(162,111,o),
(139,100,o),
(133,127,cs)
);
}
);
width = 544;
},
{
layerId = "33631C71-1333-4331-8A89-BDCD639A4A27";
shapes = (
{
closed = 1;
nodes = (
(72,74,o),
(93,125,o),
(123,178,c),
(140,225,o),
(175,247,o),
(178,309,c),
(206,352,o),
(220,357,o),
(226,410,c),
(224,453,o),
(192,493,o),
(160,531,c),
(151,538,o),
(137,579,o),
(128,594,c),
(97,592,o),
(101,614,o),
(78,625,c),
(62,669,o),
(76,700,o),
(119,671,c),
(156,676,o),
(169,643,o),
(204,603,c),
(214,588,o),
(232,573,o),
(246,546,c),
(249,535,o),
(260,502,o),
(282,505,c),
(320,498,o),
(328,688,o),
(397,686,c),
(458,650,o),
(394,556,o),
(365,507,c),
(358,485,o),
(313,460,o),
(337,399,c),
(333,391,o),
(363,325,o),
(375,295,c),
(397,274,o),
(415,216,o),
(448,196,cs),
(474,179,o),
(477,171,o),
(483,107,c),
(461,43,o),
(394,130,o),
(364,162,c),
(356,193,o),
(290,339,o),
(267,324,c),
(264,328,o),
(244,258,o),
(217,231,c),
(209,203,o),
(193,167,o),
(178,123,c),
(164,108,o),
(124,37,o),
(118,3,c),
(96,-14,o),
(67,-11,o),
(59,41,c)
);
}
);
width = 544;
}
);
unicode = (88,120);
},
{
glyphname = Y;
lastChange = "2024-10-09 19:49:04 +0000";
layers = (
{
layerId = m01;
shapes = (
{
closed = 1;
nodes = (
(94,531,o),
(96,490,o),
(114,454,cs),
(120,442,o),
(129,417,o),
(142,410,cs),
(158,401,o),
(166,417,o),
(182,422,cs),
(224,437,o),
(240,398,o),
(268,434,cs),
(292,463,o),
(307,503,o),
(312,540,cs),
(316,572,o),
(332,628,o),
(312,657,cs),
(307,664,o),
(288,665,o),
(284,677,cs),
(276,697,o),
(296,706,o),
(317,706,cs),
(415,706,o),
(405,584,o),
(393,524,cs),
(385,486,o),
(379,453,o),
(366,422,cs),
(351,388,o),
(323,368,o),
(301,341,cs),
(273,307,o),
(292,272,o),
(292,236,cs),
(292,191,o),
(296,142,o),
(284,102,cs),
(276,77,o),
(252,15,o),
(215,25,cs),
(175,35,o),
(204,90,o),
(207,114,cs),
(212,158,o),
(207,203,o),
(203,243,cs),
(199,288,o),
(199,302,o),
(159,317,cs),
(61,354,o),
(13,443,o),
(4,540,cs),
(0,580,o),
(-12,635,o),
(37,641,cs),
(94,647,o),
(94,616,o),
(94,572,cs)
);
}
);
width = 400;
},
{
layerId = "3EED4E43-93E5-49B5-B4F5-8693E91ADEE2";
shapes = (
{
closed = 1;
nodes = (
(107,612,o),
(96,565,o),
(106,518,cs),
(109,503,o),
(112,472,o),
(126,459,cs),
(142,443,o),
(157,459,o),
(178,459,cs),
(234,460,o),
(241,412,o),
(286,442,cs),
(325,466,o),
(357,506,o),
(374,546,cs),
(389,580,o),
(427,638,o),
(412,678,cs),
(409,687,o),
(386,695,o),
(385,709,cs),
(381,735,o),
(409,738,o),
(434,731,cs),
(553,696,o),
(501,563,o),
(467,499,cs),
(445,460,o),
(428,424,o),
(401,395,cs),
(372,361,o),
(332,349,o),
(296,326,cs),
(251,297,o),
(263,251,o),
(252,211,cs),
(237,161,o),
(226,104,o),
(199,64,cs),
(180,38,o),
(131,-23,o),
(89,2,cs),
(44,26,o),
(97,79,o),
(108,104,cs),
(129,151,o),
(137,204,o),
(145,251,cs),
(155,302,o),
(160,318,o),
(116,349,cs),
(9,424,o),
(-21,541,o),
(0,654,cs),
(9,700,o),
(12,766,o),
(73,755,cs),
(145,742,o),
(135,708,o),
(120,658,cs)
);
}
);
width = 400;
},
{
layerId = "B7F60EEF-5018-4FBA-9984-B24EB61DE206";
shapes = (
{
closed = 1;
nodes = (
(165,484,o),
(162,456,o),
(170,431,cs),
(173,422,o),
(177,404,o),
(185,399,cs),
(195,391,o),
(202,400,o),
(214,402,cs),
(245,408,o),
(251,380,o),
(275,401,cs),
(294,417,o),
(309,442,o),
(316,466,cs),
(322,487,o),
(339,522,o),
(328,543,cs),
(326,549,o),
(312,552,o),
(311,560,cs),
(308,574,o),
(322,578,o),
(337,575,cs),
(404,565,o),
(384,485,o),
(370,446,cs),
(360,423,o),
(353,402,o),
(341,382,cs),
(326,361,o),
(305,351,o),
(288,336,cs),
(264,316,o),
(274,291,o),
(270,267,cs),
(265,237,o),
(263,204,o),
(251,179,cs),
(242,164,o),
(219,125,o),
(195,136,cs),
(169,147,o),
(194,180,o),
(199,195,cs),
(207,224,o),
(208,255,o),
(209,282,cs),
(211,312,o),
(212,321,o),
(187,335,cs),
(123,370,o),
(100,435,o),
(104,500,cs),
(106,527,o),
(102,564,o),
(138,563,cs),
(177,561,o),
(174,541,o),
(169,511,cs)
);
}
);
width = 400;
},
{
layerId = "33631C71-1333-4331-8A89-BDCD639A4A27";
shapes = (
{
closed = 1;
nodes = (
(80,497,o),
(64,464,o),
(107,441,c),
(115,444,o),
(107,421,o),
(141,405,c),
(141,403,o),
(164,418,o),
(168,425,c),
(220,431,o),
(249,392,o),
(290,420,c),
(312,439,o),
(310,494,o),
(317,509,c),
(353,557,o),
(356,600,o),
(342,624,c),
(339,638,o),
(312,617,o),
(283,634,c),
(285,655,o),
(328,662,o),
(346,667,c),
(439,673,o),
(452,545,o),
(435,504,c),
(431,480,o),
(425,438,o),
(388,411,c),
(384,396,o),
(356,373,o),
(306,341,c),
(291,317,o),
(290,272,o),
(322,240,c),
(314,223,o),
(328,177,o),
(282,131,c),
(305,103,o),
(257,61,o),
(201,78,cs),
(177,87,o),
(207,128,o),
(215,142,c),
(226,180,o),
(211,224,o),
(220,256,c),
(208,309,o),
(215,300,o),
(136,327,cs),
(46,357,o),
(-28,431,o),
(-16,523,c),
(-25,555,o),
(-55,587,o),
(11,619,c),
(87,605,o),
(93,594,o),
(82,550,c)
);
}
);
width = 400;
}
);
unicode = (89,121);
},
{
glyphname = Z;
lastChange = "2024-10-09 19:49:07 +0000";
layers = (
{
layerId = m01;
shapes = (
{
closed = 1;
nodes = (
(148,301,o),
(481,544,o),
(344,544,cs),
(303,544,o),
(263,552,o),
(222,552,cs),
(177,552,o),
(141,540,o),
(96,540,cs),
(72,540,o),
(32,544,o),
(23,568,cs),
(12,597,o),
(34,619,o),
(60,626,cs),
(140,648,o),
(238,629,o),
(319,626,cs),
(364,624,o),
(505,662,o),
(493,581,cs),
(489,552,o),
(454,531,o),
(436,512,cs),
(409,483,o),
(390,454,o),
(368,422,cs),
(321,353,o),
(268,273,o),
(247,192,cs),
(235,143,o),
(258,143,o),
(299,151,cs),
(344,159,o),
(388,172,o),
(432,176,cs),
(461,179,o),
(632,228,o),
(587,147,cs),
(567,111,o),
(506,108,o),
(469,98,cs),
(425,87,o),
(375,84,o),
(331,70,cs),
(298,60,o),
(242,31,o),
(209,46,cs),
(173,63,o),
(159,122,o),
(157,159,cs)
);
}
);
width = 614;
},
{
layerId = "3EED4E43-93E5-49B5-B4F5-8693E91ADEE2";
shapes = (
{
closed = 1;
nodes = (
(145,266,o),
(477,611,o),
(323,587,cs),
(277,579,o),
(230,582,o),
(183,575,cs),
(132,567,o),
(93,547,o),
(43,539,cs),
(15,535,o),
(-31,531,o),
(-45,558,cs),
(-62,591,o),
(-42,621,o),
(-13,633,cs),
(73,673,o),
(187,669,o),
(279,679,cs),
(331,685,o),
(483,754,o),
(484,657,cs),
(486,622,o),
(450,591,o),
(433,565,cs),
(407,527,o),
(391,489,o),
(372,448,cs),
(331,358,o),
(287,254,o),
(278,156,cs),
(273,95,o),
(299,99,o),
(344,116,cs),
(394,133,o),
(441,157,o),
(489,169,cs),
(523,178,o),
(706,266,o),
(671,162,cs),
(655,116,o),
(586,101,o),
(546,83,cs),
(498,62,o),
(442,51,o),
(395,26,cs),
(360,8,o),
(302,-35,o),
(262,-24,cs),
(218,-10,o),
(191,57,o),
(182,100,cs)
);
}
);
width = 614;
},
{
layerId = "B7F60EEF-5018-4FBA-9984-B24EB61DE206";
shapes = (
{
closed = 1;
nodes = (
(186,294,o),
(382,517,o),
(285,492,cs),
(255,485,o),
(225,484,o),
(196,476,cs),
(164,468,o),
(141,453,o),
(108,445,cs),
(91,441,o),
(61,436,o),
(52,451,cs),
(39,469,o),
(51,487,o),
(68,497,cs),
(121,526,o),
(194,531,o),
(252,543,cs),
(285,550,o),
(379,601,o),
(384,544,cs),
(387,524,o),
(365,504,o),
(356,488,cs),
(341,463,o),
(333,441,o),
(322,415,cs),
(300,360,o),
(276,296,o),
(275,239,cs),
(275,203,o),
(291,207,o),
(319,221,cs),
(350,235,o),
(378,251,o),
(410,261,cs),
(430,268,o),
(544,332,o),
(525,270,cs),
(517,242,o),
(474,229,o),
(449,215,cs),
(419,200,o),
(385,190,o),
(355,172,cs),
(333,159,o),
(299,130,o),
(273,134,cs),
(244,139,o),
(224,176,o),
(216,201,cs)
);
}
);
width = 614;
},
{
layerId = "33631C71-1333-4331-8A89-BDCD639A4A27";
shapes = (
{
closed = 1;
nodes = (
(177,312,o),
(439,555,o),
(334,571,c),
(304,582,o),
(277,575,o),
(251,586,c),
(215,567,o),
(166,558,o),
(136,571,c),
(114,563,o),
(80,582,o),
(89,588,c),
(75,636,o),
(98,646,o),
(107,656,c),
(168,700,o),
(259,651,o),
(317,676,c),
(355,673,o),
(474,689,o),
(466,601,c),
(460,586,o),
(425,549,o),
(423,527,c),
(394,488,o),
(376,477,o),
(368,422,c),
(331,348,o),
(281,279,o),
(260,188,c),
(260,105,o),
(271,103,o),
(313,110,c),
(335,146,o),
(382,155,o),
(405,152,c),
(441,172,o),
(571,221,o),
(535,131,cs),
(517,82,o),
(470,85,o),
(438,57,c),
(393,65,o),
(358,37,o),
(342,23,c),
(298,17,o),
(249,-7,o),
(220,1,c),
(198,31,o),
(183,84,o),
(183,125,cs)
);
}
);
width = 614;
}
);
unicode = (90,122);
},
{
glyphname = zero;
lastChange = "2024-10-09 22:05:41 +0000";
layers = (
{
layerId = m01;
shapes = (
{
closed = 1;
nodes = (
(89,239,o),
(96,195,o),
(137,190,cs),
(166,187,o),
(197,211,o),
(211,231,cs),
(254,292,o),
(263,385,o),
(263,458,cs),
(263,510,o),
(267,506,o),
(227,518,cs),
(198,526,o),
(181,540,o),
(157,510,cs),
(108,450,o),
(89,345,o),
(89,271,cs)
);
},
{
closed = 1;
nodes = (
(267,612,o),
(321,592,o),
(336,534,cs),
(342,510,o),
(336,486,o),
(336,462,cs),
(336,433,o),
(341,405,o),
(341,372,cs),
(341,274,o),
(287,109,o),
(161,109,cs),
(40,109,o),
(7,247,o),
(24,345,cs),
(35,405,o),
(54,468,o),
(85,527,cs),
(106,567,o),
(160,629,o),
(218,620,cs)
);
}
);
width = 361;
},
{
layerId = "3EED4E43-93E5-49B5-B4F5-8693E91ADEE2";
shapes = (
{
closed = 1;
nodes = (
(95,157,o),
(118,108,o),
(170,118,cs),
(207,124,o),
(237,163,o),
(247,193,cs),
(278,279,o),
(257,391,o),
(231,476,cs),
(213,538,o),
(219,533,o),
(167,532,cs),
(128,532,o),
(102,542,o),
(84,499,cs),
(45,411,o),
(58,281,o),
(84,194,cs)
);
},
{
closed = 1;
nodes = (
(182,657,o),
(256,655,o),
(294,591,cs),
(310,566,o),
(311,535,o),
(319,507,cs),
(329,473,o),
(346,443,o),
(357,404,cs),
(392,289,o),
(382,78,o),
(228,32,cs),
(79,-13,o),
(-9,136,o),
(-22,258,cs),
(-29,332,o),
(-28,412,o),
(-10,491,cs),
(1,546,o),
(46,639,o),
(120,649,cs)
);
}
);
width = 361;
},
{
layerId = "B7F60EEF-5018-4FBA-9984-B24EB61DE206";
shapes = (
{
closed = 1;
nodes = (
(119,293,o),
(118,260,o),
(147,250,cs),
(168,244,o),
(194,256,o),
(207,269,cs),
(248,306,o),
(268,371,o),
(278,423,cs),
(286,461,o),
(289,458,o),
(261,472,cs),
(242,482,o),
(231,494,o),
(209,477,cs),
(164,442,o),
(134,369,o),
(123,316,cs)
);
},
{
closed = 1;
nodes = (
(304,533,o),
(342,511,o),
(344,467,cs),
(344,449,o),
(337,433,o),
(333,415,cs),
(329,395,o),
(328,374,o),
(323,350,cs),
(309,280,o),
(244,170,o),
(152,189,cs),
(64,207,o),
(60,311,o),
(87,379,cs),
(104,421,o),
(127,463,o),
(159,500,cs),
(180,525,o),
(229,562,o),
(270,547,cs)
);
}
);
width = 361;
},
{
layerId = "33631C71-1333-4331-8A89-BDCD639A4A27";
shapes = (
{
closed = 1;
nodes = (
(122,220,o),
(116,171,o),
(156,156,c),
(176,167,o),
(204,184,o),
(204,207,c),
(236,285,o),
(246,372,o),
(238,494,c),
(249,547,o),
(236,518,o),
(209,540,c),
(196,571,o),
(178,569,o),
(156,554,c),
(124,467,o),
(116,354,o),
(108,247,c)
);
},
{
closed = 1;
nodes = (
(238,652,o),
(295,631,o),
(297,588,cs),
(303,534,o),
(286,526,o),
(295,477,c),
(284,443,o),
(307,421,o),
(307,386,cs),
(304,246,o),
(249,71,o),
(156,38,c),
(79,53,o),
(54,209,o),
(55,353,c),
(79,396,o),
(85,488,o),
(110,554,c),
(127,614,o),
(159,693,o),
(219,656,c)
);
}
);
width = 361;
}
);
unicode = 48;
},
{
glyphname = one;
lastChange = "2024-10-09 22:05:45 +0000";
layers = (
{
layerId = m01;
shapes = (
{
closed = 1;
nodes = (
(439,171,o),
(450,143,cs),
(465,106,o),
(422,88,o),
(398,82,cs),
(327,64,o),
(256,53,o),
(183,42,cs),
(146,37,o),
(106,26,o),
(78,53,cs),
(50,80,o),
(58,93,o),
(85,111,cs),
(114,130,o),
(154,137,o),
(187,147,cs),
(230,161,o),
(215,177,o),
(204,216,cs),
(183,294,o),
(176,370,o),
(155,447,cs),
(144,487,o),
(125,464,o),
(94,451,cs),
(68,440,o),
(24,451,o),
(20,487,cs),
(16,516,o),
(62,531,o),
(81,544,cs),
(111,564,o),
(110,597,o),
(134,621,cs),
(191,678,o),
(244,613,o),
(244,556,cs),
(244,516,o),
(256,475,o),
(256,439,cs),
(256,431,o),
(252,389,o),
(252,376,cs),
(252,356,o),
(270,314,o),
(276,290,cs),
(286,253,o),
(295,151,o),
(353,151,cs),
(394,151,o)
);
}
);
width = 473;
},
{
layerId = "3EED4E43-93E5-49B5-B4F5-8693E91ADEE2";
shapes = (
{
closed = 1;
nodes = (
(415,58,o),
(416,23,cs),
(418,-23,o),
(360,-22,o),
(329,-18,cs),
(238,-4,o),
(149,18,o),
(58,39,cs),
(12,51,o),
(-40,58,o),
(-61,100,cs),
(-83,141,o),
(-69,151,o),
(-28,158,cs),
(13,165,o),
(64,154,o),
(107,149,cs),
(163,144,o),
(152,168,o),
(155,215,cs),
(163,307,o),
(187,392,o),
(194,483,cs),
(197,531,o),
(166,516,o),
(124,516,cs),
(88,516,o),
(41,549,o),
(51,589,cs),
(59,621,o),
(119,617,o),
(147,621,cs),
(191,628,o),
(203,664,o),
(242,679,cs),
(333,713,o),
(368,619,o),
(344,559,cs),
(328,516,o),
(325,466,o),
(310,428,cs),
(306,420,o),
(284,377,o),
(279,363,cs),
(270,342,o),
(274,289,o),
(272,261,cs),
(268,216,o),
(236,104,o),
(305,77,cs),
(353,58,o)
);
}
);
width = 473;
},
{
layerId = "B7F60EEF-5018-4FBA-9984-B24EB61DE206";
shapes = (
{
closed = 1;
nodes = (
(402,237,o),
(413,218,cs),
(428,193,o),
(401,175,o),
(385,168,cs),
(339,147,o),
(291,131,o),
(242,115,cs),
(218,107,o),
(191,94,o),
(168,111,cs),
(146,127,o),
(150,137,o),
(166,154,cs),
(184,171,o),
(210,180,o),
(232,191,cs),
(260,207,o),
(248,216,o),
(235,243,cs),
(211,298,o),
(198,353,o),
(174,406,cs),
(161,435,o),
(151,416,o),
(131,402,cs),
(115,392,o),
(84,395,o),
(76,421,cs),
(70,441,o),
(100,457,o),
(111,469,cs),
(129,486,o),
(125,511,o),
(138,531,cs),
(171,579,o),
(215,538,o),
(222,496,cs),
(227,467,o),
(240,439,o),
(244,412,cs),
(245,406,o),
(247,375,o),
(249,366,cs),
(251,351,o),
(269,323,o),
(276,306,cs),
(287,280,o),
(305,206,o),
(346,213,cs),
(373,217,o)
);
}
);
width = 473;
},
{
layerId = "33631C71-1333-4331-8A89-BDCD639A4A27";
shapes = (
{
closed = 1;
nodes = (
(477,224,o),
(482,199,c),
(525,167,o),
(458,163,o),
(423,161,c),
(329,152,o),
(267,142,o),
(158,135,c),
(114,117,o),
(67,117,o),
(43,145,c),
(10,161,o),
(31,157,o),
(53,184,c),
(87,192,o),
(139,192,o),
(177,202,c),
(227,222,o),
(213,234,o),
(178,253,c),
(182,310,o),
(151,373,o),
(125,421,c),
(134,441,o),
(110,431,o),
(48,415,c),
(43,414,o),
(-22,427,o),
(-38,439,c),
(-28,461,o),
(18,470,o),
(46,493,c),
(86,514,o),
(66,521,o),
(116,554,c),
(162,579,o),
(247,547,o),
(233,489,c),
(251,466,o),
(251,432,o),
(242,411,c),
(263,398,o),
(243,372,o),
(245,362,c),
(266,359,o),
(274,332,o),
(274,306,c),
(294,280,o),
(313,196,o),
(384,210,c),
(437,204,o)
);
}
);
width = 473;
}
);
unicode = 49;
},
{
glyphname = two;
lastChange = "2024-10-09 22:05:48 +0000";
layers = (
{
layerId = m01;
shapes = (
{
closed = 1;
nodes = (
(294,646,o),
(357,645,o),
(383,588,cs),
(409,531,o),
(378,455,o),
(359,399,cs),
(338,338,o),
(303,285,o),
(274,228,cs),
(254,188,o),
(201,139,o),
(269,135,cs),
(334,131,o),
(399,163,o),
(464,163,cs),
(525,163,o),
(529,131,o),
(476,98,cs),
(436,74,o),
(379,66,o),
(334,58,cs),
(294,50,o),
(201,20,o),
(161,33,cs),
(35,73,o),
(209,285,o),
(237,345,cs),
(258,390,o),
(303,471,o),
(294,523,cs),
(283,588,o),
(213,565,o),
(172,528,cs),
(164,521,o),
(132,487,o),
(127,475,cs),
(116,451,o),
(127,426,o),
(120,406,cs),
(96,338,o),
(30,390,o),
(22,435,cs),
(-1,556,o),
(148,646,o),
(242,646,cs)
);
}
);
width = 533;
},
{
layerId = "3EED4E43-93E5-49B5-B4F5-8693E91ADEE2";
shapes = (
{
closed = 1;
nodes = (
(400,662,o),
(474,641,o),
(488,570,cs),
(502,499,o),
(443,425,o),
(403,369,cs),
(361,308,o),
(304,260,o),
(252,207,cs),
(216,169,o),
(139,131,o),
(219,106,cs),
(295,80,o),
(382,95,o),
(459,75,cs),
(531,55,o),
(527,18,o),
(453,0,cs),
(399,-15,o),
(329,-5,o),
(273,0,cs),
(224,4,o),
(104,0,o),
(60,27,cs),
(-78,112,o),
(192,290,o),
(242,348,cs),
(280,391,o),
(359,466,o),
(363,526,cs),
(369,602,o),
(279,598,o),
(219,571,cs),
(208,565,o),
(159,538,o),
(150,527,cs),
(130,503,o),
(136,473,o),
(122,453,cs),
(73,385,o),
(10,463,o),
(14,516,cs),
(22,656,o),
(226,709,o),
(338,679,cs)
);
}
);
width = 533;
},
{
layerId = "B7F60EEF-5018-4FBA-9984-B24EB61DE206";
shapes = (
{
closed = 1;
nodes = (
(338,529,o),
(378,516,o),
(384,475,cs),
(389,434,o),
(356,390,o),
(333,358,cs),
(309,324,o),
(277,296,o),
(247,265,cs),
(227,243,o),
(183,222,o),
(227,206,cs),
(268,192,o),
(316,200,o),
(357,188,cs),
(396,177,o),
(393,156,o),
(353,145,cs),
(322,137,o),
(284,143,o),
(254,145,cs),
(228,147,o),
(162,146,o),
(139,162,cs),
(66,210,o),
(216,313,o),
(244,347,cs),
(267,371,o),
(311,415,o),
(315,450,cs),
(319,494,o),
(270,492,o),
(237,476,cs),
(231,472,o),
(204,457,o),
(198,450,cs),
(187,437,o),
(189,419,o),
(181,408,cs),
(153,369,o),
(120,414,o),
(124,444,cs),
(131,526,o),
(244,556,o),
(304,539,cs)
);
}
);
width = 533;
},
{
layerId = "33631C71-1333-4331-8A89-BDCD639A4A27";
shapes = (
{
closed = 1;
nodes = (
(279,725,o),
(346,706,o),
(348,633,c),
(376,585,o),
(352,476,o),
(332,430,c),
(315,338,o),
(303,288,o),
(265,187,c),
(268,163,o),
(206,88,o),
(260,72,c),
(330,88,o),
(374,110,o),
(418,130,c),
(480,107,o),
(463,66,o),
(425,35,c),
(408,10,o),
(357,-2,o),
(321,-7,c),
(296,-23,o),
(218,-40,o),
(189,-18,c),
(87,-3,o),
(230,267,o),
(241,336,c),
(267,413,o),
(294,486,o),
(277,578,c),
(285,638,o),
(235,599,o),
(196,568,c),
(200,552,o),
(163,501,o),
(167,513,c),
(160,475,o),
(150,462,o),
(154,408,c),
(146,328,o),
(80,391,o),
(87,467,c),
(63,597,o),
(182,715,o),
(243,700,c)
);
}
);
width = 533;
}
);
unicode = 50;
},
{
glyphname = three;
lastChange = "2024-10-09 22:05:54 +0000";
layers = (
{
layerId = m01;
shapes = (
{
closed = 1;
nodes = (
(413,391,o),
(125,278,o),
(104,384,cs),
(93,436,o),
(287,541,o),
(287,607,cs),
(287,732,o),
(137,517,o),
(68,517,cs),
(-54,517,o),
(91,669,o),
(137,683,cs),
(193,701,o),
(341,724,o),
(380,667,cs),
(410,623,o),
(389,574,o),
(364,533,cs),
(351,510,o),
(279,449,o),
(279,424,cs),
(279,412,o),
(389,388,o),
(405,380,cs),
(461,351,o),
(510,319,o),
(510,246,cs),
(510,88,o),
(299,3,o),
(177,43,cs),
(112,64,o),
(68,119,o),
(89,153,cs),
(109,186,o),
(147,122,o),
(182,112,cs),
(210,104,o),
(247,109,o),
(270,116,cs),
(328,133,o),
(401,186,o),
(405,246,cs)
);
}
);
width = 530;
},
{
layerId = "3EED4E43-93E5-49B5-B4F5-8693E91ADEE2";
shapes = (
{
closed = 1;
nodes = (
(441,435,o),
(125,241,o),
(75,342,cs),
(50,391,o),
(255,553,o),
(240,619,cs),
(210,745,o),
(83,487,o),
(0,467,cs),
(-145,433,o),
(-8,628,o),
(43,654,cs),
(105,688,o),
(276,753,o),
(336,706,cs),
(383,670,o),
(369,614,o),
(349,565,cs),
(340,539,o),
(267,457,o),
(273,432,cs),
(276,419,o),
(413,425,o),
(435,422,cs),
(508,409,o),
(574,389,o),
(591,315,cs),
(629,155,o),
(398,10,o),
(243,17,cs),
(160,20,o),
(95,63,o),
(112,104,cs),
(128,143,o),
(189,88,o),
(233,88,cs),
(268,88,o),
(310,103,o),
(336,117,cs),
(401,150,o),
(476,224,o),
(467,286,cs)
);
}
);
width = 530;
},
{
layerId = "B7F60EEF-5018-4FBA-9984-B24EB61DE206";
shapes = (
{
closed = 1;
nodes = (
(343,407,o),
(187,270,o),
(150,334,cs),
(131,364,o),
(230,475,o),
(214,517,cs),
(186,596,o),
(141,426,o),
(97,410,cs),
(21,383,o),
(77,512,o),
(103,531,cs),
(134,555,o),
(222,604,o),
(259,576,cs),
(288,554,o),
(286,519,o),
(279,487,cs),
(277,470,o),
(246,415,o),
(252,399,cs),
(254,391,o),
(329,400,o),
(341,399,cs),
(382,393,o),
(421,384,o),
(438,337,cs),
(474,236,o),
(360,135,o),
(274,133,cs),
(229,131,o),
(188,156,o),
(194,182,cs),
(199,209,o),
(237,176,o),
(262,178,cs),
(281,179,o),
(303,191,o),
(317,200,cs),
(348,224,o),
(382,275,o),
(372,313,cs)
);
}
);
width = 530;
},
{
layerId = "33631C71-1333-4331-8A89-BDCD639A4A27";
shapes = (
{
closed = 1;
nodes = (
(451,379,o),
(100,299,o),
(78,368,c),
(70,421,o),
(282,505,o),
(302,564,c),
(303,673,o),
(134,485,o),
(35,499,c),
(-97,493,o),
(85,619,o),
(137,635,c),
(185,659,o),
(342,666,o),
(405,624,c),
(416,576,o),
(421,531,o),
(368,509,c),
(353,483,o),
(280,444,o),
(293,410,c),
(295,392,o),
(425,393,o),
(440,369,c),
(476,361,o),
(532,334,o),
(540,261,c),
(545,135,o),
(303,46,o),
(177,94,c),
(81,114,o),
(55,167,o),
(86,184,c),
(98,213,o),
(145,155,o),
(184,155,cs),
(195,154,o),
(260,157,o),
(272,161,c),
(337,158,o),
(412,203,o),
(440,252,c)
);
}
);
width = 530;
}
);
unicode = 51;
},
{
glyphname = four;
lastChange = "2024-10-09 22:06:01 +0000";
layers = (
{
layerId = m01;
shapes = (
{
closed = 1;
nodes = (
(426,327,o),
(435,287,o),
(426,246,cs),
(418,206,o),
(410,132,o),
(390,96,cs),
(377,72,o),
(336,51,o),
(320,88,cs),
(309,112,o),
(329,173,o),
(329,206,cs),
(329,242,o),
(336,283,o),
(333,319,cs),
(329,364,o),
(309,365,o),
(268,359,cs),
(199,349,o),
(119,275,o),
(53,339,cs),
(-3,392,o),
(25,481,o),
(45,546,cs),
(53,574,o),
(54,625,o),
(73,651,cs),
(99,686,o),
(147,672,o),
(158,631,cs),
(167,595,o),
(144,549,o),
(134,513,cs),
(128,492,o),
(102,416,o),
(118,400,cs),
(132,386,o),
(191,424,o),
(203,429,cs),
(223,436,o),
(244,449,o),
(260,449,cs),
(272,449,o),
(301,439,o),
(309,452,cs),
(330,484,o),
(231,653,o),
(345,618,cs),
(389,604,o),
(394,550,o),
(406,513,cs),
(422,465,o),
(426,416,o),
(426,368,cs)
);
}
);
width = 450;
},
{
layerId = "3EED4E43-93E5-49B5-B4F5-8693E91ADEE2";
shapes = (
{
closed = 1;
nodes = (
(433,263,o),
(431,211,o),
(407,162,cs),
(386,114,o),
(352,25,o),
(319,-14,cs),
(295,-40,o),
(242,-55,o),
(236,-4,cs),
(231,29,o),
(273,99,o),
(284,140,cs),
(295,186,o),
(316,234,o),
(324,281,cs),
(334,338,o),
(311,345,o),
(262,349,cs),
(180,357,o),
(65,288,o),
(9,387,cs),
(-37,470,o),
(23,572,o),
(67,648,cs),
(85,680,o),
(102,744,o),
(132,770,cs),
(173,806,o),
(223,775,o),
(223,720,cs),
(222,673,o),
(181,623,o),
(158,580,cs),
(144,556,o),
(90,469,o),
(104,444,cs),
(116,423,o),
(195,453,o),
(211,455,cs),
(235,458,o),
(264,468,o),
(282,464,cs),
(296,460,o),
(326,439,o),
(339,453,cs),
(374,487,o),
(314,727,o),
(434,650,cs),
(480,620,o),
(468,550,o),
(470,500,cs),
(473,436,o),
(461,374,o),
(446,314,cs)
);
}
);
width = 450;
},
{
layerId = "B7F60EEF-5018-4FBA-9984-B24EB61DE206";
shapes = (
{
closed = 1;
nodes = (
(380,312,o),
(382,283,o),
(372,255,cs),
(361,227,o),
(347,176,o),
(329,152,cs),
(316,137,o),
(284,126,o),
(277,155,cs),
(271,173,o),
(291,213,o),
(295,237,cs),
(299,263,o),
(309,291,o),
(310,317,cs),
(312,349,o),
(298,352,o),
(267,352,cs),
(215,352,o),
(148,309,o),
(107,362,cs),
(71,406,o),
(101,466,o),
(123,509,cs),
(132,528,o),
(138,564,o),
(155,580,cs),
(177,602,o),
(212,587,o),
(215,557,cs),
(218,530,o),
(196,500,o),
(185,476,cs),
(178,462,o),
(151,411,o),
(161,398,cs),
(170,387,o),
(218,407,o),
(227,409,cs),
(243,412,o),
(259,419,o),
(271,417,cs),
(280,415,o),
(300,405,o),
(308,413,cs),
(326,434,o),
(272,564,o),
(351,527,cs),
(382,512,o),
(380,473,o),
(385,446,cs),
(392,409,o),
(390,374,o),
(385,341,cs)
);
}
);
width = 450;
},
{
layerId = "33631C71-1333-4331-8A89-BDCD639A4A27";
shapes = (
{
closed = 1;
nodes = (
(377,309,o),
(392,268,o),
(387,221,c),
(369,153,o),
(370,97,o),
(344,20,c),
(347,13,o),
(319,-25,o),
(306,28,c),
(292,49,o),
(295,115,o),
(314,188,c),
(308,220,o),
(310,281,o),
(307,300,c),
(309,365,o),
(286,356,o),
(257,371,c),
(196,360,o),
(133,251,o),
(97,345,c),
(51,386,o),
(56,506,o),
(79,593,c),
(83,624,o),
(79,682,o),
(106,722,c),
(122,759,o),
(155,731,o),
(178,686,c),
(180,652,o),
(156,580,o),
(161,536,c),
(139,509,o),
(123,435,o),
(148,423,c),
(152,405,o),
(197,421,o),
(210,446,c),
(230,444,o),
(235,455,o),
(249,479,c),
(256,469,o),
(274,458,o),
(294,475,c),
(305,506,o),
(238,732,o),
(307,666,c),
(355,663,o),
(362,587,o),
(362,539,c),
(389,472,o),
(376,431,o),
(385,358,c)
);
}
);
width = 450;
}
);
unicode = 52;
},
{
glyphname = five;
lastChange = "2024-10-09 22:06:04 +0000";
layers = (
{
layerId = m01;
shapes = (
{
closed = 1;
nodes = (
(17,545,o),
(24,561,cs),
(42,601,o),
(114,590,o),
(150,594,cs),
(195,598,o),
(239,601,o),
(284,606,cs),
(316,610,o),
(368,625,o),
(393,590,cs),
(405,573,o),
(406,553,o),
(390,536,cs),
(376,521,o),
(373,529,o),
(352,529,cs),
(296,529,o),
(239,525,o),
(183,520,cs),
(138,516,o),
(122,525,o),
(122,476,cs),
(122,455,o),
(119,441,o),
(138,432,cs),
(155,425,o),
(190,434,o),
(211,432,cs),
(284,427,o),
(401,395,o),
(422,310,cs),
(446,212,o),
(349,161,o),
(276,127,cs),
(235,108,o),
(186,91,o),
(142,91,cs),
(118,91,o),
(28,104,o),
(33,144,cs),
(37,172,o),
(122,160,o),
(146,164,cs),
(186,172,o),
(230,187,o),
(268,209,cs),
(299,227,o),
(348,270,o),
(332,310,cs),
(315,351,o),
(244,354,o),
(206,354,cs),
(166,354,o),
(117,323,o),
(77,334,cs),
(23,348,o),
(28,415,o),
(28,455,cs),
(28,491,o)
);
}
);
width = 446;
},
{
layerId = "3EED4E43-93E5-49B5-B4F5-8693E91ADEE2";
shapes = (
{
closed = 1;
nodes = (
(-45,569,o),
(-40,591,cs),
(-27,646,o),
(56,643,o),
(97,654,cs),
(147,668,o),
(197,679,o),
(247,693,cs),
(282,703,o),
(338,731,o),
(374,690,cs),
(391,670,o),
(396,645,o),
(380,620,cs),
(367,598,o),
(363,608,o),
(339,604,cs),
(275,595,o),
(211,580,o),
(149,565,cs),
(98,552,o),
(79,561,o),
(88,497,cs),
(92,471,o),
(90,452,o),
(114,444,cs),
(134,437,o),
(173,454,o),
(197,456,cs),
(281,461,o),
(420,440,o),
(460,334,cs),
(506,211,o),
(405,129,o),
(328,73,cs),
(285,41,o),
(233,11,o),
(183,4,cs),
(156,0,o),
(52,2,o),
(49,54,cs),
(49,90,o),
(148,90,o),
(174,99,cs),
(218,115,o),
(265,142,o),
(304,177,cs),
(336,205,o),
(383,269,o),
(358,319,cs),
(330,368,o),
(250,360,o),
(206,354,cs),
(160,347,o),
(111,300,o),
(63,307,cs),
(-1,315,o),
(-7,403,o),
(-15,455,cs),
(-22,501,o)
);
}
);
width = 446;
},
{
layerId = "B7F60EEF-5018-4FBA-9984-B24EB61DE206";
shapes = (
{
closed = 1;
nodes = (
(60,460,o),
(62,473,cs),
(69,506,o),
(121,507,o),
(145,515,cs),
(176,524,o),
(205,533,o),
(236,542,cs),
(258,550,o),
(291,568,o),
(314,545,cs),
(325,534,o),
(328,519,o),
(320,505,cs),
(312,492,o),
(309,497,o),
(295,494,cs),
(255,487,o),
(217,476,o),
(178,464,cs),
(148,455,o),
(135,460,o),
(143,422,cs),
(146,407,o),
(146,397,o),
(161,392,cs),
(174,390,o),
(196,401,o),
(211,402,cs),
(263,409,o),
(349,401,o),
(376,340,cs),
(407,270,o),
(347,219,o),
(301,184,cs),
(276,163,o),
(245,144,o),
(213,138,cs),
(197,134,o),
(133,132,o),
(130,163,cs),
(129,184,o),
(189,187,o),
(205,193,cs),
(233,205,o),
(261,222,o),
(284,244,cs),
(303,262,o),
(330,301,o),
(313,328,cs),
(296,356,o),
(246,349,o),
(219,344,cs),
(191,338,o),
(162,308,o),
(132,310,cs),
(93,314,o),
(87,364,o),
(81,394,cs),
(76,421,o)
);
}
);
width = 446;
},
{
layerId = "33631C71-1333-4331-8A89-BDCD639A4A27";
shapes = (
{
closed = 1;
nodes = (
(-21,503,o),
(-9,532,c),
(-12,572,o),
(76,546,o),
(129,557,cs),
(181,567,o),
(259,554,o),
(285,557,cs),
(333,560,o),
(404,574,o),
(418,550,c),
(440,542,o),
(441,524,o),
(418,508,c),
(414,484,o),
(393,489,o),
(365,502,c),
(325,492,o),
(226,507,o),
(167,498,c),
(129,494,o),
(86,507,o),
(104,453,c),
(98,430,o),
(113,426,o),
(113,419,c),
(145,406,o),
(176,421,o),
(225,407,c),
(309,423,o),
(430,398,o),
(479,309,c),
(481,234,o),
(366,196,o),
(274,153,c),
(253,147,o),
(170,134,o),
(139,141,c),
(81,120,o),
(-30,152,o),
(-21,178,c),
(-1,189,o),
(113,197,o),
(129,199,c),
(189,200,o),
(233,218,o),
(294,220,c),
(305,257,o),
(385,274,o),
(363,311,c),
(342,355,o),
(247,353,o),
(195,353,c),
(141,342,o),
(81,328,o),
(49,348,c),
(-21,348,o),
(-30,414,o),
(-12,434,c),
(-22,458,o)
);
}
);
width = 446;
}
);
unicode = 53;
},
{
glyphname = six;
lastChange = "2024-10-09 22:06:08 +0000";
layers = (
{
layerId = m01;
shapes = (
{
closed = 1;
nodes = (
(97,167,o),
(113,94,o),
(174,111,cs),
(218,123,o),
(268,176,o),
(295,212,cs),
(304,225,o),
(336,270,o),
(324,282,cs),
(316,290,o),
(259,286,o),
(247,286,cs),
(211,286,o),
(166,294,o),
(130,282,cs),
(97,271,o),
(97,245,o),
(97,212,cs)
);
},
{
closed = 1;
nodes = (
(263,671,o),
(295,659,o),
(295,630,cs),
(295,601,o),
(255,569,o),
(239,549,cs),
(211,513,o),
(189,473,o),
(166,432,cs),
(159,420,o),
(139,399,o),
(130,379,cs),
(124,366,o),
(130,358,o),
(146,358,cs),
(162,358,o),
(198,371,o),
(218,371,cs),
(234,371,o),
(252,371,o),
(268,371,cs),
(309,371,o),
(354,352,o),
(385,322,cs),
(450,261,o),
(369,172,o),
(328,120,cs),
(275,55,o),
(199,4,o),
(121,46,cs),
(41,89,o),
(16,169,o),
(20,253,cs),
(24,347,o),
(70,418,o),
(105,500,cs),
(122,540,o),
(191,691,o),
(247,675,cs)
);
}
);
width = 429;
},
{
layerId = "3EED4E43-93E5-49B5-B4F5-8693E91ADEE2";
shapes = (
{
closed = 1;
nodes = (
(40,158,o),
(47,71,o),
(124,79,cs),
(180,85,o),
(249,137,o),
(288,173,cs),
(301,186,o),
(348,233,o),
(336,249,cs),
(328,259,o),
(258,265,o),
(243,267,cs),
(200,274,o),
(147,292,o),
(101,285,cs),
(59,279,o),
(54,248,o),
(48,210,cs)
);
},
{
closed = 1;
nodes = (
(332,710,o),
(368,690,o),
(363,657,cs),
(358,623,o),
(304,594,o),
(280,573,cs),
(240,537,o),
(207,495,o),
(171,451,cs),
(160,439,o),
(133,419,o),
(119,397,cs),
(109,383,o),
(115,373,o),
(134,370,cs),
(153,367,o),
(199,375,o),
(224,371,cs),
(243,369,o),
(264,365,o),
(284,362,cs),
(334,354,o),
(385,324,o),
(417,284,cs),
(485,201,o),
(371,113,o),
(311,60,cs),
(236,-5,o),
(134,-50,o),
(48,14,cs),
(-41,79,o),
(-57,176,o),
(-37,272,cs),
(-16,380,o),
(52,454,o),
(110,542,cs),
(138,585,o),
(248,746,o),
(313,718,cs)
);
}
);
width = 429;
},
{
layerId = "B7F60EEF-5018-4FBA-9984-B24EB61DE206";
shapes = (
{
closed = 1;
nodes = (
(118,255,o),
(114,203,o),
(156,203,cs),
(187,202,o),
(231,228,o),
(256,246,cs),
(264,253,o),
(295,277,o),
(288,288,cs),
(285,295,o),
(247,303,o),
(239,305,cs),
(216,312,o),
(188,327,o),
(163,325,cs),
(139,325,o),
(133,307,o),
(127,285,cs)
);
},
{
closed = 1;
nodes = (
(327,560,o),
(346,546,o),
(340,527,cs),
(334,507,o),
(301,494,o),
(288,483,cs),
(262,465,o),
(240,442,o),
(216,419,cs),
(209,413,o),
(192,402,o),
(183,391,cs),
(175,383,o),
(178,376,o),
(188,373,cs),
(198,370,o),
(225,372,o),
(238,369,cs),
(248,366,o),
(260,362,o),
(270,359,cs),
(297,351,o),
(323,328,o),
(337,302,cs),
(367,249,o),
(296,205,o),
(259,179,cs),
(211,146,o),
(151,126,o),
(109,169,cs),
(66,214,o),
(65,272,o),
(85,328,cs),
(106,390,o),
(151,428,o),
(191,477,cs),
(209,500,o),
(285,587,o),
(318,566,cs)
);
}
);
width = 429;
},
{
layerId = "33631C71-1333-4331-8A89-BDCD639A4A27";
shapes = (
{
closed = 1;
nodes = (
(122,150,o),
(123,66,o),
(193,94,c),
(228,91,o),
(272,147,o),
(292,180,c),
(297,214,o),
(308,264,o),
(311,262,c),
(295,289,o),
(248,287,o),
(242,273,c),
(226,263,o),
(174,295,o),
(142,276,cs),
(128,267,o),
(109,244,o),
(114,209,cs)
);
},
{
closed = 1;
nodes = (
(270,709,o),
(282,699,o),
(288,658,c),
(276,615,o),
(258,578,o),
(230,563,c),
(208,530,o),
(200,487,o),
(164,446,c),
(168,423,o),
(164,389,o),
(142,399,c),
(142,372,o),
(143,357,o),
(148,348,c),
(178,359,o),
(197,370,o),
(216,390,c),
(244,368,o),
(258,380,o),
(264,367,c),
(293,360,o),
(339,368,o),
(358,331,c),
(406,258,o),
(339,167,o),
(320,99,c),
(266,26,o),
(212,-36,o),
(131,0,c),
(63,54,o),
(44,164,o),
(43,242,c),
(57,335,o),
(100,411,o),
(130,514,c),
(150,555,o),
(189,738,o),
(256,695,c)
);
}
);
width = 429;
}
);
unicode = 54;
},
{
glyphname = seven;
lastChange = "2024-10-09 22:06:12 +0000";
layers = (
{
layerId = m01;
shapes = (
{
closed = 1;
nodes = (
(98,618,o),
(45,591,o),
(23,655,cs),
(12,688,o),
(39,707,o),
(68,707,cs),
(88,707,o),
(104,699,o),
(124,699,cs),
(140,699,o),
(149,698,o),
(169,695,cs),
(205,690,o),
(241,691,o),
(282,691,cs),
(311,691,o),
(334,695,o),
(359,695,cs),
(387,695,o),
(419,675,o),
(419,642,cs),
(419,614,o),
(389,580,o),
(379,553,cs),
(349,475,o),
(317,407,o),
(298,326,cs),
(281,250,o),
(264,172,o),
(246,95,cs),
(239,66,o),
(233,-17,o),
(189,-2,cs),
(128,19,o),
(160,160,o),
(172,205,cs),
(192,282,o),
(212,358,o),
(233,435,cs),
(245,480,o),
(263,516,o),
(278,557,cs),
(295,606,o),
(263,603,o),
(243,601,cs),
(207,597,o),
(176,618,o),
(128,618,cs)
);
}
);
width = 439;
},
{
layerId = "3EED4E43-93E5-49B5-B4F5-8693E91ADEE2";
shapes = (
{
closed = 1;
nodes = (
(11,624,o),
(-52,585,o),
(-90,653,cs),
(-109,687,o),
(-78,714,o),
(-41,719,cs),
(-15,722,o),
(7,716,o),
(31,720,cs),
(52,723,o),
(64,722,o),
(91,723,cs),
(137,723,o),
(182,732,o),
(235,739,cs),
(272,744,o),
(301,752,o),
(333,756,cs),
(369,761,o),
(413,745,o),
(418,708,cs),
(422,677,o),
(389,634,o),
(380,601,cs),
(354,509,o),
(323,428,o),
(312,335,cs),
(302,246,o),
(292,156,o),
(281,68,cs),
(277,34,o),
(281,-59,o),
(223,-51,cs),
(142,-38,o),
(161,125,o),
(169,177,cs),
(183,266,o),
(197,355,o),
(212,444,cs),
(221,497,o),
(238,540,o),
(250,589,cs),
(265,646,o),
(225,636,o),
(199,631,cs),
(154,621,o),
(111,638,o),
(50,629,cs)
);
}
);
width = 439;
},
{
layerId = "B7F60EEF-5018-4FBA-9984-B24EB61DE206";
shapes = (
{
closed = 1;
nodes = (
(129,485,o),
(101,462,o),
(79,497,cs),
(69,516,o),
(83,530,o),
(100,533,cs),
(112,536,o),
(122,534,o),
(133,536,cs),
(143,538,o),
(149,538,o),
(161,539,cs),
(183,540,o),
(204,546,o),
(228,551,cs),
(245,554,o),
(258,559,o),
(273,562,cs),
(290,565,o),
(312,558,o),
(316,538,cs),
(319,522,o),
(306,498,o),
(303,480,cs),
(294,431,o),
(284,387,o),
(283,336,cs),
(282,290,o),
(282,241,o),
(280,194,cs),
(280,175,o),
(286,126,o),
(259,129,cs),
(220,134,o),
(221,221,o),
(223,249,cs),
(226,298,o),
(228,345,o),
(231,393,cs),
(233,421,o),
(238,444,o),
(243,471,cs),
(247,501,o),
(227,496,o),
(216,492,cs),
(196,486,o),
(175,495,o),
(146,489,cs)
);
}
);
width = 439;
},
{
layerId = "33631C71-1333-4331-8A89-BDCD639A4A27";
shapes = (
{
closed = 1;
nodes = (
(73,567,o),
(18,557,o),
(7,592,c),
(-23,640,o),
(15,654,o),
(61,654,c),
(62,645,o),
(96,627,o),
(117,627,c),
(124,626,o),
(151,639,o),
(175,629,c),
(188,628,o),
(253,640,o),
(295,626,c),
(312,630,o),
(352,632,o),
(363,639,c),
(421,626,o),
(456,623,o),
(433,580,c),
(437,579,o),
(397,533,o),
(385,528,c),
(353,463,o),
(328,407,o),
(302,330,c),
(303,267,o),
(280,200,o),
(241,129,c),
(246,108,o),
(218,43,o),
(193,71,c),
(124,80,o),
(169,183,o),
(168,220,c),
(195,295,o),
(218,351,o),
(248,428,c),
(234,460,o),
(264,477,o),
(298,518,c),
(316,557,o),
(279,562,o),
(247,562,c),
(203,547,o),
(165,567,o),
(113,565,c)
);
}
);
width = 439;
}
);
unicode = 55;
},
{
glyphname = eight;
lastChange = "2024-10-09 22:06:15 +0000";
layers = (
{
layerId = m01;
shapes = (
{
closed = 1;
nodes = (
(237,597,o),
(109,591,o),
(109,546,cs),
(109,533,o),
(138,497,o),
(154,497,cs),
(162,497,o),
(186,546,o),
(194,554,cs)
);
},
{
closed = 1;
nodes = (
(194,128,o),
(226,100,o),
(263,116,cs),
(291,128,o),
(324,157,o),
(340,186,cs),
(381,258,o),
(258,339,o),
(198,339,cs),
(136,339,o),
(194,230,o),
(194,170,cs)
);
},
{
closed = 1;
nodes = (
(195,676,o),
(325,640,o),
(287,550,cs),
(272,514,o),
(200,463,o),
(239,416,cs),
(265,385,o),
(320,372,o),
(356,348,cs),
(389,327,o),
(417,303,o),
(433,267,cs),
(466,190,o),
(432,126,o),
(369,76,cs),
(303,25,o),
(227,7,o),
(162,72,cs),
(97,137,o),
(92,234,o),
(101,319,cs),
(103,339,o),
(105,355,o),
(109,375,cs),
(114,404,o),
(112,403,o),
(93,424,cs),
(67,452,o),
(36,481,o),
(23,521,cs),
(3,586,o),
(73,676,o),
(142,676,cs)
);
}
);
width = 466;
},
{
layerId = "3EED4E43-93E5-49B5-B4F5-8693E91ADEE2";
shapes = (
{
closed = 1;
nodes = (
(350,591,o),
(192,646,o),
(174,598,cs),
(168,584,o),
(189,533,o),
(209,526,cs),
(218,522,o),
(267,562,o),
(280,567,cs)
);
},
{
closed = 1;
nodes = (
(108,120,o),
(135,75,o),
(187,74,cs),
(226,74,o),
(277,89,o),
(309,112,cs),
(387,168,o),
(271,311,o),
(198,339,cs),
(122,368,o),
(149,226,o),
(125,164,cs)
);
},
{
closed = 1;
nodes = (
(331,694,o),
(474,596,o),
(392,518,cs),
(358,488,o),
(251,469,o),
(279,401,cs),
(298,356,o),
(360,316,o),
(394,274,cs),
(424,237,o),
(449,198,o),
(454,153,cs),
(463,57,o),
(395,6,o),
(299,-17,cs),
(199,-40,o),
(99,-24,o),
(46,76,cs),
(-6,174,o),
(27,279,o),
(72,363,cs),
(82,384,o),
(92,399,o),
(105,419,cs),
(123,446,o),
(119,446,o),
(105,478,cs),
(85,519,o),
(59,564,o),
(59,612,cs),
(61,690,o),
(182,751,o),
(266,719,cs)
);
}
);
width = 466;
},
{
layerId = "B7F60EEF-5018-4FBA-9984-B24EB61DE206";
shapes = (
{
closed = 1;
nodes = (
(289,510,o),
(179,538,o),
(171,509,cs),
(169,502,o),
(186,470,o),
(200,466,cs),
(206,464,o),
(236,490,o),
(244,494,cs)
);
},
{
closed = 1;
nodes = (
(163,220,o),
(185,193,o),
(219,194,cs),
(245,195,o),
(279,205,o),
(297,219,cs),
(346,256,o),
(258,339,o),
(207,354,cs),
(154,369,o),
(182,285,o),
(171,247,cs)
);
},
{
closed = 1;
nodes = (
(269,572,o),
(372,515,o),
(322,468,cs),
(303,448,o),
(233,433,o),
(256,393,cs),
(272,367,o),
(317,344,o),
(342,320,cs),
(366,298,o),
(385,276,o),
(392,249,cs),
(405,191,o),
(364,158,o),
(302,142,cs),
(236,125,o),
(167,133,o),
(125,191,cs),
(83,250,o),
(97,313,o),
(121,366,cs),
(126,378,o),
(131,388,o),
(138,399,cs),
(149,417,o),
(146,417,o),
(134,435,cs),
(117,460,o),
(97,486,o),
(93,515,cs),
(89,562,o),
(166,603,o),
(224,586,cs)
);
}
);
width = 466;
},
{
layerId = "33631C71-1333-4331-8A89-BDCD639A4A27";
shapes = (
{
closed = 1;
nodes = (
(247,625,o),
(131,620,o),
(138,585,c),
(124,552,o),
(150,527,o),
(173,523,c),
(177,508,o),
(188,589,o),
(212,580,c)
);
},
{
closed = 1;
nodes = (
(202,81,o),
(238,51,o),
(249,70,c),
(279,103,o),
(313,129,o),
(320,166,c),
(368,235,o),
(268,329,o),
(197,339,c),
(153,356,o),
(208,202,o),
(200,143,c)
);
},
{
closed = 1;
nodes = (
(196,749,o),
(318,709,o),
(286,572,c),
(265,558,o),
(203,468,o),
(252,429,c),
(248,409,o),
(314,379,o),
(348,340,c),
(359,340,o),
(402,296,o),
(401,269,c),
(433,164,o),
(408,79,o),
(360,21,c),
(305,-33,o),
(225,-66,o),
(184,32,c),
(106,106,o),
(103,206,o),
(125,306,c),
(118,337,o),
(109,361,o),
(128,398,cs),
(135,413,o),
(131,425,o),
(99,432,c),
(85,455,o),
(66,521,o),
(55,561,cs),
(36,632,o),
(95,748,o),
(147,721,c)
);
}
);
width = 466;
}
);
unicode = 56;
},
{
glyphname = nine;
lastChange = "2024-10-09 22:06:19 +0000";
layers = (
{
layerId = m01;
shapes = (
{
closed = 1;
nodes = (
(152,615,o),
(131,542,o),
(123,505,cs),
(111,453,o),
(119,384,o),
(188,375,cs),
(212,372,o),
(249,384,o),
(265,400,cs),
(285,420,o),
(282,456,o),
(282,481,cs),
(282,534,o),
(269,615,o),
(201,615,cs)
);
},
{
closed = 1;
nodes = (
(386,534,o),
(395,489,o),
(395,445,cs),
(395,396,o),
(379,352,o),
(386,303,cs),
(399,218,o),
(414,121,o),
(406,35,cs),
(402,-9,o),
(386,-21,o),
(350,3,cs),
(318,24,o),
(319,47,o),
(314,84,cs),
(310,116,o),
(302,283,o),
(277,291,cs),
(269,294,o),
(244,278,o),
(233,278,cs),
(217,278,o),
(189,280,o),
(176,283,cs),
(136,293,o),
(100,312,o),
(71,343,cs),
(14,404,o),
(10,481,o),
(34,558,cs),
(42,586,o),
(66,635,o),
(82,660,cs),
(103,692,o),
(143,712,o),
(179,712,cs),
(237,712,o),
(386,649,o),
(386,575,cs)
);
}
);
width = 428;
},
{
layerId = "3EED4E43-93E5-49B5-B4F5-8693E91ADEE2";
shapes = (
{
closed = 1;
nodes = (
(100,617,o),
(86,537,o),
(83,497,cs),
(76,442,o),
(97,371,o),
(180,375,cs),
(210,376,o),
(251,395,o),
(268,415,cs),
(289,439,o),
(279,476,o),
(275,502,cs),
(267,557,o),
(238,639,o),
(158,626,cs)
);
},
{
closed = 1;
nodes = (
(390,576,o),
(408,531,o),
(415,485,cs),
(423,434,o),
(411,386,o),
(427,336,cs),
(456,250,o),
(490,152,o),
(493,62,cs),
(496,14,o),
(479,0,o),
(432,18,cs),
(390,34,o),
(388,58,o),
(376,95,cs),
(367,128,o),
(330,300,o),
(299,304,cs),
(289,305,o),
(262,284,o),
(249,282,cs),
(230,279,o),
(197,276,o),
(181,277,cs),
(131,280,o),
(86,293,o),
(46,320,cs),
(-31,373,o),
(-48,452,o),
(-32,537,cs),
(-27,567,o),
(-6,622,o),
(10,651,cs),
(29,688,o),
(73,716,o),
(116,723,cs),
(185,734,o),
(372,695,o),
(384,618,cs)
);
}
);
width = 428;
},
{
layerId = "B7F60EEF-5018-4FBA-9984-B24EB61DE206";
shapes = (
{
closed = 1;
nodes = (
(136,484,o),
(134,436,o),
(134,412,cs),
(135,379,o),
(153,338,o),
(203,347,cs),
(220,350,o),
(244,364,o),
(252,377,cs),
(262,394,o),
(254,415,o),
(250,430,cs),
(241,461,o),
(218,508,o),
(170,494,cs)
);
},
{
closed = 1;
nodes = (
(314,482,o),
(327,457,o),
(335,431,cs),
(343,401,o),
(340,372,o),
(354,344,cs),
(377,295,o),
(404,240,o),
(414,187,cs),
(419,159,o),
(410,149,o),
(381,156,cs),
(354,162,o),
(351,176,o),
(341,197,cs),
(332,216,o),
(299,315,o),
(279,314,cs),
(274,315,o),
(258,300,o),
(250,298,cs),
(240,295,o),
(219,290,o),
(210,289,cs),
(181,287,o),
(152,291,o),
(127,305,cs),
(76,329,o),
(60,375,o),
(63,426,cs),
(64,445,o),
(72,479,o),
(79,497,cs),
(88,520,o),
(112,541,o),
(137,548,cs),
(178,560,o),
(294,552,o),
(306,507,cs)
);
}
);
width = 428;
},
{
layerId = "33631C71-1333-4331-8A89-BDCD639A4A27";
shapes = (
{
closed = 1;
nodes = (
(154,567,o),
(106,506,o),
(117,470,c),
(92,422,o),
(89,365,o),
(199,368,c),
(225,358,o),
(259,382,o),
(275,393,cs),
(288,403,o),
(288,441,o),
(292,464,c),
(306,487,o),
(264,563,o),
(190,563,c)
);
},
{
closed = 1;
nodes = (
(415,493,o),
(427,453,o),
(431,417,c),
(425,382,o),
(419,354,o),
(434,324,c),
(434,247,o),
(448,160,o),
(447,105,cs),
(444,60,o),
(406,67,o),
(377,86,cs),
(354,103,o),
(338,112,o),
(349,141,c),
(340,173,o),
(306,293,o),
(293,293,cs),
(274,294,o),
(267,289,o),
(235,282,c),
(225,302,o),
(199,303,o),
(155,286,c),
(112,312,o),
(75,322,o),
(32,341,c),
(-25,400,o),
(-25,444,o),
(-20,514,c),
(2,539,o),
(38,564,o),
(63,604,c),
(64,620,o),
(129,629,o),
(155,625,c),
(258,624,o),
(426,574,o),
(438,531,c)
);
}
);
width = 428;
}
);
unicode = 57;
},
{
glyphname = period;
lastChange = "2024-10-09 22:34:15 +0000";
layers = (
{
layerId = m01;
shapes = (
{
closed = 1;
nodes = (
(7,5,o),
(21,133,o),
(119,123,cs),
(208,113,o),
(189,5,o),
(115,5,cs)
);
}
);
width = 218;
},
{
layerId = "3EED4E43-93E5-49B5-B4F5-8693E91ADEE2";
shapes = (
{
closed = 1;
nodes = (
(-52,-4,o),
(29,198,o),
(150,143,cs),
(260,92,o),
(183,-76,o),
(88,-47,cs)
);
}
);
width = 218;
},
{
layerId = "B7F60EEF-5018-4FBA-9984-B24EB61DE206";
shapes = (
{
closed = 1;
nodes = (
(48,-16,o),
(35,69,o),
(107,82,cs),
(172,93,o),
(178,20,o),
(125,5,cs)
);
}
);
width = 218;
},
{
layerId = "33631C71-1333-4331-8A89-BDCD639A4A27";
shapes = (
{
closed = 1;
nodes = (
(-5,12,o),
(-21,86,o),
(130,96,c),
(227,76,o),
(225,-1,o),
(100,-2,c)
);
}
);
width = 218;
}
);
unicode = 46;
},
{
glyphname = comma;
lastChange = "2024-10-09 22:34:12 +0000";
layers = (
{
layerId = m01;
shapes = (
{
closed = 1;
nodes = (
(119,-5,o),
(102,30,o),
(81,51,cs),
(60,72,o),
(28,87,o),
(45,118,cs),
(60,147,o),
(107,149,o),
(129,134,cs),
(175,102,o),
(199,70,o),
(212,31,cs),
(222,1,o),
(221,-33,o),
(215,-64,cs),
(209,-112,o),
(188,-186,o),
(140,-208,cs),
(60,-249,o),
(119,-69,o),
(119,-37,cs)
);
}
);
width = 260;
},
{
layerId = "3EED4E43-93E5-49B5-B4F5-8693E91ADEE2";
shapes = (
{
closed = 1;
nodes = (
(143,-17,o),
(115,22,o),
(85,43,cs),
(55,63,o),
(13,74,o),
(26,117,cs),
(37,156,o),
(91,169,o),
(120,156,cs),
(182,128,o),
(219,94,o),
(243,49,cs),
(262,14,o),
(270,-28,o),
(271,-68,cs),
(276,-128,o),
(269,-224,o),
(218,-262,cs),
(135,-332,o),
(159,-96,o),
(151,-57,cs)
);
}
);
width = 260;
},
{
layerId = "B7F60EEF-5018-4FBA-9984-B24EB61DE206";
shapes = (
{
closed = 1;
nodes = (
(115,-1,o),
(107,25,o),
(95,43,cs),
(82,59,o),
(61,75,o),
(78,93,cs),
(91,112,o),
(125,107,o),
(139,93,cs),
(167,66,o),
(181,41,o),
(185,12,cs),
(189,-10,o),
(184,-33,o),
(175,-53,cs),
(165,-86,o),
(142,-135,o),
(104,-144,cs),
(42,-161,o),
(107,-45,o),
(111,-22,cs)
);
}
);
width = 260;
},
{
layerId = "33631C71-1333-4331-8A89-BDCD639A4A27";
shapes = (
{
closed = 1;
nodes = (
(130,-13,o),
(105,34,o),
(97,57,c),
(73,92,o),
(55,106,o),
(62,148,c),
(75,181,o),
(120,181,o),
(128,153,c),
(162,102,o),
(175,93,o),
(190,43,c),
(200,20,o),
(210,-44,o),
(193,-61,c),
(204,-111,o),
(186,-203,o),
(145,-243,c),
(77,-262,o),
(132,-70,o),
(131,-38,cs)
);
}
);
width = 260;
}
);
unicode = 44;
},
{
glyphname = colon;
lastChange = "2024-10-09 22:34:27 +0000";
layers = (
{
layerId = m01;
shapes = (
{
closed = 1;
nodes = (
(79,8,o),
(40,7,o),
(40,45,cs),
(40,70,o),
(83,101,o),
(108,104,cs),
(179,114,o),
(183,49,o),
(149,12,cs),
(140,1,o),
(123,0,o),
(93,6,cs)
);
},
{
closed = 1;
nodes = (
(205,311,o),
(162,293,o),
(136,290,cs),
(108,285,o),
(64,309,o),
(78,353,cs),
(98,410,o),
(205,403,o),
(205,341,cs)
);
}
);
width = 245;
},
{
layerId = "3EED4E43-93E5-49B5-B4F5-8693E91ADEE2";
shapes = (
{
closed = 1;
nodes = (
(67,-11,o),
(22,-8,o),
(27,43,cs),
(31,76,o),
(85,110,o),
(115,111,cs),
(199,116,o),
(195,30,o),
(150,-14,cs),
(138,-28,o),
(118,-27,o),
(84,-15,cs)
);
},
{
closed = 1;
nodes = (
(257,372,o),
(204,353,o),
(173,352,cs),
(140,349,o),
(91,386,o),
(113,442,cs),
(145,514,o),
(269,492,o),
(261,410,cs)
);
}
);
width = 245;
},
{
layerId = "B7F60EEF-5018-4FBA-9984-B24EB61DE206";
shapes = (
{
closed = 1;
nodes = (
(106,0,o),
(80,-5,o),
(76,29,cs),
(72,51,o),
(95,83,o),
(113,88,cs),
(156,104,o),
(168,46,o),
(151,10,cs),
(146,0,o),
(135,-2,o),
(115,-1,cs)
);
},
{
closed = 1;
nodes = (
(147,281,o),
(122,260,o),
(105,255,cs),
(88,247,o),
(56,264,o),
(59,304,cs),
(64,357,o),
(135,362,o),
(143,307,cs)
);
}
);
width = 245;
},
{
layerId = "33631C71-1333-4331-8A89-BDCD639A4A27";
shapes = (
{
closed = 1;
nodes = (
(74,-6,o),
(-4,2,o),
(6,46,c),
(28,53,o),
(69,84,o),
(117,82,c),
(180,99,o),
(222,40,o),
(180,-1,c),
(129,-5,o),
(120,-3,o),
(84,18,c)
);
},
{
closed = 1;
nodes = (
(220,282,o),
(181,254,o),
(162,259,c),
(116,245,o),
(52,272,o),
(41,311,c),
(77,368,o),
(227,353,o),
(246,305,c)
);
}
);
width = 245;
}
);
unicode = 58;
},
{
glyphname = semicolon;
lastChange = "2024-10-09 22:34:23 +0000";
layers = (
{
layerId = m01;
shapes = (
{
closed = 1;
nodes = (
(118,-108,o),
(190,-69,o),
(137,20,cs),
(118,54,o),
(83,94,o),
(137,121,cs),
(173,140,o),
(205,104,o),
(223,73,cs),
(261,11,o),
(277,-56,o),
(246,-125,cs),
(236,-149,o),
(118,-275,o),
(118,-198,cs)
);
},
{
closed = 1;
nodes = (
(40,361,o),
(134,388,o),
(145,316,cs),
(154,252,o),
(40,266,o),
(40,311,cs)
);
}
);
width = 302;
},
{
layerId = "3EED4E43-93E5-49B5-B4F5-8693E91ADEE2";
shapes = (
{
closed = 1;
nodes = (
(137,-135,o),
(214,-84,o),
(148,15,cs),
(123,53,o),
(80,96,o),
(139,133,cs),
(177,158,o),
(216,118,o),
(239,84,cs),
(287,15,o),
(311,-62,o),
(282,-144,cs),
(273,-173,o),
(152,-330,o),
(145,-240,cs)
);
},
{
closed = 1;
nodes = (
(8,403,o),
(111,442,o),
(131,360,cs),
(146,286,o),
(16,293,o),
(12,345,cs)
);
}
);
width = 302;
},
{
layerId = "B7F60EEF-5018-4FBA-9984-B24EB61DE206";
shapes = (
{
closed = 1;
nodes = (
(92,-72,o),
(149,-56,o),
(141,30,cs),
(138,64,o),
(127,104,o),
(170,115,cs),
(197,123,o),
(208,86,o),
(210,56,cs),
(218,-4,o),
(208,-63,o),
(169,-115,cs),
(156,-131,o),
(44,-213,o),
(66,-148,cs)
);
},
{
closed = 1;
nodes = (
(175,337,o),
(244,339,o),
(229,276,cs),
(218,220,o),
(148,258,o),
(161,295,cs)
);
}
);
width = 302;
},
{
layerId = "33631C71-1333-4331-8A89-BDCD639A4A27";
shapes = (
{
closed = 1;
nodes = (
(118,-116,o),
(173,-96,o),
(136,30,c),
(119,43,o),
(92,88,o),
(134,122,c),
(172,144,o),
(180,106,o),
(207,69,c),
(239,-3,o),
(237,-82,o),
(215,-156,c),
(209,-164,o),
(115,-315,o),
(122,-217,c)
);
},
{
closed = 1;
nodes = (
(60,380,o),
(142,410,o),
(142,331,c),
(154,278,o),
(73,304,o),
(73,327,c)
);
}
);
width = 302;
}
);
unicode = 59;
},
{
glyphname = exclam;
lastChange = "2024-10-09 22:34:31 +0000";
layers = (
{
layerId = m01;
shapes = (
{
closed = 1;
nodes = (
(60,469,o),
(46,514,o),
(46,554,cs),
(46,585,o),
(29,647,o),
(51,674,cs),
(110,745,o),
(128,585,o),
(128,559,cs),
(128,486,o),
(145,393,o),
(119,327,cs),
(82,243,o),
(60,398,o),
(60,429,cs)
);
},
{
closed = 1;
nodes = (
(91,122,o),
(201,90,o),
(175,20,cs),
(157,-34,o),
(91,11,o),
(91,55,cs)
);
}
);
width = 219;
},
{
layerId = "3EED4E43-93E5-49B5-B4F5-8693E91ADEE2";
shapes = (
{
closed = 1;
nodes = (
(130,552,o),
(122,608,o),
(129,656,cs),
(135,693,o),
(127,770,o),
(158,799,cs),
(241,872,o),
(232,678,o),
(227,646,cs),
(213,559,o),
(215,445,o),
(172,371,cs),
(112,278,o),
(116,467,o),
(122,504,cs)
);
},
{
closed = 1;
nodes = (
(100,132,o),
(222,73,o),
(178,-5,cs),
(147,-67,o),
(79,-1,o),
(87,52,cs)
);
}
);
width = 219;
},
{
layerId = "B7F60EEF-5018-4FBA-9984-B24EB61DE206";
shapes = (
{
closed = 1;
nodes = (
(144,422,o),
(141,463,o),
(146,498,cs),
(150,526,o),
(147,582,o),
(165,604,cs),
(214,661,o),
(205,518,o),
(201,494,cs),
(192,430,o),
(190,345,o),
(164,289,cs),
(129,219,o),
(134,358,o),
(139,386,cs)
);
},
{
closed = 1;
nodes = (
(118,110,o),
(187,71,o),
(160,12,cs),
(141,-34,o),
(104,12,o),
(109,51,cs)
);
}
);
width = 219;
},
{
layerId = "33631C71-1333-4331-8A89-BDCD639A4A27";
shapes = (
{
closed = 1;
nodes = (
(58,410,o),
(5,442,o),
(8,477,c),
(25,509,o),
(14,549,o),
(23,583,c),
(121,640,o),
(118,508,o),
(135,493,c),
(138,411,o),
(163,332,o),
(132,280,cs),
(84,210,o),
(47,343,o),
(22,363,c)
);
},
{
closed = 1;
nodes = (
(96,102,o),
(229,86,o),
(187,17,c),
(164,-35,o),
(71,3,o),
(100,33,c)
);
}
);
width = 219;
}
);
unicode = 33;
},
{
glyphname = question;
lastChange = "2024-10-09 22:34:34 +0000";
layers = (
{
layerId = m01;
shapes = (
{
closed = 1;
nodes = (
(454,469,o),
(369,388,o),
(312,334,cs),
(277,304,o),
(239,245,o),
(197,245,cs),
(163,245,o),
(132,267,o),
(146,299,cs),
(158,325,o),
(207,354,o),
(227,374,cs),
(256,406,o),
(288,435,o),
(316,469,cs),
(352,514,o),
(412,636,o),
(307,621,cs),
(264,615,o),
(227,598,o),
(193,575,cs),
(159,553,o),
(138,510,o),
(104,489,cs),
(71,468,o),
(34,494,o),
(41,532,cs),
(46,570,o),
(87,599,o),
(114,624,cs),
(209,720,o),
(454,764,o),
(454,562,cs)
);
},
{
closed = 1;
nodes = (
(227,20,o),
(214,-21,o),
(181,-21,cs),
(159,-21,o),
(138,12,o),
(130,30,cs),
(101,101,o),
(227,91,o),
(227,47,cs)
);
}
);
width = 494;
},
{
layerId = "3EED4E43-93E5-49B5-B4F5-8693E91ADEE2";
shapes = (
{
closed = 1;
nodes = (
(418,562,o),
(341,462,o),
(289,395,cs),
(257,357,o),
(224,285,o),
(182,282,cs),
(149,280,o),
(117,304,o),
(128,343,cs),
(138,374,o),
(184,411,o),
(202,437,cs),
(228,476,o),
(258,512,o),
(282,554,cs),
(315,610,o),
(364,757,o),
(263,733,cs),
(220,723,o),
(186,701,o),
(153,672,cs),
(122,644,o),
(104,592,o),
(73,565,cs),
(42,538,o),
(4,566,o),
(8,612,cs),
(10,657,o),
(48,693,o),
(73,725,cs),
(159,844,o),
(396,912,o),
(411,672,cs)
);
},
{
closed = 1;
nodes = (
(229,18,o),
(219,-31,o),
(187,-33,cs),
(165,-35,o),
(142,4,o),
(132,24,cs),
(99,106,o),
(224,102,o),
(227,50,cs)
);
}
);
width = 494;
},
{
layerId = "B7F60EEF-5018-4FBA-9984-B24EB61DE206";
shapes = (
{
closed = 1;
nodes = (
(405,437,o),
(346,357,o),
(307,303,cs),
(282,272,o),
(259,217,o),
(225,213,cs),
(199,209,o),
(171,225,o),
(179,255,cs),
(186,279,o),
(221,310,o),
(235,330,cs),
(254,361,o),
(276,390,o),
(295,423,cs),
(319,468,o),
(352,582,o),
(270,557,cs),
(237,548,o),
(209,529,o),
(185,505,cs),
(160,482,o),
(148,442,o),
(123,419,cs),
(99,397,o),
(67,417,o),
(68,451,cs),
(67,486,o),
(97,516,o),
(116,540,cs),
(181,635,o),
(372,700,o),
(395,521,cs)
);
},
{
closed = 1;
nodes = (
(275,15,o),
(270,-23,o),
(243,-26,cs),
(225,-28,o),
(204,-1,o),
(196,14,cs),
(165,75,o),
(267,79,o),
(272,39,cs)
);
}
);
width = 494;
},
{
layerId = "33631C71-1333-4331-8A89-BDCD639A4A27";
shapes = (
{
closed = 1;
nodes = (
(391,492,o),
(334,414,o),
(294,370,c),
(277,344,o),
(229,251,o),
(215,257,c),
(189,265,o),
(158,294,o),
(176,321,c),
(176,354,o),
(214,370,o),
(236,396,c),
(258,426,o),
(274,469,o),
(286,520,c),
(320,561,o),
(359,685,o),
(294,680,c),
(262,654,o),
(223,646,o),
(199,612,c),
(191,588,o),
(160,543,o),
(139,517,c),
(122,521,o),
(80,545,o),
(92,591,c),
(110,629,o),
(126,655,o),
(158,666,c),
(209,787,o),
(400,840,o),
(398,604,c)
);
},
{
closed = 1;
nodes = (
(222,12,o),
(216,-17,o),
(196,-26,c),
(180,-13,o),
(163,18,o),
(168,20,c),
(136,101,o),
(226,88,o),
(239,59,c)
);
}
);
width = 494;
}
);
unicode = 63;
},
{
glyphname = bullet;
lastChange = "2024-10-09 22:34:36 +0000";
layers = (
{
layerId = m01;
shapes = (
{
closed = 1;
nodes = (
(280,403,o),
(284,345,cs),
(287,296,o),
(206,230,o),
(158,222,cs),
(19,193,o),
(-11,408,o),
(146,418,cs),
(233,419,o)
);
}
);
width = 324;
},
{
layerId = "3EED4E43-93E5-49B5-B4F5-8693E91ADEE2";
shapes = (
{
closed = 1;
nodes = (
(348,411,o),
(346,347,cs),
(345,294,o),
(243,231,o),
(185,228,cs),
(18,212,o),
(6,449,o),
(192,442,cs),
(294,433,o)
);
}
);
width = 324;
},
{
layerId = "B7F60EEF-5018-4FBA-9984-B24EB61DE206";
shapes = (
{
closed = 1;
nodes = (
(258,349,o),
(247,309,cs),
(237,274,o),
(170,248,o),
(137,253,cs),
(41,263,o),
(72,418,o),
(176,389,cs),
(232,371,o)
);
}
);
width = 324;
},
{
layerId = "33631C71-1333-4331-8A89-BDCD639A4A27";
shapes = (
{
closed = 1;
nodes = (
(314,374,o),
(318,327,c),
(337,292,o),
(244,254,o),
(155,244,c),
(-33,215,o),
(-47,373,o),
(149,383,c),
(275,379,o)
);
}
);
width = 324;
}
);
unicode = 8226;
},
{
glyphname = asterisk;
lastChange = "2024-10-09 22:34:37 +0000";
layers = (
{
layerId = m01;
shapes = (
{
closed = 1;
nodes = (
(30,535,o),
(126,551,o),
(151,551,cs),
(182,551,o),
(69,604,o),
(84,640,cs),
(111,699,o),
(156,621,o),
(180,640,cs),
(191,649,o),
(179,692,o),
(186,707,cs),
(192,719,o),
(207,726,o),
(222,728,cs),
(274,736,o),
(242,650,o),
(274,650,cs),
(308,650,o),
(314,708,o),
(346,721,cs),
(373,733,o),
(406,714,o),
(398,679,cs),
(391,640,o),
(338,616,o),
(317,584,cs),
(291,542,o),
(342,581,o),
(366,562,cs),
(406,531,o),
(332,519,o),
(324,502,cs),
(317,485,o),
(361,431,o),
(370,414,cs),
(383,388,o),
(398,350,o),
(357,346,cs),
(317,342,o),
(312,403,o),
(281,403,cs),
(248,403,o),
(306,284,o),
(232,304,cs),
(204,313,o),
(200,336,o),
(200,357,cs),
(200,360,o),
(184,431,o),
(184,431,cs),
(184,445,o),
(141,393,o),
(130,382,cs),
(117,369,o),
(101,353,o),
(81,364,cs),
(24,396,o),
(137,459,o),
(126,470,cs),
(105,492,o),
(58,471,o),
(41,510,cs)
);
}
);
width = 439;
},
{
layerId = "3EED4E43-93E5-49B5-B4F5-8693E91ADEE2";
shapes = (
{
closed = 1;
nodes = (
(-43,571,o),
(61,601,o),
(89,605,cs),
(123,609,o),
(-10,651,o),
(2,693,cs),
(23,762,o),
(84,683,o),
(108,707,cs),
(118,719,o),
(99,764,o),
(105,782,cs),
(110,795,o),
(125,805,o),
(142,810,cs),
(198,826,o),
(175,727,o),
(210,732,cs),
(248,737,o),
(247,801,o),
(280,821,cs),
(309,838,o),
(348,822,o),
(344,782,cs),
(342,738,o),
(287,704,o),
(268,666,cs),
(245,616,o),
(296,666,o),
(325,649,cs),
(374,620,o),
(294,597,o),
(287,577,cs),
(282,557,o),
(338,505,o),
(351,487,cs),
(369,460,o),
(391,421,o),
(346,411,cs),
(302,400,o),
(289,467,o),
(254,462,cs),
(217,457,o),
(299,335,o),
(214,346,cs),
(182,352,o),
(174,377,o),
(171,400,cs),
(171,403,o),
(143,479,o),
(143,479,cs),
(141,494,o),
(101,431,o),
(89,417,cs),
(77,401,o),
(62,382,o),
(38,391,cs),
(-30,417,o),
(86,503,o),
(73,513,cs),
(46,534,o),
(-3,504,o),
(-27,544,cs)
);
}
);
width = 439;
},
{
layerId = "B7F60EEF-5018-4FBA-9984-B24EB61DE206";
shapes = (
{
closed = 1;
nodes = (
(80,482,o),
(142,519,o),
(159,526,cs),
(181,535,o),
(89,539,o),
(89,567,cs),
(92,615,o),
(144,574,o),
(155,594,cs),
(160,603,o),
(140,628,o),
(142,641,cs),
(143,650,o),
(151,659,o),
(161,664,cs),
(195,684,o),
(196,617,o),
(218,626,cs),
(241,635,o),
(229,676,o),
(248,694,cs),
(263,709,o),
(292,706,o),
(296,679,cs),
(300,651,o),
(270,621,o),
(265,594,cs),
(258,558,o),
(283,598,o),
(304,592,cs),
(341,582,o),
(292,554,o),
(292,540,cs),
(291,527,o),
(336,503,o),
(346,494,cs),
(363,480,o),
(383,458,o),
(356,444,cs),
(330,430,o),
(309,471,o),
(288,462,cs),
(265,453,o),
(337,388,o),
(281,382,cs),
(259,380,o),
(250,395,o),
(245,408,cs),
(244,410,o),
(214,454,o),
(214,454,cs),
(210,464,o),
(194,416,o),
(190,406,cs),
(184,394,o),
(178,379,o),
(161,381,cs),
(112,387,o),
(174,460,o),
(163,464,cs),
(143,473,o),
(117,447,o),
(94,468,cs)
);
}
);
width = 439;
},
{
layerId = "33631C71-1333-4331-8A89-BDCD639A4A27";
shapes = (
{
closed = 1;
nodes = (
(76,546,o),
(146,542,o),
(154,550,c),
(192,571,o),
(89,626,o),
(115,676,cs),
(142,727,o),
(158,643,o),
(175,654,c),
(189,684,o),
(174,736,o),
(196,723,c),
(187,745,o),
(208,752,o),
(212,772,c),
(271,776,o),
(233,672,o),
(251,667,c),
(279,678,o),
(294,735,o),
(315,753,c),
(344,757,o),
(362,732,o),
(361,702,c),
(355,677,o),
(319,645,o),
(309,604,c),
(264,555,o),
(321,599,o),
(332,564,c),
(377,521,o),
(302,508,o),
(307,505,c),
(295,481,o),
(336,430,o),
(328,409,c),
(353,368,o),
(370,316,o),
(338,313,c),
(286,301,o),
(286,379,o),
(266,388,c),
(236,370,o),
(282,246,o),
(236,261,c),
(204,278,o),
(211,299,o),
(208,338,c),
(191,323,o),
(191,416,o),
(190,409,cs),
(200,450,o),
(156,363,o),
(158,371,c),
(137,343,o),
(133,328,o),
(96,351,c),
(51,395,o),
(152,437,o),
(153,463,c),
(117,474,o),
(80,463,o),
(66,503,c)
);
}
);
width = 439;
}
);
unicode = 42;
},
{
glyphname = numbersign;
lastChange = "2024-10-09 22:34:41 +0000";
layers = (
{
layerId = m01;
shapes = (
{
closed = 1;
nodes = (
(320,235,o),
(320,235,o),
(320,235,cs),
(366,235,o),
(423,222,o),
(445,268,cs),
(453,285,o),
(473,339,o),
(466,359,cs),
(460,378,o),
(453,367,o),
(428,367,cs),
(394,367,o),
(357,370,o),
(328,359,cs),
(290,348,o),
(299,335,o),
(286,301,cs),
(282,289,o),
(255,248,o),
(262,235,cs),
(268,225,o),
(307,232,o),
(320,235,cs)
);
},
{
closed = 1;
nodes = (
(330,135,o),
(277,139,o),
(233,123,cs),
(195,110,o),
(182,55,o),
(170,18,cs),
(158,-19,o),
(152,-79,o),
(103,-62,cs),
(57,-43,o),
(68,-6,o),
(82,34,cs),
(89,55,o),
(116,84,o),
(116,106,cs),
(116,135,o),
(116,110,o),
(98,119,cs),
(66,135,o),
(40,160,o),
(40,201,cs),
(40,219,o),
(53,236,o),
(69,242,cs),
(95,252,o),
(103,240,o),
(119,235,cs),
(170,222,o),
(177,272,o),
(195,309,cs),
(220,364,o),
(195,357,o),
(141,364,cs),
(103,370,o),
(62,385,o),
(69,431,cs),
(82,526,o),
(221,410,o),
(254,480,cs),
(279,535,o),
(277,584,o),
(290,643,cs),
(294,668,o),
(328,701,o),
(357,684,cs),
(386,668,o),
(379,605,o),
(374,584,cs),
(370,559,o),
(329,477,o),
(345,464,cs),
(359,452,o),
(471,467,o),
(486,480,cs),
(519,505,o),
(528,576,o),
(540,618,cs),
(553,660,o),
(586,718,o),
(624,655,cs),
(657,597,o),
(598,555,o),
(598,502,cs),
(598,454,o),
(730,544,o),
(744,472,cs),
(761,397,o),
(662,403,o),
(611,393,cs),
(574,386,o),
(565,379,o),
(553,339,cs),
(547,321,o),
(524,264,o),
(537,251,cs),
(545,242,o),
(611,255,o),
(624,255,cs),
(645,255,o),
(684,248,o),
(693,227,cs),
(699,214,o),
(703,172,o),
(693,163,cs),
(680,149,o),
(632,155,o),
(611,155,cs),
(586,155,o),
(540,160,o),
(515,147,cs),
(489,135,o),
(489,97,o),
(486,73,cs),
(482,47,o),
(481,0,o),
(453,-15,cs),
(431,-26,o),
(400,-11,o),
(390,10,cs),
(376,43,o),
(445,135,o),
(379,135,cs)
);
}
);
width = 786;
},
{
layerId = "3EED4E43-93E5-49B5-B4F5-8693E91ADEE2";
shapes = (
{
closed = 1;
nodes = (
(301,225,o),
(301,225,o),
(301,225,cs),
(354,218,o),
(419,195,o),
(452,247,cs),
(464,266,o),
(495,328,o),
(490,353,cs),
(486,377,o),
(477,365,o),
(447,369,cs),
(407,374,o),
(365,383,o),
(330,374,cs),
(283,367,o),
(292,349,o),
(272,310,cs),
(265,296,o),
(227,251,o),
(233,234,cs),
(239,221,o),
(285,224,o),
(301,225,cs)
);
},
{
closed = 1;
nodes = (
(297,104,o),
(236,116,o),
(182,103,cs),
(137,94,o),
(112,29,o),
(93,-13,cs),
(73,-56,o),
(57,-128,o),
(3,-100,cs),
(-49,-70,o),
(-30,-27,o),
(-7,18,cs),
(4,43,o),
(40,74,o),
(44,101,cs),
(48,135,o),
(44,106,o),
(25,118,cs),
(-10,143,o),
(-36,176,o),
(-30,226,cs),
(-27,248,o),
(-10,267,o),
(10,271,cs),
(41,279,o),
(49,264,o),
(66,255,cs),
(124,233,o),
(140,291,o),
(167,333,cs),
(204,396,o),
(175,391,o),
(112,407,cs),
(69,421,o),
(23,445,o),
(39,499,cs),
(68,612,o),
(212,451,o),
(262,531,cs),
(299,593,o),
(305,653,o),
(328,722,cs),
(337,752,o),
(382,786,o),
(413,761,cs),
(444,738,o),
(427,663,o),
(418,639,cs),
(409,609,o),
(349,516,o),
(366,498,cs),
(380,481,o),
(513,482,o),
(532,496,cs),
(574,522,o),
(596,606,o),
(616,655,cs),
(638,703,o),
(685,768,o),
(720,687,cs),
(749,612,o),
(674,570,o),
(666,506,cs),
(659,449,o),
(826,537,o),
(832,448,cs),
(840,355,o),
(725,378,o),
(664,372,cs),
(620,370,o),
(608,362,o),
(588,317,cs),
(579,296,o),
(543,231,o),
(556,213,cs),
(565,201,o),
(643,207,o),
(659,205,cs),
(683,202,o),
(727,187,o),
(735,161,cs),
(740,144,o),
(737,93,o),
(725,83,cs),
(707,69,o),
(652,83,o),
(628,86,cs),
(599,89,o),
(546,102,o),
(515,91,cs),
(483,80,o),
(477,34,o),
(469,6,cs),
(461,-25,o),
(453,-81,o),
(418,-95,cs),
(390,-106,o),
(356,-83,o),
(348,-56,cs),
(337,-14,o),
(431,87,o),
(355,96,cs)
);
}
);
width = 786;
},
{
layerId = "B7F60EEF-5018-4FBA-9984-B24EB61DE206";
shapes = (
{
closed = 1;
nodes = (
(331,259,o),
(331,259,o),
(331,259,cs),
(366,252,o),
(408,234,o),
(432,265,cs),
(440,277,o),
(463,315,o),
(460,331,cs),
(459,347,o),
(451,340,o),
(432,344,cs),
(406,348,o),
(378,356,o),
(354,351,cs),
(323,348,o),
(328,337,o),
(313,314,cs),
(309,304,o),
(281,278,o),
(285,267,cs),
(289,258,o),
(319,259,o),
(331,259,cs)
);
},
{
closed = 1;
nodes = (
(324,182,o),
(284,192,o),
(247,186,cs),
(216,182,o),
(198,142,o),
(184,116,cs),
(169,89,o),
(157,45,o),
(121,64,cs),
(88,86,o),
(101,112,o),
(119,140,cs),
(126,155,o),
(151,174,o),
(154,190,cs),
(158,212,o),
(155,193,o),
(142,203,cs),
(120,219,o),
(103,242,o),
(109,273,cs),
(111,287,o),
(124,298,o),
(137,299,cs),
(159,303,o),
(163,294,o),
(175,287,cs),
(213,270,o),
(225,307,o),
(244,333,cs),
(271,370,o),
(250,369,o),
(210,381,cs),
(181,392,o),
(152,408,o),
(163,443,cs),
(187,513,o),
(278,405,o),
(314,454,cs),
(340,492,o),
(346,529,o),
(364,572,cs),
(370,590,o),
(402,610,o),
(422,594,cs),
(441,577,o),
(428,530,o),
(421,515,cs),
(414,496,o),
(371,440,o),
(381,428,cs),
(390,417,o),
(479,413,o),
(493,421,cs),
(522,435,o),
(538,487,o),
(553,517,cs),
(570,547,o),
(604,586,o),
(624,533,cs),
(641,485,o),
(590,461,o),
(582,421,cs),
(576,385,o),
(690,434,o),
(691,377,cs),
(694,319,o),
(618,337,o),
(577,337,cs),
(547,336,o),
(540,333,o),
(525,304,cs),
(518,291,o),
(492,251,o),
(500,239,cs),
(505,232,o),
(558,232,o),
(568,230,cs),
(584,227,o),
(614,216,o),
(618,199,cs),
(620,189,o),
(618,156,o),
(609,150,cs),
(597,142,o),
(560,153,o),
(544,156,cs),
(525,160,o),
(489,170,o),
(469,164,cs),
(446,159,o),
(441,130,o),
(436,112,cs),
(429,93,o),
(422,58,o),
(398,50,cs),
(380,45,o),
(357,61,o),
(353,78,cs),
(347,105,o),
(413,165,o),
(362,174,cs)
);
}
);
width = 786;
},
{
layerId = "33631C71-1333-4331-8A89-BDCD639A4A27";
shapes = (
{
closed = 1;
nodes = (
(300,238,o),
(302,237,o),
(309,245,c),
(357,250,o),
(440,241,o),
(463,282,c),
(461,282,o),
(477,339,o),
(465,344,c),
(481,373,o),
(469,368,o),
(436,351,c),
(395,370,o),
(343,354,o),
(310,359,c),
(271,336,o),
(286,342,o),
(273,294,c),
(249,301,o),
(220,249,o),
(228,243,c),
(228,248,o),
(304,235,o),
(301,238,cs)
);
},
{
closed = 1;
nodes = (
(322,173,o),
(263,166,o),
(215,152,c),
(136,138,o),
(124,86,o),
(132,70,c),
(111,28,o),
(99,-21,o),
(47,-17,c),
(-5,24,o),
(13,38,o),
(16,72,c),
(11,100,o),
(64,116,o),
(57,149,c),
(64,173,o),
(41,131,o),
(54,149,c),
(1,173,o),
(-46,173,o),
(-44,211,c),
(-45,234,o),
(-4,249,o),
(0,255,c),
(31,272,o),
(51,249,o),
(59,255,c),
(139,224,o),
(150,269,o),
(169,315,c),
(174,359,o),
(144,345,o),
(76,366,c),
(34,363,o),
(0,374,o),
(-12,414,c),
(10,499,o),
(199,403,o),
(244,467,c),
(262,512,o),
(256,539,o),
(255,580,c),
(262,619,o),
(307,646,o),
(343,628,c),
(371,625,o),
(373,564,o),
(384,539,c),
(356,518,o),
(324,456,o),
(336,447,c),
(348,425,o),
(479,431,o),
(524,446,c),
(563,471,o),
(557,530,o),
(574,584,c),
(575,607,o),
(618,644,o),
(668,614,c),
(721,549,o),
(653,525,o),
(639,461,c),
(638,420,o),
(784,513,o),
(824,448,c),
(825,396,o),
(715,377,o),
(666,373,c),
(630,373,o),
(609,378,o),
(591,326,c),
(563,329,o),
(547,276,o),
(557,248,c),
(595,251,o),
(655,261,o),
(657,271,c),
(696,258,o),
(734,266,o),
(752,233,c),
(778,222,o),
(752,197,o),
(751,187,c),
(731,168,o),
(676,170,o),
(653,181,c),
(610,182,o),
(570,180,o),
(547,161,c),
(519,162,o),
(518,134,o),
(519,100,c),
(506,91,o),
(513,46,o),
(481,34,c),
(448,34,o),
(394,30,o),
(391,46,c),
(362,81,o),
(447,166,o),
(362,167,c)
);
}
);
width = 786;
}
);
unicode = 35;
},
{
glyphname = slash;
lastChange = "2024-10-09 22:34:54 +0000";
layers = (
{
layerId = m01;
shapes = (
{
closed = 1;
nodes = (
(40,36,o),
(97,95,o),
(136,159,cs),
(175,225,o),
(207,299,o),
(239,366,cs),
(277,444,o),
(315,527,o),
(343,609,cs),
(353,637,o),
(344,680,o),
(370,697,cs),
(397,715,o),
(435,700,o),
(438,665,cs),
(443,631,o),
(412,578,o),
(399,543,cs),
(385,505,o),
(366,470,o),
(350,432,cs),
(319,363,o),
(291,299,o),
(258,233,cs),
(226,168,o),
(197,106,o),
(167,42,cs),
(148,-1,o),
(40,-147,o),
(40,-36,cs)
);
}
);
width = 479;
},
{
layerId = "3EED4E43-93E5-49B5-B4F5-8693E91ADEE2";
shapes = (
{
closed = 1;
nodes = (
(42,-90,o),
(97,-6,o),
(129,79,cs),
(160,167,o),
(182,262,o),
(204,350,cs),
(233,452,o),
(258,560,o),
(274,665,cs),
(280,700,o),
(259,750,o),
(286,777,cs),
(314,804,o),
(362,794,o),
(374,753,cs),
(387,713,o),
(362,642,o),
(354,597,cs),
(346,549,o),
(332,503,o),
(321,454,cs),
(300,363,o),
(281,281,o),
(257,194,cs),
(233,109,o),
(213,28,o),
(191,-55,cs),
(178,-111,o),
(83,-310,o),
(58,-176,cs)
);
}
);
width = 479;
},
{
layerId = "B7F60EEF-5018-4FBA-9984-B24EB61DE206";
shapes = (
{
closed = 1;
nodes = (
(98,122,o),
(139,164,o),
(166,210,cs),
(193,258,o),
(217,311,o),
(240,358,cs),
(267,414,o),
(295,473,o),
(315,533,cs),
(321,552,o),
(316,583,o),
(334,596,cs),
(353,609,o),
(379,597,o),
(381,572,cs),
(384,547,o),
(362,510,o),
(353,485,cs),
(344,457,o),
(329,432,o),
(318,405,cs),
(295,355,o),
(275,310,o),
(252,262,cs),
(229,215,o),
(208,172,o),
(187,126,cs),
(173,95,o),
(96,-9,o),
(97,71,cs)
);
}
);
width = 479;
},
{
layerId = "33631C71-1333-4331-8A89-BDCD639A4A27";
shapes = (
{
closed = 1;
nodes = (
(77,-8,o),
(132,52,o),
(153,123,c),
(178,231,o),
(202,308,o),
(239,383,c),
(258,451,o),
(291,549,o),
(314,654,c),
(336,693,o),
(317,734,o),
(338,750,c),
(367,785,o),
(393,752,o),
(397,708,c),
(392,686,o),
(377,637,o),
(354,578,c),
(351,525,o),
(341,495,o),
(320,463,c),
(298,380,o),
(283,298,o),
(246,209,c),
(221,163,o),
(200,70,o),
(192,15,c),
(172,-34,o),
(82,-216,o),
(82,-81,c)
);
}
);
width = 479;
}
);
unicode = 47;
},
{
glyphname = backslash;
lastChange = "2024-10-09 22:34:51 +0000";
layers = (
{
layerId = m01;
shapes = (
{
closed = 1;
nodes = (
(393,-48,o),
(361,-72,o),
(331,-62,cs),
(303,-52,o),
(297,-5,o),
(287,24,cs),
(260,101,o),
(239,177,o),
(206,254,cs),
(174,329,o),
(144,401,o),
(117,479,cs),
(104,515,o),
(88,556,o),
(67,585,cs),
(42,621,o),
(25,631,o),
(59,665,cs),
(81,687,o),
(132,667,o),
(161,601,cs),
(191,530,o),
(210,458,o),
(238,389,cs),
(254,347,o),
(267,308,o),
(287,271,cs),
(303,244,o),
(308,218,o),
(321,189,cs),
(352,120,o),
(393,49,o),
(393,-22,cs)
);
}
);
width = 433;
},
{
layerId = "3EED4E43-93E5-49B5-B4F5-8693E91ADEE2";
shapes = (
{
closed = 1;
nodes = (
(398,-95,o),
(354,-116,o),
(316,-102,cs),
(282,-88,o),
(279,-36,o),
(269,-3,cs),
(243,84,o),
(225,169,o),
(190,256,cs),
(158,341,o),
(127,424,o),
(101,512,cs),
(88,553,o),
(72,598,o),
(48,633,cs),
(20,675,o),
(0,688,o),
(47,721,cs),
(78,742,o),
(141,713,o),
(171,637,cs),
(202,557,o),
(219,477,o),
(247,398,cs),
(262,351,o),
(275,307,o),
(297,264,cs),
(315,233,o),
(318,204,o),
(331,171,cs),
(363,92,o),
(409,10,o),
(401,-67,cs)
);
}
);
width = 433;
},
{
layerId = "B7F60EEF-5018-4FBA-9984-B24EB61DE206";
shapes = (
{
closed = 1;
nodes = (
(386,78,o),
(372,55,o),
(352,58,cs),
(334,60,o),
(321,94,o),
(309,112,cs),
(279,164,o),
(251,216,o),
(216,266,cs),
(183,315,o),
(151,362,o),
(120,415,cs),
(106,438,o),
(87,465,o),
(70,482,cs),
(49,504,o),
(36,508,o),
(49,540,cs),
(58,558,o),
(92,552,o),
(122,510,cs),
(153,463,o),
(180,414,o),
(209,368,cs),
(227,341,o),
(241,315,o),
(261,291,cs),
(276,275,o),
(284,256,o),
(296,238,cs),
(329,192,o),
(367,148,o),
(381,97,cs)
);
}
);
width = 433;
},
{
layerId = "33631C71-1333-4331-8A89-BDCD639A4A27";
shapes = (
{
closed = 1;
nodes = (
(456,10,o),
(384,-18,o),
(356,-10,c),
(334,7,o),
(315,34,o),
(290,76,c),
(272,142,o),
(248,185,o),
(203,267,c),
(178,330,o),
(104,383,o),
(93,448,c),
(83,474,o),
(35,529,o),
(31,556,c),
(-14,565,o),
(-15,578,o),
(13,614,c),
(28,645,o),
(120,609,o),
(160,556,c),
(188,488,o),
(217,439,o),
(225,389,c),
(254,347,o),
(290,319,o),
(291,271,c),
(344,247,o),
(337,223,o),
(348,206,c),
(401,142,o),
(429,87,o),
(424,36,c)
);
}
);
width = 433;
}
);
unicode = 92;
},
{
glyphname = hyphen;
lastChange = "2024-10-09 22:34:59 +0000";
layers = (
{
layerId = m01;
shapes = (
{
closed = 1;
nodes = (
(114,312,o),
(40,277,o),
(40,353,cs),
(40,434,o),
(163,380,o),
(199,380,cs),
(232,380,o),
(374,424,o),
(374,368,cs),
(374,316,o),
(314,297,o),
(279,296,cs),
(251,295,o),
(188,292,o),
(150,303,cs)
);
}
);
width = 414;
},
{
layerId = "3EED4E43-93E5-49B5-B4F5-8693E91ADEE2";
shapes = (
{
closed = 1;
nodes = (
(48,294,o),
(-56,237,o),
(-67,332,cs),
(-80,433,o),
(110,387,o),
(163,394,cs),
(211,400,o),
(415,481,o),
(424,410,cs),
(432,346,o),
(345,311,o),
(294,304,cs),
(253,298,o),
(160,283,o),
(102,290,cs)
);
}
);
width = 414;
},
{
layerId = "B7F60EEF-5018-4FBA-9984-B24EB61DE206";
shapes = (
{
closed = 1;
nodes = (
(130,339,o),
(73,324,o),
(84,380,cs),
(95,440,o),
(175,383,o),
(200,379,cs),
(224,374,o),
(331,387,o),
(323,346,cs),
(316,307,o),
(270,301,o),
(245,305,cs),
(226,308,o),
(180,314,o),
(154,327,cs)
);
}
);
width = 414;
},
{
layerId = "33631C71-1333-4331-8A89-BDCD639A4A27";
shapes = (
{
closed = 1;
nodes = (
(140,302,o),
(88,249,o),
(72,367,c),
(90,458,o),
(170,405,o),
(207,389,c),
(226,396,o),
(328,474,o),
(325,378,c),
(330,270,o),
(286,275,o),
(255,278,cs),
(245,278,o),
(181,273,o),
(171,289,c)
);
}
);
width = 414;
}
);
unicode = 45;
},
{
glyphname = endash;
lastChange = "2024-10-09 22:35:01 +0000";
layers = (
{
layerId = m01;
shapes = (
{
closed = 1;
nodes = (
(75,275,o),
(50,305,cs),
(26,332,o),
(50,368,o),
(79,379,cs),
(123,395,o),
(196,383,o),
(245,383,cs),
(297,383,o),
(351,389,o),
(399,402,cs),
(439,413,o),
(482,420,o),
(519,412,cs),
(574,400,o),
(561,368,o),
(525,345,cs),
(440,288,o),
(304,290,o),
(211,290,cs),
(150,290,o)
);
}
);
width = 596;
},
{
layerId = "3EED4E43-93E5-49B5-B4F5-8693E91ADEE2";
shapes = (
{
closed = 1;
nodes = (
(29,299,o),
(2,340,cs),
(-24,377,o),
(12,416,o),
(50,425,cs),
(108,438,o),
(198,411,o),
(260,403,cs),
(325,395,o),
(393,393,o),
(456,401,cs),
(508,409,o),
(563,410,o),
(608,394,cs),
(676,371,o),
(654,335,o),
(606,312,cs),
(490,257,o),
(320,281,o),
(202,295,cs),
(125,305,o)
);
}
);
width = 596;
},
{
layerId = "B7F60EEF-5018-4FBA-9984-B24EB61DE206";
shapes = (
{
closed = 1;
nodes = (
(148,239,o),
(124,253,cs),
(102,267,o),
(109,298,o),
(126,312,cs),
(152,334,o),
(205,343,o),
(238,354,cs),
(273,366,o),
(309,383,o),
(339,404,cs),
(364,421,o),
(391,436,o),
(418,439,cs),
(459,443,o),
(458,418,o),
(439,394,cs),
(395,334,o),
(302,303,o),
(237,281,cs),
(196,267,o)
);
}
);
width = 596;
},
{
layerId = "33631C71-1333-4331-8A89-BDCD639A4A27";
shapes = (
{
closed = 1;
nodes = (
(16,302,o),
(16,331,c),
(-31,338,o),
(-7,361,o),
(27,357,c),
(81,371,o),
(160,361,o),
(234,357,c),
(303,364,o),
(368,367,o),
(403,379,c),
(472,383,o),
(535,384,o),
(562,378,c),
(633,371,o),
(606,361,o),
(562,337,c),
(481,310,o),
(288,319,o),
(187,315,cs),
(116,313,o)
);
}
);
width = 596;
}
);
unicode = 8211;
},
{
glyphname = emdash;
lastChange = "2024-10-09 22:35:04 +0000";
layers = (
{
layerId = m01;
shapes = (
{
closed = 1;
nodes = (
(578,316,o),
(422,300,o),
(263,296,cs),
(216,293,o),
(97,281,o),
(56,321,cs),
(3,376,o),
(97,394,o),
(135,388,cs),
(269,370,o),
(411,388,o),
(545,388,cs),
(611,388,o),
(683,416,o),
(746,404,cs),
(812,391,o),
(796,316,o),
(733,316,cs)
);
}
);
width = 828;
},
{
layerId = "3EED4E43-93E5-49B5-B4F5-8693E91ADEE2";
shapes = (
{
closed = 1;
nodes = (
(656,345,o),
(464,315,o),
(266,299,cs),
(209,292,o),
(62,269,o),
(8,316,cs),
(-61,381,o),
(54,410,o),
(102,404,cs),
(270,391,o),
(444,423,o),
(610,432,cs),
(692,436,o),
(780,476,o),
(858,465,cs),
(941,454,o),
(926,360,o),
(848,355,cs)
);
}
);
width = 828;
},
{
layerId = "B7F60EEF-5018-4FBA-9984-B24EB61DE206";
shapes = (
{
closed = 1;
nodes = (
(545,298,o),
(415,306,o),
(283,325,cs),
(244,329,o),
(145,336,o),
(116,375,cs),
(80,428,o),
(161,430,o),
(191,420,cs),
(298,385,o),
(417,381,o),
(528,362,cs),
(582,353,o),
(645,366,o),
(696,347,cs),
(748,327,o),
(725,267,o),
(672,276,cs)
);
}
);
width = 828;
},
{
layerId = "33631C71-1333-4331-8A89-BDCD639A4A27";
shapes = (
{
closed = 1;
nodes = (
(565,292,o),
(420,248,o),
(274,267,c),
(232,280,o),
(137,239,o),
(99,308,c),
(41,394,o),
(137,428,o),
(169,422,c),
(290,365,o),
(400,446,o),
(527,417,c),
(598,422,o),
(655,449,o),
(705,442,c),
(757,421,o),
(759,269,o),
(684,296,c)
);
}
);
width = 828;
}
);
unicode = 8212;
},
{
glyphname = underscore;
lastChange = "2024-10-09 22:35:08 +0000";
layers = (
{
layerId = m01;
shapes = (
{
closed = 1;
nodes = (
(231,-129,o),
(155,-140,o),
(96,-123,cs),
(54,-112,o),
(12,-76,o),
(63,-40,cs),
(105,-11,o),
(189,-31,o),
(233,-31,cs),
(304,-31,o),
(368,-7,o),
(439,-7,cs),
(469,-7,o),
(503,-4,o),
(531,2,cs),
(564,10,o),
(590,36,o),
(623,36,cs),
(666,36,o),
(714,21,o),
(684,-26,cs),
(650,-81,o),
(573,-85,o),
(516,-95,cs),
(443,-108,o),
(363,-115,o),
(290,-123,cs)
);
}
);
width = 733;
},
{
layerId = "3EED4E43-93E5-49B5-B4F5-8693E91ADEE2";
shapes = (
{
closed = 1;
nodes = (
(182,-110,o),
(87,-108,o),
(18,-79,cs),
(-32,-58,o),
(-77,-9,o),
(-9,23,cs),
(48,48,o),
(147,10,o),
(201,2,cs),
(288,-10,o),
(370,6,o),
(457,-7,cs),
(493,-13,o),
(535,-16,o),
(571,-14,cs),
(613,-10,o),
(649,15,o),
(690,9,cs),
(742,1,o),
(798,-25,o),
(753,-73,cs),
(702,-130,o),
(608,-122,o),
(536,-122,cs),
(445,-124,o),
(346,-117,o),
(255,-114,cs)
);
}
);
width = 733;
},
{
layerId = "B7F60EEF-5018-4FBA-9984-B24EB61DE206";
shapes = (
{
closed = 1;
nodes = (
(273,-132,o),
(218,-149,o),
(172,-142,cs),
(139,-138,o),
(104,-116,o),
(138,-83,cs),
(166,-56,o),
(231,-62,o),
(264,-57,cs),
(316,-49,o),
(361,-25,o),
(415,-17,cs),
(436,-14,o),
(462,-8,o),
(482,0,cs),
(506,10,o),
(522,32,o),
(546,36,cs),
(579,41,o),
(616,35,o),
(599,-5,cs),
(580,-50,o),
(523,-62,o),
(482,-75,cs),
(429,-93,o),
(370,-107,o),
(317,-121,cs)
);
}
);
width = 733;
},
{
layerId = "33631C71-1333-4331-8A89-BDCD639A4A27";
shapes = (
{
closed = 1;
nodes = (
(198,-91,o),
(122,-94,o),
(36,-91,c),
(-7,-87,o),
(-48,-54,o),
(22,-47,c),
(78,-22,o),
(149,-38,o),
(194,-42,c),
(298,-44,o),
(364,-28,o),
(438,-24,c),
(491,-25,o),
(530,-23,o),
(559,-15,c),
(603,-13,o),
(637,-2,o),
(655,5,c),
(720,1,o),
(787,-8,o),
(747,-38,cs),
(710,-67,o),
(594,-59,o),
(549,-79,c),
(457,-83,o),
(362,-80,o),
(293,-94,c)
);
}
);
width = 733;
}
);
unicode = 95;
},
{
glyphname = parenleft;
lastChange = "2024-10-09 22:35:14 +0000";
layers = (
{
layerId = m01;
shapes = (
{
closed = 1;
nodes = (
(275,695,o),
(240,666,o),
(215,621,cs),
(190,578,o),
(171,528,o),
(153,484,cs),
(120,409,o),
(111,316,o),
(118,243,cs),
(126,148,o),
(178,74,o),
(246,9,cs),
(266,-10,o),
(351,-32,o),
(359,-54,cs),
(376,-99,o),
(292,-111,o),
(266,-104,cs),
(186,-81,o),
(118,6,o),
(83,80,cs),
(40,172,o),
(31,286,o),
(49,384,cs),
(69,484,o),
(105,581,o),
(157,666,cs),
(175,694,o),
(295,858,o),
(295,744,cs),
(295,741,o),
(300,741,o),
(300,741,cs)
);
}
);
width = 401;
},
{
layerId = "3EED4E43-93E5-49B5-B4F5-8693E91ADEE2";
shapes = (
{
closed = 1;
nodes = (
(252,776,o),
(213,737,o),
(189,680,cs),
(166,626,o),
(149,564,o),
(133,509,cs),
(103,416,o),
(104,304,o),
(121,218,cs),
(143,105,o),
(213,23,o),
(303,-46,cs),
(328,-65,o),
(433,-82,o),
(445,-107,cs),
(471,-158,o),
(373,-182,o),
(340,-178,cs),
(243,-160,o),
(150,-65,o),
(100,19,cs),
(37,123,o),
(12,259,o),
(22,377,cs),
(33,499,o),
(64,619,o),
(115,727,cs),
(133,763,o),
(255,973,o),
(269,837,cs),
(270,833,o),
(276,834,o),
(276,834,cs)
);
}
);
width = 401;
},
{
layerId = "B7F60EEF-5018-4FBA-9984-B24EB61DE206";
shapes = (
{
closed = 1;
nodes = (
(320,613,o),
(288,595,o),
(260,562,cs),
(233,531,o),
(210,493,o),
(188,459,cs),
(149,403,o),
(126,328,o),
(120,266,cs),
(110,186,o),
(138,117,o),
(181,52,cs),
(195,33,o),
(259,2,o),
(261,-18,cs),
(267,-58,o),
(198,-54,o),
(179,-44,cs),
(119,-11,o),
(80,71,o),
(64,138,cs),
(45,220,o),
(58,316,o),
(89,394,cs),
(121,473,o),
(166,546,o),
(222,609,cs),
(241,629,o),
(364,744,o),
(345,651,cs),
(344,648,o),
(348,647,o),
(348,647,cs)
);
}
);
width = 401;
},
{
layerId = "33631C71-1333-4331-8A89-BDCD639A4A27";
shapes = (
{
closed = 1;
nodes = (
(267,727,o),
(230,678,o),
(209,631,c),
(204,594,o),
(173,553,o),
(177,483,c),
(149,397,o),
(126,313,o),
(131,217,c),
(156,120,o),
(190,46,o),
(238,-17,c),
(252,-51,o),
(308,-78,o),
(337,-80,c),
(343,-145,o),
(271,-159,o),
(247,-137,c),
(189,-106,o),
(138,-37,o),
(120,63,c),
(88,152,o),
(81,272,o),
(95,387,cs),
(109,485,o),
(122,586,o),
(159,697,c),
(177,733,o),
(277,891,o),
(272,772,c),
(278,786,o),
(289,768,o),
(280,778,c)
);
}
);
width = 401;
}
);
unicode = 40;
},
{
glyphname = parenright;
lastChange = "2024-10-09 22:35:16 +0000";
layers = (
{
layerId = m01;
shapes = (
{
closed = 1;
nodes = (
(310,379,o),
(300,473,o),
(247,560,cs),
(222,598,o),
(185,635,o),
(144,656,cs),
(93,685,o),
(56,665,o),
(42,735,cs),
(16,874,o),
(203,753,o),
(247,715,cs),
(329,646,o),
(385,525,o),
(402,424,cs),
(420,313,o),
(407,206,o),
(354,104,cs),
(330,60,o),
(289,26,o),
(255,-12,cs),
(228,-41,o),
(188,-95,o),
(149,-108,cs),
(140,-112,o),
(108,-118,o),
(97,-118,cs),
(67,-118,o),
(70,-129,o),
(67,-106,cs),
(60,-71,o),
(119,-20,o),
(140,3,cs),
(202,81,o),
(295,176,o),
(310,283,cs),
(310,283,o),
(310,283,o),
(310,283,cs)
);
}
);
width = 450;
},
{
layerId = "3EED4E43-93E5-49B5-B4F5-8693E91ADEE2";
shapes = (
{
closed = 1;
nodes = (
(330,376,o),
(323,480,o),
(265,578,cs),
(238,620,o),
(196,663,o),
(148,688,cs),
(90,723,o),
(45,703,o),
(32,780,cs),
(9,933,o),
(223,791,o),
(273,746,cs),
(366,667,o),
(426,531,o),
(441,420,cs),
(457,297,o),
(435,181,o),
(368,73,cs),
(337,26,o),
(287,-9,o),
(245,-48,cs),
(211,-79,o),
(161,-135,o),
(114,-147,cs),
(104,-152,o),
(65,-156,o),
(52,-155,cs),
(16,-153,o),
(20,-166,o),
(17,-140,cs),
(11,-102,o),
(84,-49,o),
(110,-26,cs),
(187,57,o),
(302,155,o),
(325,271,cs),
(325,271,o),
(325,271,o),
(325,271,cs)
);
}
);
width = 450;
},
{
layerId = "B7F60EEF-5018-4FBA-9984-B24EB61DE206";
shapes = (
{
closed = 1;
nodes = (
(288,382,o),
(267,462,o),
(220,532,cs),
(198,563,o),
(169,590,o),
(139,605,cs),
(102,624,o),
(80,603,o),
(61,662,cs),
(24,780,o),
(164,695,o),
(198,667,cs),
(261,616,o),
(315,516,o),
(341,431,cs),
(369,336,o),
(375,242,o),
(356,148,cs),
(346,107,o),
(324,73,o),
(307,36,cs),
(294,8,o),
(276,-43,o),
(252,-59,cs),
(246,-63,o),
(227,-71,o),
(220,-72,cs),
(200,-76,o),
(204,-85,o),
(198,-66,cs),
(188,-36,o),
(219,15,o),
(230,37,cs),
(259,112,o),
(307,204,o),
(301,298,cs),
(301,298,o),
(301,298,o),
(301,298,cs)
);
}
);
width = 450;
},
{
layerId = "33631C71-1333-4331-8A89-BDCD639A4A27";
shapes = (
{
closed = 1;
nodes = (
(328,365,o),
(319,461,o),
(264,538,c),
(226,566,o),
(192,605,o),
(132,605,c),
(79,641,o),
(43,623,o),
(20,668,c),
(-31,800,o),
(185,707,o),
(265,672,c),
(354,605,o),
(415,491,o),
(428,424,c),
(468,321,o),
(430,241,o),
(387,141,c),
(333,100,o),
(297,69,o),
(264,38,c),
(228,24,o),
(199,-12,o),
(146,-30,c),
(137,-42,o),
(94,-47,o),
(63,-38,c),
(37,-38,o),
(38,-63,o),
(30,-34,c),
(36,-16,o),
(104,35,o),
(113,61,c),
(203,113,o),
(318,203,o),
(335,298,c),
(316,293,o),
(316,307,o),
(324,298,c)
);
}
);
width = 450;
}
);
unicode = 41;
},
{
glyphname = braceleft;
lastChange = "2024-10-09 22:35:19 +0000";
layers = (
{
layerId = m01;
shapes = (
{
closed = 1;
nodes = (
(96,102,o),
(124,148,o),
(140,189,cs),
(166,248,o),
(110,241,o),
(71,268,cs),
(51,282,o),
(30,325,o),
(45,351,cs),
(64,383,o),
(121,358,o),
(132,409,cs),
(138,435,o),
(109,471,o),
(96,492,cs),
(71,534,o),
(52,574,o),
(63,625,cs),
(70,666,o),
(84,695,o),
(117,725,cs),
(145,750,o),
(204,785,o),
(240,790,cs),
(266,794,o),
(301,767,o),
(304,738,cs),
(309,695,o),
(237,686,o),
(212,671,cs),
(174,645,o),
(145,608,o),
(158,566,cs),
(171,521,o),
(205,480,o),
(221,439,cs),
(230,413,o),
(233,389,o),
(228,363,cs),
(225,348,o),
(191,331,o),
(191,318,cs),
(191,289,o),
(240,252,o),
(248,223,cs),
(269,148,o),
(129,18,o),
(217,-35,cs),
(253,-58,o),
(328,-19,o),
(335,-67,cs),
(341,-106,o),
(295,-132,o),
(266,-139,cs),
(174,-161,o),
(96,-34,o),
(96,52,cs)
);
}
);
width = 376;
},
{
layerId = "3EED4E43-93E5-49B5-B4F5-8693E91ADEE2";
shapes = (
{
closed = 1;
nodes = (
(110,64,o),
(139,120,o),
(152,168,cs),
(177,238,o),
(108,222,o),
(57,246,cs),
(30,259,o),
(-1,305,o),
(14,336,cs),
(33,374,o),
(106,355,o),
(114,413,cs),
(117,443,o),
(76,479,o),
(58,501,cs),
(21,544,o),
(-7,586,o),
(-1,644,cs),
(3,691,o),
(16,726,o),
(52,764,cs),
(84,796,o),
(152,844,o),
(195,855,cs),
(226,864,o),
(272,838,o),
(280,807,cs),
(292,759,o),
(205,738,o),
(176,718,cs),
(133,683,o),
(103,637,o),
(124,593,cs),
(146,544,o),
(193,503,o),
(219,460,cs),
(233,432,o),
(239,406,o),
(237,376,cs),
(235,358,o),
(196,334,o),
(197,320,cs),
(201,288,o),
(267,253,o),
(280,223,cs),
(316,141,o),
(162,-24,o),
(277,-71,cs),
(324,-91,o),
(411,-37,o),
(426,-89,cs),
(439,-132,o),
(385,-168,o),
(351,-180,cs),
(240,-218,o),
(128,-88,o),
(117,9,cs)
);
}
);
width = 376;
},
{
layerId = "B7F60EEF-5018-4FBA-9984-B24EB61DE206";
shapes = (
{
closed = 1;
nodes = (
(92,160,o),
(120,192,o),
(139,221,cs),
(169,264,o),
(131,268,o),
(110,296,cs),
(100,310,o),
(96,348,o),
(111,366,cs),
(130,388,o),
(162,358,o),
(181,397,cs),
(190,416,o),
(178,449,o),
(174,469,cs),
(167,506,o),
(163,542,o),
(181,580,cs),
(194,611,o),
(209,632,o),
(237,650,cs),
(262,664,o),
(308,682,o),
(332,680,cs),
(350,678,o),
(368,650,o),
(363,627,cs),
(358,592,o),
(308,598,o),
(289,591,cs),
(258,576,o),
(232,552,o),
(230,516,cs),
(230,479,o),
(244,440,o),
(245,405,cs),
(246,383,o),
(243,363,o),
(234,344,cs),
(229,332,o),
(203,325,o),
(200,314,cs),
(194,291,o),
(218,254,o),
(218,229,cs),
(216,166,o),
(96,87,o),
(143,29,cs),
(161,6,o),
(220,23,o),
(213,-16,cs),
(209,-48,o),
(174,-61,o),
(153,-61,cs),
(87,-62,o),
(63,52,o),
(81,120,cs)
);
}
);
width = 376;
},
{
layerId = "33631C71-1333-4331-8A89-BDCD639A4A27";
shapes = (
{
closed = 1;
nodes = (
(108,97,o),
(145,126,o),
(137,177,c),
(159,234,o),
(114,247,o),
(103,259,c),
(89,281,o),
(61,321,o),
(71,365,c),
(80,381,o),
(121,371,o),
(147,425,c),
(136,440,o),
(135,480,o),
(119,508,c),
(98,570,o),
(84,602,o),
(82,665,c),
(87,698,o),
(103,730,o),
(139,749,c),
(160,776,o),
(207,828,o),
(240,821,c),
(257,822,o),
(282,793,o),
(271,785,c),
(287,726,o),
(234,719,o),
(216,706,c),
(186,689,o),
(153,638,o),
(172,601,c),
(175,541,o),
(212,483,o),
(205,442,c),
(211,429,o),
(223,413,o),
(231,368,c),
(227,366,o),
(179,345,o),
(196,316,c),
(195,298,o),
(223,236,o),
(241,217,c),
(248,127,o),
(147,-9,o),
(219,-78,c),
(229,-77,o),
(293,-58,o),
(307,-94,c),
(306,-129,o),
(280,-163,o),
(245,-167,c),
(169,-215,o),
(114,-59,o),
(116,28,c)
);
}
);
width = 376;
}
);
unicode = 123;
},
{
glyphname = braceright;
lastChange = "2024-10-09 22:35:20 +0000";
layers = (
{
layerId = m01;
shapes = (
{
closed = 1;
nodes = (
(278,555,o),
(233,517,o),
(206,476,cs),
(186,445,o),
(148,402,o),
(198,385,cs),
(227,376,o),
(273,366,o),
(278,326,cs),
(280,284,o),
(232,280,o),
(217,251,cs),
(203,224,o),
(254,187,o),
(265,161,cs),
(288,111,o),
(278,66,o),
(269,21,cs),
(259,-39,o),
(164,-142,o),
(96,-111,cs),
(55,-93,o),
(81,-62,o),
(109,-39,cs),
(138,-14,o),
(171,13,o),
(186,56,cs),
(198,88,o),
(206,130,o),
(180,153,cs),
(147,182,o),
(119,197,o),
(119,251,cs),
(119,265,o),
(134,292,o),
(134,311,cs),
(134,326,o),
(116,333,o),
(109,345,cs),
(83,377,o),
(79,432,o),
(92,469,cs),
(107,510,o),
(136,538,o),
(164,574,cs),
(192,610,o),
(194,660,o),
(138,668,cs),
(104,672,o),
(63,653,o),
(44,698,cs),
(25,743,o),
(72,766,o),
(111,766,cs),
(202,766,o),
(278,691,o),
(278,608,cs)
);
}
);
width = 319;
},
{
layerId = "3EED4E43-93E5-49B5-B4F5-8693E91ADEE2";
shapes = (
{
closed = 1;
nodes = (
(328,579,o),
(269,540,o),
(231,495,cs),
(202,461,o),
(151,416,o),
(211,390,cs),
(246,377,o),
(301,360,o),
(303,313,cs),
(302,264,o),
(241,265,o),
(220,233,cs),
(200,204,o),
(259,155,o),
(269,123,cs),
(293,62,o),
(275,11,o),
(259,-40,cs),
(241,-109,o),
(112,-217,o),
(32,-174,cs),
(-17,-148,o),
(18,-115,o),
(56,-91,cs),
(94,-66,o),
(138,-38,o),
(161,10,cs),
(179,46,o),
(193,94,o),
(164,123,cs),
(126,161,o),
(93,181,o),
(99,244,cs),
(100,260,o),
(122,290,o),
(124,312,cs),
(126,330,o),
(105,340,o),
(97,355,cs),
(69,394,o),
(70,459,o),
(90,500,cs),
(112,546,o),
(151,576,o),
(189,614,cs),
(228,653,o),
(236,710,o),
(168,726,cs),
(126,735,o),
(74,717,o),
(54,771,cs),
(36,826,o),
(97,848,o),
(144,843,cs),
(257,833,o),
(342,737,o),
(333,640,cs)
);
}
);
width = 319;
},
{
layerId = "B7F60EEF-5018-4FBA-9984-B24EB61DE206";
shapes = (
{
closed = 1;
nodes = (
(211,514,o),
(182,478,o),
(166,443,cs),
(154,416,o),
(130,378,o),
(171,370,cs),
(193,366,o),
(230,364,o),
(238,333,cs),
(245,300,o),
(208,292,o),
(200,266,cs),
(193,244,o),
(236,220,o),
(247,201,cs),
(271,165,o),
(268,128,o),
(267,91,cs),
(266,43,o),
(205,-49,o),
(150,-32,cs),
(116,-23,o),
(132,5,o),
(151,26,cs),
(170,49,o),
(193,74,o),
(199,110,cs),
(205,137,o),
(206,170,o),
(184,185,cs),
(155,204,o),
(132,213,o),
(126,255,cs),
(124,267,o),
(132,290,o),
(130,305,cs),
(128,316,o),
(113,320,o),
(107,329,cs),
(83,351,o),
(74,394,o),
(80,425,cs),
(86,459,o),
(105,484,o),
(122,516,cs),
(140,548,o),
(136,586,o),
(91,587,cs),
(65,586,o),
(36,567,o),
(17,600,cs),
(-3,634,o),
(30,657,o),
(59,661,cs),
(130,671,o),
(196,620,o),
(205,555,cs)
);
}
);
width = 319;
},
{
layerId = "33631C71-1333-4331-8A89-BDCD639A4A27";
shapes = (
{
closed = 1;
nodes = (
(289,526,o),
(262,499,o),
(200,463,c),
(188,443,o),
(164,395,o),
(215,388,c),
(228,377,o),
(316,372,o),
(321,332,c),
(318,280,o),
(245,296,o),
(245,249,c),
(228,242,o),
(278,210,o),
(297,183,c),
(322,128,o),
(314,108,o),
(295,47,c),
(267,13,o),
(166,-88,o),
(73,-72,c),
(29,-54,o),
(64,-14,o),
(90,6,c),
(131,24,o),
(160,52,o),
(210,84,c),
(209,117,o),
(233,159,o),
(182,163,c),
(142,188,o),
(96,200,o),
(104,269,cs),
(104,271,o),
(130,289,o),
(143,324,c),
(124,334,o),
(101,335,o),
(110,331,c),
(65,366,o),
(78,413,o),
(71,463,c),
(103,495,o),
(124,513,o),
(158,543,c),
(203,568,o),
(215,616,o),
(140,616,c),
(92,639,o),
(28,626,o),
(29,652,c),
(-15,684,o),
(39,715,o),
(90,721,c),
(200,711,o),
(293,657,o),
(310,572,c)
);
}
);
width = 319;
}
);
unicode = 125;
},
{
glyphname = bracketleft;
lastChange = "2024-10-09 22:37:32 +0000";
layers = (
{
layerId = m01;
shapes = (
{
closed = 1;
nodes = (
(46,51,o),
(34,102,o),
(46,144,cs),
(58,196,o),
(71,243,o),
(76,293,cs),
(92,405,o),
(112,512,o),
(105,624,cs),
(103,666,o),
(88,688,o),
(133,712,cs),
(168,729,o),
(230,739,o),
(268,745,cs),
(314,749,o),
(366,745,o),
(395,706,cs),
(418,675,o),
(413,629,o),
(366,624,cs),
(347,620,o),
(329,637,o),
(309,637,cs),
(292,637,o),
(274,634,o),
(250,628,cs),
(221,620,o),
(224,624,o),
(212,595,cs),
(204,572,o),
(205,539,o),
(203,512,cs),
(192,424,o),
(182,341,o),
(176,246,cs),
(172,200,o),
(156,154,o),
(156,108,cs),
(156,84,o),
(139,43,o),
(156,27,cs),
(180,5,o),
(254,15,o),
(283,10,cs),
(309,8,o),
(338,5,o),
(366,10,cs),
(384,13,o),
(413,23,o),
(430,13,cs),
(483,-17,o),
(411,-78,o),
(380,-88,cs),
(334,-106,o),
(268,-98,o),
(221,-98,cs),
(193,-98,o),
(171,-88,o),
(143,-88,cs),
(124,-88,o),
(95,-102,o),
(76,-94,cs),
(39,-78,o),
(41,-28,o),
(41,5,cs),
(41,5,o),
(41,5,o),
(41,5,cs)
);
}
);
width = 489;
},
{
layerId = "3EED4E43-93E5-49B5-B4F5-8693E91ADEE2";
shapes = (
{
closed = 1;
nodes = (
(70,-22,o),
(50,34,o),
(56,83,cs),
(62,145,o),
(68,200,o),
(67,257,cs),
(68,387,o),
(74,511,o),
(49,637,cs),
(40,684,o),
(20,706,o),
(66,740,cs),
(103,765,o),
(170,785,o),
(212,798,cs),
(263,810,o),
(322,813,o),
(360,772,cs),
(390,741,o),
(391,688,o),
(340,676,cs),
(319,668,o),
(297,685,o),
(274,682,cs),
(255,679,o),
(236,673,o),
(210,662,cs),
(179,649,o),
(182,654,o),
(172,620,cs),
(167,592,o),
(173,555,o),
(175,524,cs),
(177,423,o),
(178,327,o),
(186,219,cs),
(188,166,o),
(177,112,o),
(184,59,cs),
(188,33,o),
(175,-16,o),
(197,-32,cs),
(227,-53,o),
(308,-31,o),
(341,-32,cs),
(370,-31,o),
(403,-29,o),
(434,-20,cs),
(453,-13,o),
(484,2,o),
(505,-6,cs),
(568,-32,o),
(497,-112,o),
(464,-129,cs),
(416,-156,o),
(341,-157,o),
(288,-164,cs),
(257,-168,o),
(231,-160,o),
(199,-165,cs),
(179,-167,o),
(148,-188,o),
(126,-181,cs),
(82,-168,o),
(77,-111,o),
(72,-74,cs),
(72,-74,o),
(72,-74,o),
(72,-74,cs)
);
}
);
width = 489;
},
{
layerId = "B7F60EEF-5018-4FBA-9984-B24EB61DE206";
shapes = (
{
closed = 1;
nodes = (
(59,112,o),
(56,156,o),
(71,191,cs),
(86,233,o),
(103,271,o),
(112,312,cs),
(138,405,o),
(167,493,o),
(176,588,cs),
(179,623,o),
(170,643,o),
(208,659,cs),
(237,669,o),
(287,671,o),
(317,671,cs),
(354,669,o),
(394,660,o),
(412,624,cs),
(426,595,o),
(417,557,o),
(380,558,cs),
(364,556,o),
(352,573,o),
(337,576,cs),
(323,578,o),
(318,577,o),
(299,574,cs),
(275,571,o),
(265,566,o),
(255,551,cs),
(244,534,o),
(244,505,o),
(238,483,cs),
(219,410,o),
(201,341,o),
(185,261,cs),
(176,223,o),
(158,186,o),
(152,148,cs),
(149,128,o),
(131,95,o),
(142,79,cs),
(158,58,o),
(217,58,o),
(239,51,cs),
(260,46,o),
(282,40,o),
(305,42,cs),
(319,42,o),
(343,47,o),
(354,36,cs),
(392,6,o),
(329,-38,o),
(304,-43,cs),
(266,-53,o),
(214,-38,o),
(178,-33,cs),
(156,-30,o),
(144,-26,o),
(122,-23,cs),
(108,-21,o),
(79,-23,o),
(65,-14,cs),
(38,4,o),
(46,46,o),
(50,73,cs),
(50,73,o),
(50,73,o),
(50,73,cs)
);
}
);
width = 489;
},
{
layerId = "33631C71-1333-4331-8A89-BDCD639A4A27";
shapes = (
{
closed = 1;
nodes = (
(99,10,o),
(69,76,o),
(80,118,c),
(105,168,o),
(113,235,o),
(116,299,cs),
(117,418,o),
(141,549,o),
(129,676,c),
(143,721,o),
(124,723,o),
(163,765,c),
(190,768,o),
(241,802,o),
(261,796,c),
(306,812,o),
(344,787,o),
(365,735,c),
(395,721,o),
(384,659,o),
(351,651,c),
(333,644,o),
(312,681,o),
(297,687,c),
(281,684,o),
(281,681,o),
(255,676,c),
(228,654,o),
(240,659,o),
(214,636,c),
(210,611,o),
(217,549,o),
(220,547,c),
(214,437,o),
(207,328,o),
(199,253,c),
(199,182,o),
(182,119,o),
(171,84,c),
(173,44,o),
(163,24,o),
(173,-9,c),
(187,-23,o),
(243,-28,o),
(275,-21,c),
(299,-23,o),
(317,-46,o),
(333,-24,c),
(358,-13,o),
(383,4,o),
(396,-9,cs),
(437,-54,o),
(375,-119,o),
(357,-128,c),
(316,-156,o),
(268,-151,o),
(239,-139,c),
(196,-163,o),
(200,-134,o),
(166,-126,cs),
(144,-123,o),
(126,-162,o),
(121,-141,c),
(93,-136,o),
(76,-82,o),
(81,-47,c),
(93,-19,o),
(85,-24,o),
(80,-17,c)
);
}
);
width = 489;
}
);
unicode = 91;
},
{
glyphname = bracketright;
lastChange = "2024-10-09 22:35:27 +0000";
layers = (
{
layerId = m01;
shapes = (
{
closed = 1;
nodes = (
(203,160,o),
(204,247,o),
(216,334,cs),
(221,383,o),
(223,434,o),
(228,483,cs),
(231,508,o),
(244,595,o),
(228,616,cs),
(216,632,o),
(144,609,o),
(116,613,cs),
(74,617,o),
(36,637,o),
(40,687,cs),
(44,732,o),
(74,731,o),
(111,724,cs),
(148,718,o),
(195,724,o),
(237,729,cs),
(269,732,o),
(291,737,o),
(311,711,cs),
(338,678,o),
(327,645,o),
(324,608,cs),
(315,513,o),
(310,421,o),
(293,330,cs),
(280,247,o),
(269,172,o),
(277,88,cs),
(282,51,o),
(292,22,o),
(303,-15,cs),
(310,-45,o),
(306,-70,o),
(277,-81,cs),
(239,-95,o),
(224,-65,o),
(195,-60,cs),
(152,-53,o),
(92,-81,o),
(61,-32,cs),
(29,19,o),
(111,24,o),
(139,27,cs),
(186,32,o),
(203,22,o),
(203,75,cs),
(203,75,o),
(203,75,o),
(203,75,cs)
);
}
);
width = 369;
},
{
layerId = "3EED4E43-93E5-49B5-B4F5-8693E91ADEE2";
shapes = (
{
closed = 1;
nodes = (
(183,130,o),
(197,230,o),
(226,328,cs),
(239,384,o),
(249,442,o),
(263,498,cs),
(270,526,o),
(299,624,o),
(282,651,cs),
(270,672,o),
(174,657,o),
(140,666,cs),
(87,678,o),
(41,707,o),
(54,764,cs),
(66,815,o),
(104,809,o),
(149,795,cs),
(196,782,o),
(257,781,o),
(310,779,cs),
(351,778,o),
(381,780,o),
(402,747,cs),
(431,704,o),
(413,668,o),
(403,626,cs),
(377,519,o),
(358,413,o),
(323,312,cs),
(293,218,o),
(268,133,o),
(267,36,cs),
(267,-8,o),
(276,-43,o),
(284,-87,cs),
(289,-122,o),
(280,-150,o),
(242,-159,cs),
(191,-168,o),
(177,-132,o),
(141,-122,cs),
(87,-107,o),
(7,-129,o),
(-25,-67,cs),
(-59,-3,o),
(46,-11,o),
(82,-12,cs),
(143,-14,o),
(163,-29,o),
(171,33,cs),
(171,33,o),
(171,33,o),
(171,33,cs)
);
}
);
width = 369;
},
{
layerId = "B7F60EEF-5018-4FBA-9984-B24EB61DE206";
shapes = (
{
closed = 1;
nodes = (
(216,187,o),
(204,259,o),
(201,332,cs),
(198,373,o),
(191,416,o),
(188,457,cs),
(186,478,o),
(184,551,o),
(169,566,cs),
(158,577,o),
(107,549,o),
(86,549,cs),
(54,547,o),
(23,558,o),
(19,600,cs),
(15,638,o),
(37,641,o),
(66,640,cs),
(94,639,o),
(129,651,o),
(160,660,cs),
(183,667,o),
(199,674,o),
(217,655,cs),
(242,632,o),
(239,603,o),
(242,572,cs),
(249,493,o),
(258,416,o),
(258,339,cs),
(261,269,o),
(263,206,o),
(282,137,cs),
(291,107,o),
(303,85,o),
(316,56,cs),
(325,32,o),
(326,11,o),
(306,-2,cs),
(279,-19,o),
(264,4,o),
(242,4,cs),
(209,5,o),
(168,-26,o),
(138,11,cs),
(106,49,o),
(167,63,o),
(188,69,cs),
(222,79,o),
(236,73,o),
(228,117,cs),
(228,117,o),
(228,117,o),
(228,117,cs)
);
}
);
width = 369;
},
{
layerId = "33631C71-1333-4331-8A89-BDCD639A4A27";
shapes = (
{
closed = 1;
nodes = (
(199,210,o),
(195,244,o),
(208,333,c),
(245,378,o),
(230,434,o),
(223,462,c),
(253,477,o),
(255,578,o),
(226,577,c),
(236,595,o),
(145,578,o),
(94,574,cs),
(61,572,o),
(7,595,o),
(3,646,c),
(26,683,o),
(53,694,o),
(99,695,c),
(152,662,o),
(201,684,o),
(233,679,c),
(272,689,o),
(316,700,o),
(330,681,cs),
(374,628,o),
(344,621,o),
(353,588,c),
(356,500,o),
(324,397,o),
(301,336,c),
(311,245,o),
(293,190,o),
(292,113,c),
(301,75,o),
(299,60,o),
(332,33,c),
(348,3,o),
(331,-21,o),
(280,-50,cs),
(266,-59,o),
(219,-32,o),
(193,-8,c),
(148,-26,o),
(69,-26,o),
(56,3,c),
(-12,63,o),
(92,65,o),
(115,63,cs),
(181,52,o),
(196,47,o),
(207,94,c),
(224,102,o),
(214,127,o),
(202,152,c)
);
}
);
width = 369;
}
);
unicode = 93;
},
{
glyphname = quotedblleft;
lastChange = "2024-10-09 22:35:28 +0000";
layers = (
{
layerId = m01;
shapes = (
{
closed = 1;
nodes = (
(135,648,o),
(128,624,o),
(122,582,cs),
(118,563,o),
(119,548,o),
(124,528,cs),
(130,504,o),
(142,500,o),
(155,483,cs),
(163,474,o),
(168,459,o),
(155,446,cs),
(142,432,o),
(142,444,o),
(128,448,cs),
(94,458,o),
(63,480,o),
(49,515,cs),
(29,565,o),
(42,671,o),
(97,699,cs),
(118,710,o),
(178,729,o),
(196,721,cs),
(232,705,o),
(236,648,o),
(187,648,cs)
);
},
{
closed = 1;
nodes = (
(443,613,o),
(411,622,o),
(393,604,cs),
(371,582,o),
(359,535,o),
(365,507,cs),
(370,483,o),
(398,479,o),
(375,456,cs),
(356,436,o),
(328,456,o),
(310,474,cs),
(269,515,o),
(286,600,o),
(320,638,cs),
(354,679,o),
(443,727,o),
(443,645,cs)
);
}
);
width = 483;
},
{
layerId = "3EED4E43-93E5-49B5-B4F5-8693E91ADEE2";
shapes = (
{
closed = 1;
nodes = (
(47,682,o),
(39,655,o),
(33,609,cs),
(30,588,o),
(32,571,o),
(40,549,cs),
(51,524,o),
(67,520,o),
(86,503,cs),
(98,494,o),
(106,478,o),
(89,462,cs),
(72,445,o),
(71,459,o),
(52,462,cs),
(5,470,o),
(-40,491,o),
(-63,528,cs),
(-93,581,o),
(-83,699,o),
(-9,735,cs),
(19,749,o),
(100,776,o),
(126,768,cs),
(177,754,o),
(187,691,o),
(119,687,cs)
);
},
{
closed = 1;
nodes = (
(476,673,o),
(430,680,o),
(407,658,cs),
(379,632,o),
(365,579,o),
(375,549,cs),
(384,523,o),
(423,521,o),
(393,494,cs),
(368,470,o),
(328,489,o),
(302,508,cs),
(242,549,o),
(259,644,o),
(304,688,cs),
(347,737,o),
(468,798,o),
(474,708,cs)
);
}
);
width = 483;
},
{
layerId = "B7F60EEF-5018-4FBA-9984-B24EB61DE206";
shapes = (
{
closed = 1;
nodes = (
(180,656,o),
(171,635,o),
(159,599,cs),
(153,583,o),
(151,569,o),
(151,550,cs),
(151,528,o),
(158,523,o),
(165,506,cs),
(168,497,o),
(169,483,o),
(158,473,cs),
(146,463,o),
(148,473,o),
(139,479,cs),
(117,493,o),
(100,517,o),
(96,549,cs),
(92,597,o),
(120,690,o),
(163,707,cs),
(180,714,o),
(225,722,o),
(237,713,cs),
(258,693,o),
(251,641,o),
(216,648,cs)
);
},
{
closed = 1;
nodes = (
(388,581,o),
(368,594,o),
(351,580,cs),
(333,563,o),
(315,524,o),
(314,498,cs),
(314,475,o),
(333,468,o),
(312,451,cs),
(296,436,o),
(280,458,o),
(270,476,cs),
(249,518,o),
(276,592,o),
(307,621,cs),
(338,652,o),
(409,682,o),
(394,609,cs)
);
}
);
width = 483;
},
{
layerId = "33631C71-1333-4331-8A89-BDCD639A4A27";
shapes = (
{
closed = 1;
nodes = (
(147,683,o),
(140,648,o),
(151,584,c),
(148,554,o),
(144,550,o),
(147,522,c),
(149,490,o),
(170,467,o),
(177,476,c),
(184,431,o),
(187,421,o),
(167,429,c),
(167,392,o),
(154,403,o),
(140,433,c),
(130,425,o),
(88,464,o),
(92,495,c),
(59,579,o),
(78,680,o),
(127,721,cs),
(148,741,o),
(184,763,o),
(197,762,c),
(221,749,o),
(248,661,o),
(188,661,c)
);
},
{
closed = 1;
nodes = (
(413,608,o),
(375,649,o),
(357,612,c),
(337,584,o),
(337,521,o),
(349,482,c),
(349,454,o),
(372,452,o),
(346,428,c),
(337,392,o),
(306,414,o),
(291,436,c),
(272,513,o),
(278,619,o),
(309,649,c),
(338,694,o),
(406,762,o),
(411,676,cs)
);
}
);
width = 483;
}
);
unicode = 8220;
},
{
glyphname = quotedblright;
lastChange = "2024-10-09 22:35:31 +0000";
layers = (
{
layerId = m01;
shapes = (
{
closed = 1;
nodes = (
(375,583,o),
(351,610,o),
(318,640,cs),
(288,667,o),
(249,651,o),
(215,671,cs),
(197,682,o),
(189,697,o),
(201,717,cs),
(216,743,o),
(242,739,o),
(267,732,cs),
(324,714,o),
(362,698,o),
(401,653,cs),
(477,565,o),
(458,440,o),
(370,364,cs),
(362,356,o),
(355,348,o),
(340,348,cs),
(337,348,o),
(310,358,o),
(307,361,cs),
(289,379,o),
(308,384,o),
(318,394,cs),
(352,431,o),
(384,486,o),
(380,537,cs)
);
},
{
closed = 1;
nodes = (
(82,629,o),
(73,624,o),
(57,638,cs),
(46,649,o),
(36,659,o),
(42,677,cs),
(57,720,o),
(142,696,o),
(170,684,cs),
(203,671,o),
(230,647,o),
(251,619,cs),
(282,580,o),
(274,534,o),
(261,492,cs),
(251,458,o),
(215,404,o),
(176,404,cs),
(164,404,o),
(136,413,o),
(136,427,cs),
(136,446,o),
(164,458,o),
(172,467,cs),
(197,498,o),
(210,547,o),
(193,583,cs),
(177,618,o),
(135,629,o),
(99,629,cs)
);
}
);
width = 488;
},
{
layerId = "3EED4E43-93E5-49B5-B4F5-8693E91ADEE2";
shapes = (
{
closed = 1;
nodes = (
(422,593,o),
(398,622,o),
(363,656,cs),
(332,686,o),
(288,672,o),
(252,695,cs),
(233,708,o),
(225,725,o),
(240,745,cs),
(258,771,o),
(286,765,o),
(313,755,cs),
(374,733,o),
(415,714,o),
(455,664,cs),
(533,567,o),
(504,437,o),
(402,363,cs),
(394,355,o),
(385,347,o),
(368,348,cs),
(365,349,o),
(336,360,o),
(333,365,cs),
(314,385,o),
(336,388,o),
(347,398,cs),
(388,434,o),
(426,490,o),
(424,544,cs)
);
},
{
closed = 1;
nodes = (
(104,660,o),
(93,655,o),
(76,671,cs),
(65,683,o),
(55,695,o),
(63,713,cs),
(81,757,o),
(174,727,o),
(204,712,cs),
(239,696,o),
(267,669,o),
(289,639,cs),
(320,596,o),
(308,547,o),
(292,504,cs),
(279,470,o),
(235,415,o),
(192,418,cs),
(179,419,o),
(149,430,o),
(150,445,cs),
(151,465,o),
(183,476,o),
(192,484,cs),
(221,516,o),
(239,566,o),
(223,605,cs),
(207,643,o),
(162,656,o),
(122,659,cs)
);
}
);
width = 488;
},
{
layerId = "B7F60EEF-5018-4FBA-9984-B24EB61DE206";
shapes = (
{
closed = 1;
nodes = (
(326,584,o),
(310,598,o),
(287,614,cs),
(267,628,o),
(247,614,o),
(225,623,cs),
(214,628,o),
(207,637,o),
(212,651,cs),
(217,670,o),
(233,669,o),
(247,668,cs),
(282,662,o),
(305,656,o),
(333,631,cs),
(387,582,o),
(390,501,o),
(349,442,cs),
(345,437,o),
(342,431,o),
(334,430,cs),
(332,429,o),
(315,432,o),
(313,434,cs),
(301,444,o),
(311,449,o),
(316,457,cs),
(330,484,o),
(343,522,o),
(335,555,cs)
);
},
{
closed = 1;
nodes = (
(154,583,o),
(150,578,o),
(139,586,cs),
(132,592,o),
(125,597,o),
(126,609,cs),
(130,639,o),
(181,632,o),
(198,627,cs),
(218,622,o),
(237,609,o),
(252,594,cs),
(274,572,o),
(274,542,o),
(272,513,cs),
(270,490,o),
(256,452,o),
(234,448,cs),
(227,447,o),
(210,450,o),
(209,459,cs),
(207,471,o),
(221,481,o),
(224,488,cs),
(235,510,o),
(236,543,o),
(223,565,cs),
(209,585,o),
(184,589,o),
(164,585,cs)
);
}
);
width = 488;
},
{
layerId = "33631C71-1333-4331-8A89-BDCD639A4A27";
shapes = (
{
closed = 1;
nodes = (
(389,577,o),
(364,586,o),
(319,629,c),
(291,640,o),
(248,628,o),
(201,648,c),
(197,652,o),
(169,657,o),
(183,690,c),
(212,698,o),
(258,700,o),
(258,688,c),
(329,669,o),
(392,655,o),
(435,628,c),
(494,554,o),
(494,472,o),
(383,411,c),
(367,389,o),
(382,391,o),
(350,388,c),
(341,396,o),
(310,391,o),
(325,397,c),
(302,407,o),
(302,417,o),
(312,422,c),
(355,453,o),
(411,499,o),
(396,541,c)
);
},
{
closed = 1;
nodes = (
(77,622,o),
(38,616,o),
(29,615,c),
(28,639,o),
(5,635,o),
(17,653,c),
(38,675,o),
(135,667,o),
(168,662,c),
(194,642,o),
(241,632,o),
(253,602,c),
(277,565,o),
(280,538,o),
(252,511,c),
(238,486,o),
(194,427,o),
(168,431,c),
(153,421,o),
(128,436,o),
(125,450,cs),
(117,477,o),
(136,484,o),
(167,476,c),
(185,501,o),
(197,543,o),
(193,580,c),
(158,598,o),
(135,601,o),
(74,618,c)
);
}
);
width = 488;
}
);
unicode = 8221;
},
{
glyphname = quoteleft;
lastChange = "2024-10-09 22:35:32 +0000";
layers = (
{
layerId = m01;
shapes = (
{
closed = 1;
nodes = (
(40,639,o),
(172,776,o),
(225,718,cs),
(258,683,o),
(200,654,o),
(179,640,cs),
(155,625,o),
(124,600,o),
(121,569,cs),
(117,522,o),
(145,511,o),
(179,486,cs),
(199,471,o),
(215,429,o),
(172,429,cs),
(164,429,o),
(139,444,o),
(132,447,cs),
(114,456,o),
(97,461,o),
(83,472,cs),
(58,494,o),
(40,540,o),
(40,576,cs)
);
}
);
width = 275;
},
{
layerId = "3EED4E43-93E5-49B5-B4F5-8693E91ADEE2";
shapes = (
{
closed = 1;
nodes = (
(-4,664,o),
(147,818,o),
(214,759,cs),
(254,723,o),
(187,689,o),
(162,673,cs),
(135,655,o),
(98,627,o),
(96,594,cs),
(94,542,o),
(128,532,o),
(170,507,cs),
(194,492,o),
(216,448,o),
(164,446,cs),
(154,445,o),
(124,460,o),
(116,462,cs),
(93,471,o),
(73,475,o),
(55,486,cs),
(24,509,o),
(1,557,o),
(-1,596,cs)
);
}
);
width = 275;
},
{
layerId = "B7F60EEF-5018-4FBA-9984-B24EB61DE206";
shapes = (
{
closed = 1;
nodes = (
(90,635,o),
(197,702,o),
(221,656,cs),
(235,627,o),
(194,617,o),
(178,612,cs),
(160,607,o),
(136,596,o),
(128,576,cs),
(117,546,o),
(134,534,o),
(150,512,cs),
(160,499,o),
(163,469,o),
(135,477,cs),
(131,478,o),
(118,492,o),
(114,495,cs),
(104,504,o),
(94,510,o),
(87,520,cs),
(75,538,o),
(72,571,o),
(79,595,cs)
);
}
);
width = 275;
},
{
layerId = "33631C71-1333-4331-8A89-BDCD639A4A27";
shapes = (
{
closed = 1;
nodes = (
(71,658,o),
(177,821,o),
(213,733,c),
(238,704,o),
(197,658,o),
(177,663,c),
(166,621,o),
(142,602,o),
(137,577,c),
(117,522,o),
(158,498,o),
(181,462,c),
(182,459,o),
(207,397,o),
(178,400,c),
(170,385,o),
(132,414,o),
(138,413,c),
(112,431,o),
(108,449,o),
(107,439,c),
(71,484,o),
(74,532,o),
(71,579,cs)
);
}
);
width = 275;
}
);
unicode = 8216;
},
{
glyphname = quoteright;
lastChange = "2024-10-09 22:35:35 +0000";
layers = (
{
layerId = m01;
shapes = (
{
closed = 1;
nodes = (
(249,524,o),
(232,479,o),
(204,460,cs),
(177,442,o),
(141,454,o),
(151,490,cs),
(158,520,o),
(178,537,o),
(170,571,cs),
(161,612,o),
(124,637,o),
(89,656,cs),
(67,668,o),
(30,673,o),
(42,707,cs),
(54,740,o),
(93,732,o),
(117,723,cs),
(194,692,o),
(249,635,o),
(249,558,cs)
);
}
);
width = 289;
},
{
layerId = "3EED4E43-93E5-49B5-B4F5-8693E91ADEE2";
shapes = (
{
closed = 1;
nodes = (
(290,537,o),
(269,490,o),
(236,472,cs),
(205,454,o),
(163,469,o),
(177,506,cs),
(186,537,o),
(210,554,o),
(203,590,cs),
(193,635,o),
(153,663,o),
(114,684,cs),
(88,698,o),
(46,705,o),
(62,741,cs),
(76,775,o),
(121,765,o),
(149,754,cs),
(235,717,o),
(295,654,o),
(292,573,cs)
);
}
);
width = 289;
},
{
layerId = "B7F60EEF-5018-4FBA-9984-B24EB61DE206";
shapes = (
{
closed = 1;
nodes = (
(225,553,o),
(221,518,o),
(206,499,cs),
(190,482,o),
(164,485,o),
(164,513,cs),
(164,536,o),
(175,552,o),
(164,575,cs),
(151,603,o),
(122,615,o),
(95,624,cs),
(79,629,o),
(52,627,o),
(55,653,cs),
(58,680,o),
(86,680,o),
(103,677,cs),
(160,666,o),
(207,634,o),
(220,577,cs)
);
}
);
width = 289;
},
{
layerId = "33631C71-1333-4331-8A89-BDCD639A4A27";
shapes = (
{
closed = 1;
nodes = (
(266,520,o),
(240,483,o),
(209,468,c),
(173,446,o),
(144,481,o),
(149,509,c),
(167,540,o),
(199,550,o),
(190,563,cs),
(161,614,o),
(116,641,o),
(83,659,c),
(47,662,o),
(21,672,o),
(22,688,c),
(34,714,o),
(69,709,o),
(122,695,c),
(195,684,o),
(273,634,o),
(277,566,c)
);
}
);
width = 289;
}
);
unicode = 8217;
},
{
glyphname = quotedbl;
lastChange = "2024-10-09 22:35:37 +0000";
layers = (
{
layerId = m01;
shapes = (
{
closed = 1;
nodes = (
(45,622,o),
(36,653,o),
(42,674,cs),
(45,687,o),
(48,696,o),
(48,709,cs),
(48,717,o),
(52,731,o),
(61,738,cs),
(68,744,o),
(82,748,o),
(92,748,cs),
(121,748,o),
(124,733,o),
(118,713,cs),
(113,695,o),
(113,678,o),
(113,668,cs),
(113,643,o),
(115,621,o),
(115,595,cs),
(115,585,o),
(121,545,o),
(125,500,cs),
(128,470,o),
(115,453,o),
(84,463,cs),
(66,469,o),
(58,510,o),
(57,515,cs),
(51,543,o),
(45,573,o),
(45,601,cs)
);
},
{
closed = 1;
nodes = (
(264,724,o),
(267,704,o),
(267,690,cs),
(267,659,o),
(279,635,o),
(283,610,cs),
(285,601,o),
(302,545,o),
(305,531,cs),
(308,518,o),
(309,506,o),
(312,494,cs),
(318,473,o),
(318,435,o),
(297,423,cs),
(284,416,o),
(277,418,o),
(262,426,cs),
(251,433,o),
(239,463,o),
(239,510,cs),
(239,538,o),
(217,583,o),
(214,607,cs),
(208,649,o),
(202,699,o),
(202,715,cs),
(202,724,o),
(210,741,o),
(217,745,cs),
(226,751,o),
(240,746,o),
(248,739,cs)
);
}
);
width = 355;
},
{
layerId = "3EED4E43-93E5-49B5-B4F5-8693E91ADEE2";
shapes = (
{
closed = 1;
nodes = (
(59,668,o),
(51,702,o),
(61,723,cs),
(65,737,o),
(70,746,o),
(72,760,cs),
(72,768,o),
(79,783,o),
(91,790,cs),
(100,795,o),
(118,798,o),
(131,797,cs),
(168,794,o),
(169,776,o),
(161,756,cs),
(152,738,o),
(150,720,o),
(149,709,cs),
(147,682,o),
(148,659,o),
(145,631,cs),
(144,620,o),
(148,577,o),
(149,528,cs),
(149,496,o),
(131,480,o),
(93,493,cs),
(71,502,o),
(65,547,o),
(65,552,cs),
(59,583,o),
(54,615,o),
(57,645,cs)
);
},
{
closed = 1;
nodes = (
(345,751,o),
(347,729,o),
(345,714,cs),
(342,681,o),
(355,655,o),
(359,628,cs),
(360,618,o),
(376,556,o),
(378,541,cs),
(380,526,o),
(380,513,o),
(383,501,cs),
(389,477,o),
(385,436,o),
(357,427,cs),
(341,420,o),
(332,423,o),
(314,434,cs),
(301,442,o),
(288,475,o),
(293,526,cs),
(296,556,o),
(272,606,o),
(271,633,cs),
(268,678,o),
(265,732,o),
(266,749,cs),
(267,759,o),
(279,776,o),
(288,779,cs),
(300,785,o),
(317,777,o),
(326,769,cs)
);
}
);
width = 355;
},
{
layerId = "B7F60EEF-5018-4FBA-9984-B24EB61DE206";
shapes = (
{
closed = 1;
nodes = (
(109,629,o),
(108,650,o),
(115,663,cs),
(119,670,o),
(122,675,o),
(125,684,cs),
(126,689,o),
(131,697,o),
(138,700,cs),
(144,703,o),
(153,703,o),
(160,701,cs),
(179,696,o),
(179,687,o),
(172,674,cs),
(165,665,o),
(162,653,o),
(161,647,cs),
(157,631,o),
(155,617,o),
(151,600,cs),
(149,593,o),
(147,567,o),
(142,538,cs),
(139,519,o),
(129,510,o),
(110,521,cs),
(98,528,o),
(100,555,o),
(99,558,cs),
(100,578,o),
(101,598,o),
(106,616,cs)
);
},
{
closed = 1;
nodes = (
(269,658,o),
(267,644,o),
(265,636,cs),
(260,616,o),
(265,598,o),
(263,582,cs),
(264,576,o),
(265,538,o),
(265,528,cs),
(265,519,o),
(264,512,o),
(264,504,cs),
(265,489,o),
(259,465,o),
(243,461,cs),
(233,459,o),
(229,461,o),
(220,468,cs),
(215,475,o),
(211,496,o),
(218,526,cs),
(223,544,o),
(216,576,o),
(218,592,cs),
(220,619,o),
(224,652,o),
(227,663,cs),
(228,669,o),
(236,678,o),
(242,678,cs),
(249,681,o),
(257,676,o),
(261,669,cs)
);
}
);
width = 355;
},
{
layerId = "33631C71-1333-4331-8A89-BDCD639A4A27";
shapes = (
{
closed = 1;
nodes = (
(64,630,o),
(56,671,o),
(63,683,c),
(69,686,o),
(55,709,o),
(59,723,c),
(68,739,o),
(81,759,o),
(86,759,c),
(89,775,o),
(96,770,o),
(104,759,c),
(136,775,o),
(139,742,o),
(125,724,c),
(129,712,o),
(110,676,o),
(130,676,c),
(111,650,o),
(111,635,o),
(126,584,c),
(123,590,o),
(134,535,o),
(141,487,c),
(136,442,o),
(131,422,o),
(86,444,c),
(69,465,o),
(64,489,o),
(72,489,c),
(65,552,o),
(55,573,o),
(55,592,c)
);
},
{
closed = 1;
nodes = (
(240,727,o),
(245,710,o),
(252,709,c),
(256,656,o),
(277,650,o),
(259,617,c),
(269,595,o),
(285,556,o),
(285,525,c),
(303,499,o),
(291,505,o),
(285,489,c),
(295,453,o),
(303,406,o),
(269,389,c),
(269,391,o),
(252,407,o),
(241,407,c),
(229,398,o),
(233,446,o),
(242,488,c),
(238,541,o),
(225,592,o),
(215,610,c),
(212,643,o),
(191,716,o),
(188,741,c),
(206,737,o),
(196,770,o),
(216,775,c),
(209,780,o),
(244,757,o),
(238,744,c)
);
}
);
width = 355;
}
);
unicode = 34;
},
{
glyphname = quotesingle;
lastChange = "2024-10-09 22:35:39 +0000";
layers = (
{
layerId = m01;
shapes = (
{
closed = 1;
nodes = (
(48,658,o),
(43,709,o),
(65,751,cs),
(70,761,o),
(84,769,o),
(98,766,cs),
(129,756,o),
(137,725,o),
(129,697,cs),
(120,669,o),
(125,635,o),
(125,601,cs),
(125,543,o),
(140,530,o),
(125,463,cs),
(122,450,o),
(98,452,o),
(88,452,cs),
(50,452,o),
(54,504,o),
(50,530,cs),
(48,547,o),
(40,564,o),
(40,581,cs),
(40,605,o),
(48,622,o),
(48,646,cs)
);
}
);
width = 172;
},
{
layerId = "3EED4E43-93E5-49B5-B4F5-8693E91ADEE2";
shapes = (
{
closed = 1;
nodes = (
(5,705,o),
(-5,761,o),
(21,809,cs),
(26,820,o),
(43,830,o),
(60,828,cs),
(100,819,o),
(113,786,o),
(104,754,cs),
(95,723,o),
(103,686,o),
(105,648,cs),
(109,585,o),
(129,573,o),
(114,498,cs),
(112,483,o),
(81,484,o),
(69,483,cs),
(21,480,o),
(23,537,o),
(16,566,cs),
(12,584,o),
(1,602,o),
(0,621,cs),
(-2,647,o),
(7,666,o),
(5,692,cs)
);
}
);
width = 172;
},
{
layerId = "B7F60EEF-5018-4FBA-9984-B24EB61DE206";
shapes = (
{
closed = 1;
nodes = (
(41,626,o),
(32,658,o),
(46,687,cs),
(49,694,o),
(59,701,o),
(70,701,cs),
(95,697,o),
(105,679,o),
(101,660,cs),
(96,642,o),
(103,621,o),
(107,599,cs),
(112,562,o),
(125,555,o),
(119,512,cs),
(119,503,o),
(100,501,o),
(92,500,cs),
(62,495,o),
(60,530,o),
(55,545,cs),
(51,556,o),
(44,566,o),
(42,576,cs),
(40,592,o),
(44,603,o),
(42,619,cs)
);
}
);
width = 172;
},
{
layerId = "33631C71-1333-4331-8A89-BDCD639A4A27";
shapes = (
{
closed = 1;
nodes = (
(17,646,o),
(13,690,o),
(39,720,c),
(50,719,o),
(79,729,o),
(81,734,c),
(142,735,o),
(151,702,o),
(132,668,cs),
(125,653,o),
(154,620,o),
(131,607,c),
(156,569,o),
(175,553,o),
(125,489,c),
(114,489,o),
(106,497,o),
(101,498,c),
(53,499,o),
(29,517,o),
(53,544,c),
(35,553,o),
(26,585,o),
(7,596,c),
(26,608,o),
(48,613,o),
(20,637,c)
);
}
);
width = 172;
}
);
unicode = 39;
},
{
glyphname = at;
lastChange = "2024-10-09 22:35:41 +0000";
layers = (
{
layerId = m01;
shapes = (
{
closed = 1;
nodes = (
(371,501,o),
(320,464,o),
(296,429,cs),
(272,393,o),
(237,334,o),
(261,290,cs),
(292,234,o),
(342,306,o),
(351,339,cs),
(357,365,o),
(347,388,o),
(357,410,cs),
(364,424,o),
(390,428,o),
(387,439,cs)
);
},
{
closed = 1;
nodes = (
(183,404,o),
(235,521,o),
(322,540,cs),
(365,550,o),
(422,530,o),
(442,491,cs),
(451,474,o),
(461,446,o),
(461,423,cs),
(461,404,o),
(442,394,o),
(442,378,cs),
(442,355,o),
(485,275,o),
(516,290,cs),
(546,304,o),
(511,379,o),
(529,397,cs),
(539,407,o),
(550,400,o),
(559,413,cs),
(564,420,o),
(549,466,o),
(549,478,cs),
(549,518,o),
(526,556,o),
(494,582,cs),
(429,633,o),
(307,603,o),
(248,560,cs),
(174,506,o),
(122,446,o),
(118,352,cs),
(115,271,o),
(151,169,o),
(232,141,cs),
(277,126,o),
(342,131,o),
(387,145,cs),
(414,154,o),
(456,176,o),
(474,202,cs),
(489,224,o),
(484,224,o),
(461,235,cs),
(451,240,o),
(420,271,o),
(412,271,cs),
(394,271,o),
(371,223,o),
(345,210,cs),
(271,177,o),
(183,235,o),
(183,319,cs)
);
},
{
closed = 1;
nodes = (
(40,456,o),
(110,580,o),
(228,633,cs),
(288,661,o),
(374,679,o),
(442,670,cs),
(484,665,o),
(545,640,o),
(572,605,cs),
(604,560,o),
(619,498,o),
(629,446,cs),
(642,382,o),
(642,295,o),
(598,241,cs),
(583,224,o),
(569,209,o),
(555,186,cs),
(540,160,o),
(514,134,o),
(488,116,cs),
(430,76,o),
(361,63,o),
(293,61,cs),
(228,58,o),
(167,93,o),
(122,135,cs),
(67,184,o),
(40,258,o),
(40,329,cs)
);
}
);
width = 677;
},
{
layerId = "3EED4E43-93E5-49B5-B4F5-8693E91ADEE2";
shapes = (
{
closed = 1;
nodes = (
(395,545,o),
(331,502,o),
(300,460,cs),
(268,416,o),
(221,344,o),
(245,286,cs),
(276,213,o),
(342,299,o),
(356,340,cs),
(366,373,o),
(356,403,o),
(370,430,cs),
(379,448,o),
(411,450,o),
(408,465,cs)
);
},
{
closed = 1;
nodes = (
(164,438,o),
(237,582,o),
(341,599,cs),
(392,607,o),
(458,577,o),
(477,525,cs),
(487,503,o),
(496,467,o),
(494,437,cs),
(492,413,o),
(468,402,o),
(467,382,cs),
(464,353,o),
(507,247,o),
(546,264,cs),
(582,279,o),
(548,377,o),
(571,398,cs),
(584,410,o),
(596,400,o),
(608,416,cs),
(614,425,o),
(602,484,o),
(603,500,cs),
(607,551,o),
(582,601,o),
(548,636,cs),
(476,707,o),
(330,680,o),
(256,631,cs),
(164,568,o),
(96,497,o),
(82,378,cs),
(71,275,o),
(103,143,o),
(196,100,cs),
(248,77,o),
(325,77,o),
(379,91,cs),
(412,100,o),
(464,124,o),
(487,156,cs),
(508,182,o),
(502,183,o),
(476,199,cs),
(464,206,o),
(430,248,o),
(421,249,cs),
(399,251,o),
(368,192,o),
(337,177,cs),
(246,142,o),
(148,224,o),
(156,330,cs)
);
},
{
closed = 1;
nodes = (
(0,517,o),
(95,669,o),
(239,725,cs),
(312,756,o),
(416,771,o),
(495,753,cs),
(544,743,o),
(614,706,o),
(642,658,cs),
(676,599,o),
(687,519,o),
(694,452,cs),
(702,369,o),
(694,258,o),
(637,193,cs),
(618,174,o),
(600,156,o),
(582,127,cs),
(561,96,o),
(528,65,o),
(496,45,cs),
(423,-1,o),
(340,-11,o),
(260,-8,cs),
(183,-6,o),
(115,45,o),
(66,101,cs),
(6,169,o),
(-19,265,o),
(-12,356,cs)
);
}
);
width = 677;
},
{
layerId = "B7F60EEF-5018-4FBA-9984-B24EB61DE206";
shapes = (
{
closed = 1;
nodes = (
(401,450,o),
(362,432,o),
(340,411,cs),
(318,388,o),
(285,352,o),
(292,316,cs),
(301,271,o),
(345,314,o),
(357,337,cs),
(366,354,o),
(364,373,o),
(375,387,cs),
(381,395,o),
(398,394,o),
(399,403,cs)
);
},
{
closed = 1;
nodes = (
(264,412,o),
(319,487,o),
(377,487,cs),
(406,486,o),
(438,463,o),
(443,431,cs),
(446,418,o),
(446,396,o),
(442,379,cs),
(438,366,o),
(425,361,o),
(422,350,cs),
(417,333,o),
(429,268,o),
(451,274,cs),
(472,279,o),
(464,339,o),
(479,349,cs),
(487,355,o),
(494,348,o),
(501,356,cs),
(506,359,o),
(505,396,o),
(508,404,cs),
(515,433,o),
(508,464,o),
(492,488,cs),
(462,536,o),
(380,534,o),
(335,513,cs),
(279,487,o),
(235,452,o),
(214,385,cs),
(196,326,o),
(200,247,o),
(245,213,cs),
(270,195,o),
(312,188,o),
(342,191,cs),
(362,193,o),
(392,201,o),
(407,218,cs),
(421,231,o),
(418,232,o),
(406,243,cs),
(401,248,o),
(388,276,o),
(382,277,cs),
(371,280,o),
(348,249,o),
(329,245,cs),
(276,233,o),
(232,289,o),
(248,350,cs)
);
},
{
closed = 1;
nodes = (
(185,472,o),
(252,551,o),
(337,569,cs),
(379,579,o),
(437,578,o),
(477,560,cs),
(502,550,o),
(536,522,o),
(546,491,cs),
(558,454,o),
(555,407,o),
(552,368,cs),
(547,320,o),
(531,257,o),
(493,225,cs),
(480,215,o),
(469,207,o),
(456,193,cs),
(441,176,o),
(420,162,o),
(401,153,cs),
(356,134,o),
(310,136,o),
(268,146,cs),
(227,154,o),
(195,189,o),
(175,228,cs),
(150,272,o),
(148,330,o),
(161,381,cs)
);
}
);
width = 677;
},
{
layerId = "33631C71-1333-4331-8A89-BDCD639A4A27";
shapes = (
{
closed = 1;
nodes = (
(361,507,o),
(318,479,o),
(300,447,cs),
(270,390,o),
(259,344,o),
(263,271,c),
(289,217,o),
(334,305,o),
(343,320,c),
(358,354,o),
(343,398,o),
(364,418,c),
(366,418,o),
(390,438,o),
(380,459,c)
);
},
{
closed = 1;
nodes = (
(200,397,o),
(254,555,o),
(334,557,c),
(369,567,o),
(424,537,o),
(420,524,c),
(448,486,o),
(459,474,o),
(461,443,c),
(441,416,o),
(441,415,o),
(440,371,c),
(424,353,o),
(479,276,o),
(486,278,c),
(513,305,o),
(489,394,o),
(510,401,c),
(519,416,o),
(531,392,o),
(537,425,c),
(535,424,o),
(526,477,o),
(535,494,c),
(526,550,o),
(505,586,o),
(488,605,cs),
(416,675,o),
(312,635,o),
(265,597,c),
(200,521,o),
(152,456,o),
(154,348,c),
(129,271,o),
(172,141,o),
(232,120,c),
(277,78,o),
(333,86,o),
(391,107,c),
(401,125,o),
(439,147,o),
(460,161,c),
(466,198,o),
(463,200,o),
(454,218,c),
(442,211,o),
(406,270,o),
(399,263,c),
(384,261,o),
(356,186,o),
(348,171,c),
(290,158,o),
(204,224,o),
(204,317,c)
);
},
{
closed = 1;
nodes = (
(71,458,o),
(143,613,o),
(250,679,cs),
(307,711,o),
(374,737,o),
(427,704,c),
(457,727,o),
(513,664,o),
(538,647,c),
(589,592,o),
(594,504,o),
(610,453,c),
(622,379,o),
(621,288,o),
(571,232,c),
(565,188,o),
(556,186,o),
(531,168,c),
(528,129,o),
(497,81,o),
(477,81,c),
(412,41,o),
(350,24,o),
(291,21,c),
(241,1,o),
(173,51,o),
(152,92,c),
(97,147,o),
(60,247,o),
(76,339,c)
);
}
);
width = 677;
}
);
unicode = 64;
},
